<svg width="40" height="40" viewBox="0 0 40 40" fill="none" xmlns="http://www.w3.org/2000/svg">
<g clip-path="url(#clip0_22046_148862)">
<path d="M25.832 1.66699H12.4987C10.1987 1.66699 8.33203 3.53366 8.33203 5.83366V34.167C8.33203 36.467 10.1987 38.3337 12.4987 38.3337H25.832C28.132 38.3337 29.9987 36.467 29.9987 34.167V5.83366C29.9987 3.53366 28.132 1.66699 25.832 1.66699ZM19.1654 36.667C17.782 36.667 16.6654 35.5503 16.6654 34.167C16.6654 32.7837 17.782 31.667 19.1654 31.667C20.5487 31.667 21.6654 32.7837 21.6654 34.167C21.6654 35.5503 20.5487 36.667 19.1654 36.667ZM26.6654 30.0003H11.6654V6.66699H26.6654V30.0003Z" fill="#616161"/>
</g>
<defs>
<clipPath id="clip0_22046_148862">
<rect width="40" height="40" fill="white"/>
</clipPath>
</defs>
</svg>
