<svg width="40" height="40" viewBox="0 0 40 40" fill="none" xmlns="http://www.w3.org/2000/svg">
<g clip-path="url(#clip0_22046_150040)">
<path d="M10.0013 16.667C8.16797 16.667 6.66797 18.167 6.66797 20.0003C6.66797 21.8337 8.16797 23.3337 10.0013 23.3337C11.8346 23.3337 13.3346 21.8337 13.3346 20.0003C13.3346 18.167 11.8346 16.667 10.0013 16.667ZM30.0013 16.667C28.168 16.667 26.668 18.167 26.668 20.0003C26.668 21.8337 28.168 23.3337 30.0013 23.3337C31.8346 23.3337 33.3346 21.8337 33.3346 20.0003C33.3346 18.167 31.8346 16.667 30.0013 16.667ZM20.0013 16.667C18.168 16.667 16.668 18.167 16.668 20.0003C16.668 21.8337 18.168 23.3337 20.0013 23.3337C21.8346 23.3337 23.3346 21.8337 23.3346 20.0003C23.3346 18.167 21.8346 16.667 20.0013 16.667Z" fill="#616161"/>
</g>
<defs>
<clipPath id="clip0_22046_150040">
<rect width="40" height="40" fill="white"/>
</clipPath>
</defs>
</svg>
