<svg width="40" height="40" viewBox="0 0 40 40" fill="none" xmlns="http://www.w3.org/2000/svg">
<path fill-rule="evenodd" clip-rule="evenodd" d="M25.7932 4.5459H15.3619C10.2104 4.5459 6.03429 8.70011 6.03429 13.8246C6.03429 18.9491 10.2104 23.1033 15.3619 23.1033H30.7918L28.8923 16.0515H15.3619C14.1255 16.0515 13.1233 15.0545 13.1233 13.8246C13.1233 12.5947 14.1255 11.5977 15.3619 11.5977H27.6927L25.7932 4.5459ZM32.0012 27.593H13.4964C10.1366 27.593 7.19169 25.826 5.54963 23.1752C5.37867 23.8777 5.28809 24.6114 5.28809 25.3661C5.28809 30.4906 9.46419 34.6448 14.6157 34.6448H33.9007L32.0012 27.593Z" fill="#FFD600"/>
</svg>
