<svg width="34" height="34" viewBox="0 0 34 34" fill="none" xmlns="http://www.w3.org/2000/svg">
<path fill-rule="evenodd" clip-rule="evenodd" d="M24.332 0.333008H2.9987C1.5187 0.333008 0.345365 1.54389 0.345365 3.0541L0.332031 19.3806C0.332031 20.8908 1.5187 22.1017 2.9987 22.1017H7.00592L6.9987 30.9453C6.9987 32.4555 8.18537 33.6664 9.66537 33.6664H30.9987C32.4787 33.6664 33.6654 32.4555 33.6654 30.9453V14.6187C33.6654 13.1085 32.4787 11.8976 30.9987 11.8976H26.9987V11.2174V3.0541C26.9987 1.54389 25.812 0.333008 24.332 0.333008ZM24.332 11.8976V11.2174H2.9987V19.3806H7.00814L7.01203 14.6187C7.01203 13.1085 8.18537 11.8976 9.66537 11.8976H24.332ZM24.332 5.77519H2.9987V3.0541H24.332V5.77519ZM30.9987 30.9453H9.66537V22.782V17.3398V14.6187H30.9987V17.3398V22.782V30.9453Z" fill="#616161"/>
<path d="M22.3307 24.4997V31.1663H21.1641C21.1641 31.1663 21.164 24.1213 21.1641 23.6164C21.164 22.952 21.9974 22.833 21.9974 22.833H31.9974L31.9974 24.4997H22.3307Z" fill="#616161"/>
<path d="M21.1641 31.1663H22.3307V24.4997H31.9974L31.9974 22.833H21.9974C21.9974 22.833 21.164 22.952 21.1641 23.6164M21.1641 31.1663C21.1641 31.1663 21.164 24.1213 21.1641 23.6164M21.1641 31.1663L21.1641 23.6164" stroke="#616161" stroke-linejoin="round"/>
</svg>
