<svg width="40" height="40" viewBox="0 0 40 40" fill="none" xmlns="http://www.w3.org/2000/svg">
<g clip-path="url(#clip0_22046_148872)">
<path d="M28.3318 25.0003H31.6651V28.3337H28.3318V25.0003ZM28.3318 18.3337H31.6651V21.667H28.3318V18.3337ZM28.3318 11.667H31.6651V15.0003H28.3318V11.667ZM22.8984 11.667L24.9984 13.067V11.667H22.8984Z" fill="#616161"/>
<path d="M16.668 5V7.51667L20.0013 9.73333V8.33333H35.0013V31.6667H28.3346V35H38.3346V5H16.668Z" fill="#616161"/>
<path d="M13.618 9.5L25.0013 17.0833V35H1.66797V17.4667L13.618 9.5ZM16.668 31.6667H21.668V18.6L13.618 13.4833L5.0013 18.9667V31.6667H10.0013V21.6667H16.668V31.6667Z" fill="#616161"/>
</g>
<defs>
<clipPath id="clip0_22046_148872">
<rect width="40" height="40" fill="white"/>
</clipPath>
</defs>
</svg>
