<svg width="48" height="32" viewBox="0 0 48 32" fill="none" xmlns="http://www.w3.org/2000/svg">
<path fill-rule="evenodd" clip-rule="evenodd" d="M6.89795 10.002C7.27454 9.99971 8.39372 9.89891 8.86779 11.4989C9.18712 12.5766 9.6958 14.3421 10.3938 16.7951H10.6781C11.4267 14.2089 11.9409 12.4435 12.2208 11.4989C12.6998 9.88224 13.8973 10.002 14.3763 10.002L18.0719 10.002V21.498H14.3053V14.7232H14.0527L11.9529 21.498H9.119L7.01926 14.7182H6.76668V21.498H3V10.002L6.89795 10.002ZM23.4808 10.002V16.7819H23.7813L26.3354 11.2068C26.8312 10.0974 27.888 10.002 27.888 10.002H31.533V21.4981H27.6876V14.7182H27.3871L24.8831 20.2932C24.3873 21.3977 23.2805 21.4981 23.2805 21.4981H19.6355V10.002H23.4808ZM44.8242 15.465C44.2878 16.985 42.6034 18.0736 40.7384 18.0736H36.7058V21.4981H33.0491V15.465H44.8242Z" fill="white"/>
<path fill-rule="evenodd" clip-rule="evenodd" d="M40.9148 10.0039H32.8574C33.0492 12.5633 35.2533 14.7543 37.535 14.7543H45.0783C45.5136 12.6272 44.0151 10.0039 40.9148 10.0039Z" fill="white"/>
</svg>
