<svg width="48" height="32" viewBox="0 0 48 32" fill="none" xmlns="http://www.w3.org/2000/svg">
<g clip-path="url(#clip0_8409_40909)">
<path d="M21.4853 21.8979H18.2168L20.2611 9.23047H23.5294L21.4853 21.8979Z" fill="white"/>
<path d="M33.3338 9.5393C32.6891 9.283 31.6666 9 30.4023 9C27.1745 9 24.9016 10.7248 24.8877 13.1908C24.8609 15.0103 26.515 16.0208 27.7522 16.6274C29.0167 17.2474 29.4466 17.652 29.4466 18.2045C29.4337 19.0532 28.4248 19.4443 27.4837 19.4443C26.1788 19.4443 25.4796 19.2427 24.4171 18.7705L23.9867 18.5681L23.5293 21.4117C24.2959 21.7617 25.7082 22.0723 27.1745 22.0859C30.6041 22.0859 32.8368 20.3877 32.8632 17.7598C32.8763 16.3178 32.0028 15.2128 30.1197 14.3099C28.9765 13.7303 28.2764 13.3395 28.2764 12.7465C28.2898 12.2073 28.8686 11.6551 30.159 11.6551C31.2216 11.6281 32.0023 11.884 32.5937 12.1402L32.8893 12.2747L33.3338 9.5393Z" fill="white"/>
<path d="M37.678 17.4103C37.9471 16.6826 38.9829 13.866 38.9829 13.866C38.9693 13.8931 39.2515 13.1249 39.4129 12.6533L39.6413 13.7448C39.6413 13.7448 40.2603 16.777 40.3947 17.4103C39.8839 17.4103 38.3235 17.4103 37.678 17.4103ZM41.7125 9.23047H39.1843C38.4047 9.23047 37.8124 9.45937 37.476 10.2815L32.6211 21.8977H36.0506C36.0506 21.8977 36.6152 20.3343 36.7366 19.9976C37.1128 19.9976 40.449 19.9976 40.933 19.9976C41.0269 20.4423 41.323 21.8977 41.323 21.8977H44.3493L41.7125 9.23047Z" fill="white"/>
<path d="M15.4876 9.23047L12.2866 17.8685L11.9369 16.1166C11.3451 14.0951 9.48912 11.8989 7.41797 10.8068L10.3499 21.8845H13.8062L18.9437 9.23047H15.4876Z" fill="white"/>
<path d="M9.31441 9.23047H4.05575L4.00195 9.48642C8.10404 10.5376 10.8208 13.0715 11.9369 16.1171L10.7938 10.2953C10.6056 9.48624 10.0272 9.25716 9.31441 9.23047Z" fill="white"/>
</g>
<defs>
<clipPath id="clip0_8409_40909">
<rect width="40.3481" height="13.0859" fill="white" transform="translate(4 9)"/>
</clipPath>
</defs>
</svg>
