<svg width="327" height="235" viewBox="0 0 327 235" fill="none" xmlns="http://www.w3.org/2000/svg">
<path d="M36.5848 223.695C36.2713 223.709 35.961 223.627 35.6958 223.459C35.4307 223.291 35.2236 223.045 35.1025 222.755C34.9815 222.466 34.9523 222.146 35.019 221.839C35.0858 221.532 35.2452 221.253 35.4756 221.04L35.5805 220.623C35.5667 220.589 35.5528 220.556 35.5388 220.522C35.223 219.776 34.6938 219.14 34.0177 218.693C33.3417 218.247 32.5488 218.01 31.7388 218.013C30.9288 218.016 30.1378 218.258 29.465 218.71C28.7923 219.161 28.2679 219.802 27.9576 220.551C26.7177 223.539 25.139 226.533 24.7503 229.693C24.5791 231.09 24.6514 232.506 24.9638 233.878C22.0515 227.52 20.5392 220.61 20.5295 213.616C20.5289 211.861 20.6263 210.108 20.8214 208.363C20.9825 206.934 21.2061 205.514 21.4922 204.104C23.0531 196.457 26.4044 189.288 31.271 183.189C33.6264 181.903 35.5313 179.925 36.7289 177.522C37.1627 176.658 37.4694 175.736 37.6393 174.784C37.3736 174.819 36.6374 170.769 36.8378 170.521C36.4675 169.958 35.8048 169.679 35.4004 169.13C33.3891 166.401 30.6181 166.878 29.1715 170.586C26.0813 172.147 26.0513 174.736 27.9475 177.225C29.1539 178.809 29.3196 180.952 30.3781 182.648C30.2692 182.788 30.1559 182.923 30.047 183.062C28.0564 185.624 26.3214 188.375 24.867 191.275C25.2207 188.026 24.7985 184.739 23.6352 181.685C22.4563 178.838 20.2464 176.441 18.3005 173.98C15.963 171.025 11.1698 172.315 10.758 176.061C10.754 176.098 10.7501 176.134 10.7463 176.17C11.0354 176.333 11.3183 176.507 11.5952 176.69C11.9429 176.922 12.2124 177.255 12.3683 177.643C12.5242 178.032 12.5592 178.458 12.4687 178.867C12.3782 179.275 12.1665 179.647 11.8613 179.933C11.5561 180.22 11.1716 180.407 10.7582 180.471L10.7159 180.477C10.8188 181.52 11.0008 182.553 11.2603 183.568C8.76384 193.23 14.1536 196.749 21.8493 196.907C22.0192 196.994 22.1848 197.082 22.3547 197.164C20.8934 201.309 19.9768 205.626 19.6279 210.007C19.4304 212.591 19.4421 215.188 19.6628 217.771L19.6497 217.679C19.0921 214.807 17.5612 212.216 15.3156 210.342C11.9803 207.6 7.26815 206.591 3.66994 204.387C3.28754 204.141 2.84291 204.01 2.38847 204.009C1.93404 204.008 1.48877 204.137 1.10517 204.38C0.721577 204.624 0.415667 204.973 0.223507 205.385C0.0313472 205.797 -0.0390453 206.256 0.0206424 206.707C0.0254687 206.739 0.0303794 206.771 0.0353657 206.803C0.571752 207.021 1.094 207.273 1.59909 207.557C1.88814 207.72 2.17108 207.893 2.44792 208.076C2.7957 208.309 3.06517 208.641 3.22104 209.03C3.37691 209.418 3.4119 209.845 3.32143 210.253C3.23096 210.662 3.01925 211.034 2.71403 211.32C2.40881 211.606 2.02432 211.794 1.61094 211.857L1.56856 211.864C1.53808 211.868 1.51195 211.873 1.4815 211.877C2.39799 214.067 3.6843 216.083 5.28411 217.836C6.8451 226.271 13.5495 227.071 20.7212 224.615H20.7256C21.5124 228.037 22.6525 231.368 24.1275 234.554H36.2803C36.3239 234.419 36.363 234.279 36.4023 234.144C35.2774 234.215 34.148 234.147 33.0395 233.943C33.9412 232.836 34.8428 231.72 35.7445 230.613C35.7646 230.592 35.7835 230.57 35.8011 230.548C36.2585 229.981 36.7202 229.419 37.1776 228.852L37.1778 228.851C37.2022 227.114 37.003 225.381 36.5852 223.695L36.5848 223.695Z" fill="#F2F2F2"/>
<path d="M290.414 223.695C290.727 223.709 291.038 223.627 291.303 223.459C291.568 223.291 291.775 223.045 291.896 222.755C292.017 222.466 292.046 222.146 291.98 221.839C291.913 221.532 291.753 221.253 291.523 221.04L291.418 220.623C291.432 220.589 291.446 220.556 291.46 220.522C291.776 219.776 292.305 219.14 292.981 218.693C293.657 218.247 294.45 218.01 295.26 218.013C296.07 218.016 296.861 218.258 297.534 218.71C298.206 219.161 298.731 219.802 299.041 220.551C300.281 223.539 301.86 226.533 302.248 229.693C302.419 231.09 302.347 232.506 302.035 233.878C304.947 227.52 306.459 220.61 306.469 213.616C306.47 211.861 306.372 210.108 306.177 208.363C306.016 206.934 305.793 205.514 305.506 204.104C303.946 196.457 300.594 189.288 295.728 183.189C293.372 181.903 291.467 179.925 290.27 177.522C289.836 176.658 289.529 175.736 289.359 174.784C289.625 174.819 290.361 170.769 290.161 170.521C290.531 169.958 291.194 169.679 291.598 169.13C293.61 166.401 296.381 166.878 297.827 170.586C300.917 172.147 300.947 174.736 299.051 177.225C297.845 178.809 297.679 180.952 296.621 182.648C296.729 182.788 296.843 182.923 296.952 183.062C298.942 185.624 300.677 188.375 302.132 191.275C301.778 188.026 302.2 184.739 303.363 181.685C304.542 178.838 306.752 176.441 308.698 173.98C311.036 171.025 315.829 172.315 316.241 176.061C316.245 176.098 316.249 176.134 316.252 176.17C315.963 176.333 315.68 176.507 315.403 176.69C315.056 176.922 314.786 177.255 314.63 177.643C314.474 178.032 314.439 178.458 314.53 178.867C314.62 179.275 314.832 179.647 315.137 179.933C315.443 180.22 315.827 180.407 316.24 180.471L316.283 180.477C316.18 181.52 315.998 182.553 315.738 183.568C318.235 193.23 312.845 196.749 305.149 196.907C304.979 196.994 304.814 197.082 304.644 197.164C306.105 201.309 307.022 205.626 307.371 210.007C307.568 212.591 307.557 215.188 307.336 217.771L307.349 217.679C307.907 214.807 309.437 212.216 311.683 210.342C315.018 207.6 319.731 206.591 323.329 204.387C323.711 204.141 324.156 204.01 324.61 204.009C325.065 204.008 325.51 204.137 325.893 204.38C326.277 204.624 326.583 204.973 326.775 205.385C326.967 205.797 327.038 206.256 326.978 206.707C326.973 206.739 326.968 206.771 326.963 206.803C326.427 207.021 325.905 207.273 325.4 207.557C325.111 207.72 324.828 207.893 324.551 208.076C324.203 208.309 323.933 208.641 323.778 209.03C323.622 209.418 323.587 209.845 323.677 210.253C323.768 210.662 323.979 211.034 324.285 211.32C324.59 211.606 324.974 211.794 325.388 211.857L325.43 211.864C325.461 211.868 325.487 211.873 325.517 211.877C324.601 214.067 323.314 216.083 321.715 217.836C320.154 226.271 313.449 227.071 306.277 224.615H306.273C305.486 228.037 304.346 231.368 302.871 234.554H290.718C290.675 234.419 290.636 234.279 290.596 234.144C291.721 234.215 292.851 234.147 293.959 233.943C293.057 232.836 292.156 231.72 291.254 230.613C291.234 230.592 291.215 230.57 291.198 230.548C290.74 229.981 290.278 229.419 289.821 228.852L289.821 228.851C289.796 227.114 289.996 225.381 290.413 223.695L290.414 223.695Z" fill="#F2F2F2"/>
<path d="M50.5625 234.281H70.1732C73.5273 222.979 70.1911 196.268 74.612 185.351C83.0938 164.418 93.9294 142.331 114.154 132.11C122.789 127.746 132.204 126.041 141.819 126.134C155.102 126.26 168.758 129.828 181.261 134.557C186.375 136.488 191.443 138.61 196.491 140.779C215.508 148.957 234.318 157.865 254.769 160.272C280.648 163.317 311.074 151.73 318.142 126.771C323.537 107.662 313.822 87.8235 303.633 70.7575C293.444 53.6916 282.055 35.4317 283.915 15.6729C283.922 15.6066 283.929 15.5336 283.942 15.4673C284.642 8.37033 288.876 3.26991 294.791 0H269.039C268.699 18.4323 279.354 34.7022 288.943 50.7665C299.132 67.8259 308.847 87.6709 303.453 106.78C296.385 131.732 237.857 102.483 211.979 99.4317C204.67 98.5761 216.279 101.62 209.311 99.4317C198.382 96.0026 197.171 127.454 186.535 122.838C179.914 119.959 173.286 117.1 166.571 114.56C163.791 113.505 160.95 112.517 158.076 111.602C158.069 111.602 158.069 111.602 158.063 111.595C138.765 105.48 117.661 103.099 99.8306 111.94C99.7106 112 99.5839 112.059 99.4639 112.119C79.2397 122.333 68.4041 144.42 59.9223 165.353C52.9142 182.658 54.0165 216.028 50.5625 234.281Z" fill="#F2F2F2"/>
<path d="M159.668 233.702C209.412 233.702 249.738 193.345 249.738 143.562C249.738 93.7783 209.412 53.4209 159.668 53.4209C109.923 53.4209 69.5977 93.7783 69.5977 143.562C69.5977 193.345 109.923 233.702 159.668 233.702Z" fill="white"/>
<path d="M159.413 234.281C70.2978 236.329 68.3438 193.958 68.3438 143.561C68.3438 93.1643 109.313 52.1631 159.67 52.1631C210.028 52.1631 250.997 93.1643 250.997 143.561C250.997 193.958 209.771 234.281 159.413 234.281ZM159.67 54.678C110.698 54.678 71.6814 94.5576 70.8567 143.561C70.0896 189.14 118.472 246.016 159.67 232.445C181.764 208.093 244.229 181.865 248.484 143.561C253.896 94.8508 208.643 54.678 159.67 54.678V54.678Z" fill="#3F3D56"/>
<path d="M147.382 190.476C145.827 190.476 144.293 190.113 142.902 189.417C141.511 188.721 140.301 187.71 139.368 186.464L114.795 153.675C114.005 152.621 113.43 151.423 113.103 150.147C112.776 148.871 112.704 147.543 112.889 146.239C113.075 144.935 113.516 143.681 114.187 142.547C114.857 141.414 115.744 140.424 116.797 139.634C117.85 138.843 119.048 138.269 120.323 137.942C121.598 137.615 122.925 137.543 124.227 137.73C125.53 137.916 126.784 138.358 127.916 139.03C129.048 139.701 130.037 140.589 130.826 141.643L146.902 163.093L188.192 101.111C189.666 98.9 191.958 97.3653 194.563 96.8446C197.168 96.3239 199.873 96.8598 202.083 98.3345C204.293 99.8091 205.828 102.102 206.35 104.709C206.871 107.315 206.337 110.023 204.865 112.235L155.72 186.011C154.831 187.345 153.635 188.446 152.233 189.223C150.831 189.999 149.263 190.428 147.661 190.473C147.568 190.474 147.475 190.476 147.382 190.476Z" fill="#F2F2F2"/>
<path d="M217.185 227.986H211.911L209.402 207.627L217.186 207.628L217.185 227.986Z" fill="#FFB6B6"/>
<path d="M217.371 233.492L201.152 233.492V233.286C201.152 231.611 201.818 230.004 203.001 228.819C204.185 227.635 205.791 226.969 207.465 226.969H207.465L210.428 224.72L215.955 226.969L217.371 226.969L217.371 233.492Z" fill="#2F2E41"/>
<path d="M194.256 202.754L189.384 204.776L179.273 186.932L186.464 183.948L194.256 202.754Z" fill="#FFB6B6"/>
<path d="M196.537 207.77L181.556 213.987L181.477 213.797C180.836 212.249 180.836 210.51 181.476 208.962C182.116 207.414 183.344 206.183 184.89 205.541L184.891 205.541L186.766 202.328L192.733 202.287L194.041 201.744L196.537 207.77Z" fill="#2F2E41"/>
<path d="M223.215 112.174L185.787 116.087L180.78 132.963L163.441 160.849C163.441 160.849 175.54 181.229 174.404 181.007C173.268 180.785 175.539 186.34 177.129 186.017C178.72 185.695 180.373 189.317 179.274 189.961C178.174 190.605 182.586 196.05 182.586 196.05L189.328 189.994C190.762 179.168 189.029 169.534 182.856 161.569L202.172 140.699L205.835 139.178L208.742 216.62L219.496 216.797C222.464 201.52 223.954 187.771 221.635 177.963C221.635 177.963 221.968 148.497 223.24 148.819C224.512 149.142 223.433 145.303 223.433 145.303C223.433 145.303 222.32 142.034 223.688 140.677C225.057 139.321 224.202 131.345 224.202 131.345C226.463 123.796 225.783 117.563 223.215 112.174Z" fill="#2F2E41"/>
<path d="M194.437 49.8971L204.785 47.2137L209.615 40.5469L221.085 41.9581L223.527 51.0517L231.693 55.7955C231.693 55.7955 227.179 103.572 228.253 106.195C229.327 108.819 233.176 108.602 229.889 111.984C226.601 115.365 226.165 114.003 226.928 117.685C227.691 121.367 233.252 125.263 226.928 125.224C220.604 125.186 182.444 124.64 183.535 120.276C184.625 115.911 184.608 117.019 186.252 114.283C187.896 111.546 189.002 113.076 188.449 109.038C187.896 105 188.441 102.272 188.441 100.089C188.441 97.9072 190.267 78.0765 190.267 78.0765L194.437 49.8971Z" fill="#E6E6E6"/>
<path d="M215.323 39.3141C222.037 39.3141 227.479 33.8677 227.479 27.1493C227.479 20.4308 222.037 14.9844 215.323 14.9844C208.61 14.9844 203.168 20.4308 203.168 27.1493C203.168 33.8677 208.61 39.3141 215.323 39.3141Z" fill="#FFB6B6"/>
<path d="M202.586 19.7873C203.653 20.6505 203.409 24.8484 204.598 24.1642C205.787 23.4799 206.035 22.2546 207.404 22.2418C208.521 22.3035 209.574 22.7804 210.357 23.5791C210.503 23.7109 210.642 23.8491 210.776 23.9858C210.9 23.9426 211.021 23.9034 211.149 23.8713C212.11 23.6366 213.123 23.7795 213.982 24.2705C213.189 24.3271 212.434 24.6317 211.824 25.1411C212.086 25.4343 212.351 25.7291 212.63 26.0016C214.958 28.2847 219.731 25.8533 222.94 25.3047C220.267 28.2257 220.794 29.8563 221.459 33.7605L221.462 33.9738C221.599 33.0734 224.48 33.1183 224.005 34.313C223.408 35.4932 222.662 36.5914 221.784 37.5802C225.71 34.8583 228.88 31.1062 229.58 26.574C229.724 25.621 230.004 24.6487 229.733 23.7196C229.618 23.2499 229.35 22.8315 228.972 22.53C228.595 22.2284 228.127 22.0607 227.644 22.0529C228.082 20.6626 228.134 19.1797 227.797 17.7618C227.459 16.3439 226.744 15.0441 225.727 14.0005C224.711 12.9569 223.43 12.2085 222.023 11.8349C220.615 11.4613 219.132 11.4764 217.732 11.8788C216.456 12.3329 215.21 12.8709 214.004 13.4893C212.787 14.11 211.409 14.3436 210.055 14.1586C209.212 13.9843 208.358 13.5473 207.531 13.7948C206.573 14.0822 206.162 15.0945 205.778 16.0718C206.498 16.3352 207.124 16.8076 207.575 17.4287C206.83 17.1535 206.018 17.1205 205.253 17.3342C205.239 17.3367 205.225 17.3405 205.211 17.3455C204.344 18.9007 204.294 19.282 202.586 19.7873Z" fill="#2F2E41"/>
<path d="M206.593 43.9553C200.367 43.4536 194.682 48.2188 192.09 53.9062C189.499 59.5936 189.329 66.0455 189.203 72.2952L188.812 91.7221C188.754 94.5968 188.696 97.4721 188.553 100.344C188.479 103.138 188.128 105.918 187.505 108.643C186.235 113.643 183.443 118.099 180.691 122.461C187.736 124.592 194.9 126.305 202.147 127.589C205.765 115.875 209.426 103.825 208.536 91.5957C208.065 85.1247 206.326 78.8067 205.665 72.3524C204.729 63.2112 205.97 54.0027 207.208 44.8976" fill="#3F3D56"/>
<path d="M221.704 45.0479C227.871 46.0402 232.263 52.0201 233.431 58.1607C234.599 64.3014 233.233 70.6091 231.872 76.7099C230.462 83.0313 229.052 89.3527 227.642 95.6741C227.017 98.4803 226.391 101.287 225.848 104.111C225.321 106.854 227.528 110.372 227.553 113.165C227.6 118.324 226.599 122.572 228.237 127.464C220.888 127.86 213.522 127.821 206.178 127.346C205.443 115.107 204.747 102.531 208.513 90.8638C210.505 84.6897 213.694 78.9658 215.868 72.8532C218.946 64.196 219.926 54.956 220.883 45.817" fill="#3F3D56"/>
<path d="M225.816 133.24C225.358 132.441 225.23 131.495 225.458 130.603C225.687 129.71 226.254 128.943 227.039 128.463C227.2 128.368 227.369 128.286 227.544 128.219L226.757 101.423L235.276 99.2529L232.027 130.471C232.25 131.218 232.219 132.016 231.94 132.743C231.661 133.47 231.149 134.084 230.485 134.489C230.105 134.716 229.684 134.866 229.245 134.93C228.807 134.994 228.361 134.971 227.932 134.863C227.503 134.754 227.099 134.562 226.744 134.297C226.389 134.032 226.089 133.7 225.863 133.32C225.847 133.293 225.831 133.266 225.816 133.24Z" fill="#FFB6B6"/>
<path d="M225.197 55.7526C225.197 55.7526 231.143 50.7202 236.146 60.7823C241.15 70.8445 238.354 93.8317 237.649 95.0585C236.945 96.2853 236.515 94.5763 236.901 97.8465C237.215 100.506 235.349 100.174 236.019 100.741C237.783 102.238 232.842 102.408 235.38 103.727C237.917 105.045 226.56 105.292 226.56 105.292C226.56 105.292 225.187 104.311 226.141 100.608C226.676 98.5289 228.018 97.7682 226.587 96.806C225.156 95.8437 228.065 92.869 228.067 92.2163C228.069 91.5636 223.531 77.2877 223.531 77.2877L225.197 55.7526Z" fill="#3F3D56"/>
<path d="M175.992 179.71C174.436 179.71 172.902 179.347 171.511 178.651C170.12 177.955 168.91 176.944 167.977 175.698L143.405 142.909C142.615 141.855 142.04 140.656 141.713 139.381C141.386 138.105 141.313 136.777 141.499 135.473C141.685 134.169 142.125 132.915 142.796 131.781C143.466 130.648 144.353 129.658 145.406 128.868C146.459 128.077 147.657 127.502 148.932 127.176C150.207 126.849 151.534 126.777 152.837 126.964C154.14 127.15 155.393 127.592 156.525 128.263C157.657 128.935 158.646 129.823 159.435 130.877L175.512 152.327L216.801 90.345C217.531 89.2493 218.469 88.3083 219.563 87.5756C220.656 86.8429 221.883 86.3328 223.173 86.0746C224.463 85.8164 225.791 85.815 227.082 86.0705C228.373 86.326 229.601 86.8335 230.695 87.5639C231.79 88.2943 232.73 89.2334 233.463 90.3275C234.195 91.4216 234.704 92.6493 234.962 93.9405C235.22 95.2317 235.222 96.5612 234.967 97.8529C234.711 99.1446 234.204 100.373 233.474 101.469L184.329 175.244C183.44 176.579 182.244 177.68 180.842 178.456C179.44 179.233 177.872 179.661 176.271 179.706C176.178 179.708 176.085 179.71 175.992 179.71Z" fill="#FFD600"/>
<path d="M194.721 128.585C195.222 127.813 195.403 126.875 195.224 125.972C195.045 125.068 194.521 124.27 193.763 123.748C193.608 123.644 193.444 123.553 193.273 123.476L195.538 96.7647L187.152 94.127L188.672 125.477C188.409 126.21 188.395 127.01 188.634 127.751C188.872 128.492 189.349 129.133 189.99 129.574C190.357 129.822 190.769 129.995 191.203 130.083C191.637 130.171 192.084 130.173 192.519 130.088C192.953 130.004 193.367 129.834 193.736 129.589C194.105 129.345 194.423 129.03 194.67 128.662C194.687 128.637 194.704 128.611 194.721 128.585Z" fill="#FFB6B6"/>
<path d="M199.628 51.3055C199.628 51.3055 193.969 45.9519 188.418 55.722C182.866 65.492 184.389 88.5987 185.024 89.8626C185.66 91.1266 186.183 89.4439 185.617 92.6878C185.157 95.326 187.038 95.097 186.339 95.6267C184.494 97.0234 189.418 97.4668 186.812 98.6432C184.205 99.8195 195.531 100.694 195.531 100.694C195.531 100.694 196.957 99.7899 196.209 96.0405C195.789 93.9346 194.491 93.1009 195.973 92.2193C197.455 91.3377 194.715 88.2066 194.749 87.5547C194.783 86.9029 200.102 72.8999 200.102 72.8999L199.628 51.3055Z" fill="#3F3D56"/>
</svg>
