<svg width="34" height="24" viewBox="0 0 34 24" fill="none" xmlns="http://www.w3.org/2000/svg">
<rect width="34" height="24" rx="2" fill="white"/>
<mask id="mask0_1483_26282" style="mask-type:luminance" maskUnits="userSpaceOnUse" x="0" y="0" width="34" height="24">
<rect width="34" height="24" rx="2" fill="white"/>
</mask>
<g mask="url(#mask0_1483_26282)">
<rect width="34" height="24" fill="#043CAE"/>
<path fill-rule="evenodd" clip-rule="evenodd" d="M15.857 5.13091L17.0018 4.79953L18.1466 5.13091L17.8113 3.99953L18.1466 2.86816L17.0018 3.19953L15.857 2.86816L16.1923 3.99953L15.857 5.13091ZM15.857 21.1309L17.0018 20.7995L18.1466 21.1309L17.8113 19.9995L18.1466 18.8682L17.0018 19.1995L15.857 18.8682L16.1923 19.9995L15.857 21.1309ZM25.097 12.7995L23.9522 13.1309L24.2875 11.9995L23.9522 10.8682L25.097 11.1995L26.2419 10.8682L25.9066 11.9995L26.2419 13.1309L25.097 12.7995ZM7.76172 13.1309L8.90656 12.7995L10.0514 13.1309L9.71608 11.9995L10.0514 10.8682L8.90656 11.1995L7.76172 10.8682L8.09703 11.9995L7.76172 13.1309ZM24.0125 8.79953L22.8676 9.13091L23.203 7.99954L22.8676 6.86816L24.0125 7.19954L25.1573 6.86816L24.822 7.99954L25.1573 9.13091L24.0125 8.79953ZM8.84628 17.1309L9.99112 16.7995L11.136 17.1309L10.8006 15.9995L11.136 14.8682L9.99112 15.1995L8.84628 14.8682L9.18159 15.9995L8.84628 17.1309ZM21.0494 5.87133L19.9046 6.2027L20.2399 5.07133L19.9046 3.93996L21.0494 4.27133L22.1943 3.93996L21.8589 5.07133L22.1943 6.2027L21.0494 5.87133ZM11.8093 20.0591L12.9542 19.7277L14.099 20.0591L13.7637 18.9277L14.099 17.7964L12.9542 18.1277L11.8093 17.7964L12.1447 18.9277L11.8093 20.0591ZM24.0125 16.7995L22.8676 17.1309L23.203 15.9995L22.8676 14.8682L24.0125 15.1995L25.1573 14.8682L24.822 15.9995L25.1573 17.1309L24.0125 16.7995ZM8.84628 9.13091L9.99112 8.79953L11.136 9.13091L10.8006 7.99954L11.136 6.86816L9.99112 7.19954L8.84628 6.86816L9.18159 7.99954L8.84628 9.13091ZM21.0494 19.7277L19.9046 20.0591L20.2399 18.9277L19.9046 17.7964L21.0494 18.1277L22.1943 17.7964L21.8589 18.9277L22.1943 20.0591L21.0494 19.7277ZM11.8093 6.2027L12.9542 5.87133L14.099 6.2027L13.7637 5.07133L14.099 3.93996L12.9542 4.27133L11.8093 3.93996L12.1447 5.07133L11.8093 6.2027Z" fill="#FFD429"/>
</g>
</svg>
