<svg width="34" height="24" viewBox="0 0 34 24" fill="none" xmlns="http://www.w3.org/2000/svg">
<rect width="34" height="24" rx="2" fill="white"/>
<mask id="mask0_1483_26293" style="mask-type:luminance" maskUnits="userSpaceOnUse" x="0" y="0" width="34" height="24">
<rect width="34" height="24" rx="2" fill="white"/>
</mask>
<g mask="url(#mask0_1483_26293)">
<path fill-rule="evenodd" clip-rule="evenodd" d="M34 0H0V1.6H34V0ZM34 3.2H0V4.8H34V3.2ZM0 6.4H34V8H0V6.4ZM34 9.6H0V11.2H34V9.6ZM0 12.8H34V14.4H0V12.8ZM34 16H0V17.6H34V16ZM0 19.2H34V20.8H0V19.2ZM34 22.4H0V24H34V22.4Z" fill="#F2453D"/>
<rect width="14.5714" height="11.2" fill="#46467F"/>
<g filter="url(#filter0_d_1483_26293)">
<path fill-rule="evenodd" clip-rule="evenodd" d="M3.23624 2.39961C3.23624 2.84144 2.8738 3.19961 2.42671 3.19961C1.97962 3.19961 1.61719 2.84144 1.61719 2.39961C1.61719 1.95778 1.97962 1.59961 2.42671 1.59961C2.8738 1.59961 3.23624 1.95778 3.23624 2.39961ZM6.47433 2.39961C6.47433 2.84144 6.11189 3.19961 5.66481 3.19961C5.21772 3.19961 4.85528 2.84144 4.85528 2.39961C4.85528 1.95778 5.21772 1.59961 5.66481 1.59961C6.11189 1.59961 6.47433 1.95778 6.47433 2.39961ZM8.9029 3.19961C9.34999 3.19961 9.71243 2.84144 9.71243 2.39961C9.71243 1.95778 9.34999 1.59961 8.9029 1.59961C8.45581 1.59961 8.09338 1.95778 8.09338 2.39961C8.09338 2.84144 8.45581 3.19961 8.9029 3.19961ZM12.9505 2.39961C12.9505 2.84144 12.5881 3.19961 12.141 3.19961C11.6939 3.19961 11.3315 2.84144 11.3315 2.39961C11.3315 1.95778 11.6939 1.59961 12.141 1.59961C12.5881 1.59961 12.9505 1.95778 12.9505 2.39961ZM4.04576 4.79961C4.49285 4.79961 4.85528 4.44144 4.85528 3.99961C4.85528 3.55778 4.49285 3.19961 4.04576 3.19961C3.59867 3.19961 3.23624 3.55778 3.23624 3.99961C3.23624 4.44144 3.59867 4.79961 4.04576 4.79961ZM8.09338 3.99961C8.09338 4.44144 7.73094 4.79961 7.28385 4.79961C6.83677 4.79961 6.47433 4.44144 6.47433 3.99961C6.47433 3.55778 6.83677 3.19961 7.28385 3.19961C7.73094 3.19961 8.09338 3.55778 8.09338 3.99961ZM10.5219 4.79961C10.969 4.79961 11.3315 4.44144 11.3315 3.99961C11.3315 3.55778 10.969 3.19961 10.5219 3.19961C10.0749 3.19961 9.71243 3.55778 9.71243 3.99961C9.71243 4.44144 10.0749 4.79961 10.5219 4.79961ZM12.9505 5.59961C12.9505 6.04144 12.5881 6.39961 12.141 6.39961C11.6939 6.39961 11.3315 6.04144 11.3315 5.59961C11.3315 5.15778 11.6939 4.79961 12.141 4.79961C12.5881 4.79961 12.9505 5.15778 12.9505 5.59961ZM8.9029 6.39961C9.34999 6.39961 9.71243 6.04144 9.71243 5.59961C9.71243 5.15778 9.34999 4.79961 8.9029 4.79961C8.45581 4.79961 8.09338 5.15778 8.09338 5.59961C8.09338 6.04144 8.45581 6.39961 8.9029 6.39961ZM6.47433 5.59961C6.47433 6.04144 6.11189 6.39961 5.66481 6.39961C5.21772 6.39961 4.85528 6.04144 4.85528 5.59961C4.85528 5.15778 5.21772 4.79961 5.66481 4.79961C6.11189 4.79961 6.47433 5.15778 6.47433 5.59961ZM2.42671 6.39961C2.8738 6.39961 3.23624 6.04144 3.23624 5.59961C3.23624 5.15778 2.8738 4.79961 2.42671 4.79961C1.97962 4.79961 1.61719 5.15778 1.61719 5.59961C1.61719 6.04144 1.97962 6.39961 2.42671 6.39961ZM4.85528 7.19961C4.85528 7.64144 4.49285 7.99961 4.04576 7.99961C3.59867 7.99961 3.23624 7.64144 3.23624 7.19961C3.23624 6.75778 3.59867 6.39961 4.04576 6.39961C4.49285 6.39961 4.85528 6.75778 4.85528 7.19961ZM7.28385 7.99961C7.73094 7.99961 8.09338 7.64144 8.09338 7.19961C8.09338 6.75778 7.73094 6.39961 7.28385 6.39961C6.83677 6.39961 6.47433 6.75778 6.47433 7.19961C6.47433 7.64144 6.83677 7.99961 7.28385 7.99961ZM11.3315 7.19961C11.3315 7.64144 10.969 7.99961 10.5219 7.99961C10.0749 7.99961 9.71243 7.64144 9.71243 7.19961C9.71243 6.75778 10.0749 6.39961 10.5219 6.39961C10.969 6.39961 11.3315 6.75778 11.3315 7.19961ZM12.141 9.59961C12.5881 9.59961 12.9505 9.24144 12.9505 8.79961C12.9505 8.35778 12.5881 7.99961 12.141 7.99961C11.6939 7.99961 11.3315 8.35778 11.3315 8.79961C11.3315 9.24144 11.6939 9.59961 12.141 9.59961ZM9.71243 8.79961C9.71243 9.24144 9.34999 9.59961 8.9029 9.59961C8.45581 9.59961 8.09338 9.24144 8.09338 8.79961C8.09338 8.35778 8.45581 7.99961 8.9029 7.99961C9.34999 7.99961 9.71243 8.35778 9.71243 8.79961ZM5.66481 9.59961C6.11189 9.59961 6.47433 9.24144 6.47433 8.79961C6.47433 8.35778 6.11189 7.99961 5.66481 7.99961C5.21772 7.99961 4.85528 8.35778 4.85528 8.79961C4.85528 9.24144 5.21772 9.59961 5.66481 9.59961ZM3.23624 8.79961C3.23624 9.24144 2.8738 9.59961 2.42671 9.59961C1.97962 9.59961 1.61719 9.24144 1.61719 8.79961C1.61719 8.35778 1.97962 7.99961 2.42671 7.99961C2.8738 7.99961 3.23624 8.35778 3.23624 8.79961Z" fill="url(#paint0_linear_1483_26293)"/>
</g>
</g>
<defs>
<filter id="filter0_d_1483_26293" x="1.61719" y="1.59961" width="11.332" height="9" filterUnits="userSpaceOnUse" color-interpolation-filters="sRGB">
<feFlood flood-opacity="0" result="BackgroundImageFix"/>
<feColorMatrix in="SourceAlpha" type="matrix" values="0 0 0 0 0 0 0 0 0 0 0 0 0 0 0 0 0 0 127 0" result="hardAlpha"/>
<feOffset dy="1"/>
<feColorMatrix type="matrix" values="0 0 0 0 0 0 0 0 0 0 0 0 0 0 0 0 0 0 0.06 0"/>
<feBlend mode="normal" in2="BackgroundImageFix" result="effect1_dropShadow_1483_26293"/>
<feBlend mode="normal" in="SourceGraphic" in2="effect1_dropShadow_1483_26293" result="shape"/>
</filter>
<linearGradient id="paint0_linear_1483_26293" x1="1.61719" y1="1.59961" x2="1.61719" y2="9.59961" gradientUnits="userSpaceOnUse">
<stop stop-color="white"/>
<stop offset="1" stop-color="#F0F0F0"/>
</linearGradient>
</defs>
</svg>
