<svg width="183" height="256" viewBox="0 0 183 256" fill="none" xmlns="http://www.w3.org/2000/svg">
<g clip-path="url(#clip0_2281_76169)">
<path d="M159.365 112.386C158.466 112.386 157.576 113.302 156.833 113.778C155.159 114.849 153.441 115.827 151.672 116.729C147.283 118.966 142.236 120.878 137.324 121.448C136.039 121.597 134.734 121.927 133.431 121.864C132.779 121.832 132.262 121.412 131.607 121.361C128.098 121.087 124.568 121.16 121.056 120.892C116.106 120.514 110.93 119.762 106.077 118.741C101.001 117.673 95.9976 116.312 90.9159 115.268C85.3394 114.122 79.5217 113.595 73.8351 113.504C68.5687 113.42 63.2926 113.919 58.0627 114.534C55.0414 114.89 51.9697 115.115 48.9822 115.703C44.2626 116.63 39.2459 119.176 34.3734 118.719C29.6041 118.271 29.1012 111.776 32.0631 108.973C30.7716 109.195 29.8283 109.069 28.588 108.682C30.6177 107.248 33.1138 107.928 35.0637 106.337C33.4982 106.072 31.7389 106.238 30.21 106.656C29.19 106.935 28.2602 107.49 27.1887 107.452C27.536 104.546 28.864 101.671 29.9882 98.9989C32.069 94.059 34.3901 89.2505 36.7854 84.4519C38.2439 81.527 39.4858 77.7721 41.9505 75.5469C44.8195 72.9587 48.7206 71.1267 52.033 69.1686C53.2959 68.4217 55.3658 67.737 56.1989 66.5C57.1465 66.3552 57.9093 65.7594 58.7492 65.3116C60.2177 64.5286 61.6676 63.7455 63.0999 62.8991C66.7633 60.7338 70.7021 58.7522 74.5974 57.0464C76.4568 56.2321 79.0562 54.6255 81.1588 55.0621C83.9909 55.6502 86.8997 57.7694 89.3729 59.2145C93.4481 61.5954 97.5488 63.9349 101.613 66.3384C116.914 75.3875 131.9 84.9425 146.945 94.3987C151.712 97.3945 156.298 100.37 159.693 104.979C160.413 105.956 161.053 106.989 161.722 108.001C162.017 108.448 162.511 109.009 162.45 109.586C162.336 110.665 160.133 111.717 159.365 112.386Z" fill="#FFB7B7"/>
<path d="M56.3232 66.7363C54.986 67.7662 53.4266 68.4918 51.9768 69.3486C49.7303 70.6771 47.4871 72.0203 45.2754 73.4087C43.7068 74.3925 42.0373 75.3254 40.8588 76.7927C40.2467 77.5552 39.9086 78.4809 39.4246 79.3217C37.7621 82.2083 36.4974 85.3056 34.899 88.2278C34.0137 89.8414 33.631 91.3931 32.045 92.4963C29.0468 94.5838 24.8727 96.9549 21.1055 95.8284C20.1596 95.5455 19.0136 95.2629 18.3814 94.4377C17.529 93.3274 18.3534 91.8014 19.0508 90.8225C20.877 88.256 23.6274 86.1755 25.915 84.0352C29.5146 80.6668 33.1209 77.3085 36.6846 73.9027C38.1888 72.4644 39.7104 70.3539 41.528 69.3275C42.7518 68.6361 44.4184 68.4499 45.7789 68.1524C47.7902 67.7121 49.8259 67.4094 51.8581 67.0798C53.2957 66.8464 54.8717 66.5441 56.3232 66.7363Z" fill="#E09A90"/>
<path d="M80.3259 89.5055C79.5125 90.6734 78.2553 91.5958 77.1525 92.4836C76.7532 92.805 76.2878 93.2823 75.7406 93.2945C74.8165 93.315 73.642 92.1679 72.9157 91.6706C70.1373 89.7678 66.8476 86.6541 65.7927 83.3828C68.5235 82.8769 71.4911 83.0602 74.2663 82.8902C75.0716 82.8409 76.7109 82.4734 77.3649 83.0516C77.9202 83.5425 78.0148 84.597 78.2115 85.2739C78.6618 86.8236 79.0089 88.4565 80.3259 89.5055Z" fill="#E09A90"/>
<path d="M159.241 112.148C158.577 113.074 157.568 113.645 156.666 114.322C155.24 115.392 153.824 116.476 152.405 117.556C147.225 121.499 141.933 125.313 136.837 129.366C135.843 128.068 135.179 126.487 134.422 125.04C133.884 124.013 133.201 122.993 133.045 121.832C139.404 121.411 145.541 119.634 151.256 116.792C153.998 115.429 156.479 113.396 159.241 112.148Z" fill="#E09A90"/>
<path fill-rule="evenodd" clip-rule="evenodd" d="M61.6142 83.3728C58.0347 83.2068 53.391 82.9916 53.2722 83.9462C53.0809 85.4843 41.3922 103.621 39.387 104.41C38.9652 104.576 39.0965 104.532 39.6306 104.356C41.6361 103.693 49.3222 101.152 54.7479 100.763C61.6188 100.269 61.8963 100.224 61.8963 100.224C61.8963 100.224 63.6237 99.8221 65.8995 99.2013C69.41 97.8848 73.3926 95.3875 75.8809 93.6344C72.6132 92.1422 69.26 87.7166 67.3325 85.1726C66.4055 83.9492 65.8082 83.1609 65.7088 83.3433C65.5922 83.5572 63.802 83.4742 61.6142 83.3728Z" fill="white"/>
<path d="M194.754 255.582C192.536 253.201 190.827 250.225 188.927 247.586C184.952 242.068 181.039 236.506 177.065 230.987C164.215 213.145 151.58 195.148 138.73 177.305C134.204 171.021 129.627 164.755 125.212 158.393C124.174 156.896 123.108 155.42 122.044 153.942C121.691 153.452 120.931 152.698 121.115 152.031C121.405 150.978 123.532 149.939 124.355 149.28C127.438 146.81 130.653 144.498 133.797 142.107C142.077 135.811 150.403 129.578 158.683 123.283C162.311 120.524 166.205 117.989 169.644 114.996C171.404 116.345 172.749 118.424 174.193 120.102C177.165 123.555 180.099 127.046 183.022 130.542C191.114 140.222 199.407 149.733 207.5 159.413C210.468 162.963 213.469 166.492 216.479 170.007L218.942 172.908C219.308 173.337 219.869 173.818 219.939 174.411C220.018 175.084 219.587 175.923 219.39 176.556L217.924 181.257L212.794 197.714L194.754 255.582Z" fill="#FFD600"/>
<path d="M162.39 120.471C161.134 121.784 159.49 122.781 158.044 123.877C155.197 126.035 152.35 128.192 149.494 130.336C141.052 136.674 132.656 143.073 124.238 149.442C122.156 147.791 120.765 144.852 119.205 142.712C120.501 141.715 122.081 141.049 123.526 140.29C126.179 138.895 128.83 137.52 131.529 136.222C137.332 133.43 143.063 130.323 148.762 127.33L157.764 122.599C159.198 121.846 160.772 120.69 162.39 120.471Z" fill="#F0F0F0"/>
<path d="M134.805 153.674C137.688 155.759 134.415 160.422 131.593 158.26C128.77 156.097 131.926 151.592 134.805 153.674Z" fill="#3F3D56"/>
<path d="M139.918 161.42C142.852 163.555 139.544 167.913 136.563 165.828C133.752 163.862 137.104 159.372 139.918 161.42Z" fill="#3F3D56"/>
<path d="M34.8269 106.461C33.5871 107.922 31.648 107.514 29.9575 108.101C27.514 108.95 25.3731 110.759 24.1767 113.059C23.0926 115.138 22.9358 117.942 23.508 120.192C23.8689 121.614 25.364 123.084 24.462 124.459C22.8076 123.24 22.3208 121.065 22.0126 119.13C20.8996 112.152 27.4451 104.506 34.8269 106.461Z" fill="#BDBDBD"/>
<path d="M44.4756 116.813C44.9898 119.912 43.3742 123.514 41.247 125.727C40.227 126.788 38.4776 128.572 37.3697 126.898C38.2388 126.222 39.2129 125.708 40.0226 124.948C42.3011 122.811 43.3761 120.121 43.2233 117.018L44.4756 116.813Z" fill="#BDBDBD"/>
<path d="M21.9446 117.917C21.914 118.752 22.0289 119.546 22.1708 120.369C20.2282 120.226 19.2742 122.334 19.794 123.989C20.4159 125.972 22.3282 126.682 24.1712 125.968C24.7774 125.733 25.3029 125.362 25.7023 124.844C26.2359 124.149 26.459 123.261 26.1857 122.416C25.5638 120.503 23.4011 120.26 23.2083 118.311C26.7437 119.425 30.3845 121.536 30.9957 125.504C31.3252 127.649 30.4126 129.179 29.4091 130.961C28.6944 132.231 28.1273 133.529 27.1363 134.618C25.382 136.54 22.5277 137.525 19.9792 136.93C18.5813 136.604 17.381 136.006 16.099 135.397C14.0389 134.418 11.7557 133.259 10.9351 130.948C10.0585 128.479 10.897 126.336 12.0737 124.163C12.7128 122.983 13.2896 121.673 14.1675 120.649C16.0658 118.436 19.1023 117.471 21.9446 117.917Z" fill="#3F3D56"/>
<path d="M23.6599 120.041C26.0643 120.799 27.4437 123.529 25.229 125.473C22.4804 127.885 17.5433 124.15 20.2271 121.152C20.5493 120.793 21.0954 120.254 21.6186 120.266C22.3149 120.282 22.7412 121.762 22.6924 122.319C22.6353 122.959 21.9081 123.22 21.6841 123.786C21.5541 124.108 21.584 124.489 21.8592 124.724C22.7275 125.466 25.3121 124.591 24.8986 123.28C24.5262 122.098 23.684 121.387 23.6599 120.041Z" fill="#2F2E41"/>
<path d="M21.103 139.681C21.6607 139.278 22.3865 139.332 23.0497 139.156C24.0175 138.898 24.9581 138.518 25.7947 137.963C28.3281 136.286 29.3446 133.318 30.8564 130.819C31.3926 129.932 32.3576 129.454 32.7076 128.421C33.2043 126.955 32.2084 125.072 30.69 124.814L30.4189 123.142C32.8302 123.783 35.1529 124.021 36.8214 126.116C37.5817 127.071 38.3162 128.407 38.4895 129.63C38.6579 130.818 38.2523 132.096 37.9851 133.242C37.271 136.304 36.3227 139.269 33.3619 140.909C31.0406 142.194 28.7713 141.695 26.3275 141.35C25.2174 141.194 24.2287 141.112 23.159 140.711C22.4335 140.44 21.8331 139.951 21.103 139.681Z" fill="#3F3D56"/>
<path d="M21.103 139.68C21.9059 139.952 22.552 140.472 23.3396 140.766C24.3455 141.143 25.2976 141.151 26.3348 141.326C27.3645 141.499 28.4649 141.851 29.5154 141.817C30.1498 141.797 30.8235 141.587 31.4445 141.456C36.6459 140.361 37.9726 134.752 38.51 130.23C39.1708 131.672 38.6779 133.1 38.4046 134.562C37.5704 139.023 35.8114 142.803 30.931 143.739C30.9876 143.183 31.0131 142.529 30.3872 142.281C29.7137 142.014 28.7743 142.244 28.0572 142.155C26.1502 141.918 24.0873 141.577 22.3782 140.673L22.0399 141.758C21.1047 141.066 20.5493 140.186 19.8393 139.286C20.1297 138.786 20.5131 138.128 20.0869 137.583C19.5272 136.868 17.969 136.764 17.1585 136.447C15.4933 135.796 13.8885 134.831 12.4368 133.801L11.9181 134.83C10.445 132.908 9.79223 130.389 10.4725 128.029C10.8657 129.5 10.7631 130.922 11.7447 132.215C12.891 133.723 14.4199 134.607 16.1065 135.374C18.0932 136.277 19.8667 137.209 22.1345 137.007C25.8369 136.676 27.7427 133.887 29.3713 130.95C29.9395 129.928 30.6622 129.026 30.897 127.854C31.1079 126.796 30.9012 125.75 30.927 124.689C32.2339 125.249 33.1459 126.594 32.8259 128.059C32.5337 129.397 31.4543 129.917 30.8001 130.999C29.3005 133.477 28.2828 136.5 25.7412 138.133C24.2594 139.087 22.6135 139.004 21.103 139.68Z" fill="#2F2E41"/>
<path d="M16.6119 136.295C15.8199 138.257 14.3833 139.936 13.6684 141.924C12.6913 140.725 11.1275 139.87 9.78657 139.126C10.3773 137.282 11.5137 135.651 12.561 134.039L16.6119 136.295Z" fill="#BDBDBD"/>
<path d="M20.403 137.479L19.9634 139.524C18.7189 140.345 18.0534 142.385 17.3119 143.658C15.6211 146.559 14.0238 149.516 12.3513 152.428C11.6693 153.618 11.1163 155.278 10.1129 156.234C9.59651 156.728 8.81174 156.868 8.15283 157.076C6.91657 157.464 5.59214 158.109 4.28454 158.046C3.75593 156.012 2.27762 153.771 2.90675 151.664C3.72845 153.031 4.3305 154.963 4.55501 156.543C5.89447 156.263 7.18994 155.793 8.48897 155.362C9.18286 155.132 10.0123 154.962 10.5573 154.44C11.6124 153.426 12.22 151.502 12.9592 150.237C14.7484 147.172 16.398 144.01 18.2099 140.961C18.8772 139.838 19.3582 138.301 20.403 137.479Z" fill="#9E9E9E"/>
<path d="M18.1804 136.982C17.5594 138.707 16.4491 140.324 15.5382 141.912C14.1263 144.375 12.7333 146.855 11.3571 149.338C10.0878 151.63 9.21884 153.725 6.55183 154.585C7.32449 152.278 8.9253 150.066 10.1514 147.969C12.3782 144.169 14.7817 140.303 16.612 136.294C17.1645 136.479 17.6651 136.709 18.1804 136.982Z" fill="#9E9E9E"/>
<path d="M19.9856 137.547C19.0794 139.806 17.4199 141.748 16.5796 144.024C16.5272 143.76 16.5315 143.702 16.5682 143.425C15.9656 143.192 15.5516 142.912 15.0112 143.336C14.9771 142.518 15.5775 141.749 15.9914 141.063C16.7956 139.735 17.6229 138.403 18.3608 137.04L19.9856 137.547Z" fill="#BDBDBD"/>
<path d="M30.6034 142.249C29.8911 144.934 29.2811 147.666 28.6645 150.375L27.0961 149.687C27.4168 147.889 27.8681 146.086 28.3681 144.329C28.5191 143.794 28.4839 142.833 28.9578 142.469C29.3823 142.144 30.1057 142.231 30.6034 142.249Z" fill="#BDBDBD"/>
<path d="M28.8096 142.283C28.2592 144.049 27.9479 145.842 27.5196 147.635C27.0673 149.537 26.4018 151.399 25.9994 153.312C25.7507 154.491 25.3565 155.629 25.1088 156.804C24.8572 157.999 24.6799 159.369 24.0608 160.446C23.6132 161.221 22.7895 161.83 22.1346 162.425C22.0186 161.208 22.8067 159.932 23.0292 158.735C23.7984 154.628 25.1905 150.665 26.0495 146.581C26.2454 145.654 26.5058 144.73 26.6694 143.798C26.7494 143.332 26.7794 142.626 27.2162 142.33C27.6258 142.052 28.3487 142.256 28.8096 142.283Z" fill="#9E9E9E"/>
<path d="M27.0722 142.139L25.2796 148.525C23.7693 148.019 22.4493 147.081 20.9354 146.574C21.3579 145.218 22.3088 143.28 21.8032 141.884C22.1314 141.574 22.3133 141.321 22.5025 140.911C23.9582 141.681 25.5079 141.724 27.0722 142.139Z" fill="#BDBDBD"/>
<path d="M30.2881 144.531L29.7243 146.34C29.6614 145.684 29.8636 145.035 30.2881 144.531Z" fill="#AEC1C5"/>
<path d="M9.95582 138.583C10.2183 139.629 11.6056 140.173 12.4432 140.771C12.7851 141.015 13.3499 141.256 13.4043 141.73C13.4787 142.374 12.7991 143.201 12.5067 143.745C11.0272 143.147 9.85938 141.676 8.27533 141.432C8.80919 140.514 9.23757 139.356 9.95582 138.583Z" fill="#E0E0E0"/>
<path d="M16.5681 143.425C16.282 144.279 15.8838 145.074 15.4178 145.844L14.0863 145.032C14.3509 144.208 14.7487 143.536 15.1802 142.793L16.5681 143.425Z" fill="#E0E0E0"/>
<path d="M12.5067 143.745C11.1434 146.002 9.86789 148.346 8.6066 150.664C7.90712 151.948 7.04665 153.208 6.55175 154.586C7.41432 154.132 8.51924 153.74 9.21049 153.035C9.95554 152.272 10.4157 150.935 10.9528 150.007C11.9881 148.217 13.3599 146.371 14.0751 144.433C14.4106 145.066 14.8657 145.404 15.418 145.844C14.2962 147.956 13.1138 150.026 11.9095 152.091C11.4318 152.912 11.0255 154.107 10.2849 154.723C9.78212 155.141 9.05605 155.29 8.44859 155.491C7.18543 155.909 5.88975 156.462 4.55516 156.543C4.02468 154.794 3.57409 152.77 2.65858 151.189C3.32408 150.096 2.74857 149.349 2.60154 148.194C3.15841 148.022 3.67575 147.926 4.02298 147.447C4.34558 147.588 4.58027 147.661 4.92564 147.729C4.79958 147.269 4.56216 146.029 4.05654 146.069C4.04405 144.863 5.48147 145.336 6.09753 144.656C6.51167 144.198 5.9764 143.215 5.90617 142.677L5.61289 142.983C5.66886 142.219 6.66792 142.229 7.28041 142.05C7.74059 141.915 8.2189 141.511 8.70055 141.504C9.19415 141.497 9.64655 141.907 10.0241 142.177C10.8279 142.75 11.6091 143.326 12.5067 143.745Z" fill="#BDBDBD"/>
<path d="M24.6706 151.111C23.2112 150.525 21.7754 149.717 20.3828 148.98L21.1157 146.629C22.1399 146.972 23.1111 147.472 24.0608 147.984C24.4306 148.183 25.0228 148.38 25.1837 148.811C25.4216 149.446 24.8614 150.499 24.6706 151.111Z" fill="#E0E0E0"/>
<path d="M28.6646 150.374L27.9317 152.725L26.3633 152.037L27.0961 149.686L28.6646 150.374Z" fill="#E0E0E0"/>
<path d="M25.0768 150.445C23.8498 154.38 23.1781 158.441 21.954 162.368C22.766 161.752 23.7788 161.001 24.3341 160.134C24.8553 159.32 24.8887 158.311 25.1057 157.399C25.5304 155.611 25.9555 153.828 26.3633 152.037C26.973 152.254 27.5262 152.507 28.1686 152.6C27.6099 154.392 27.0748 156.255 26.6886 158.091C26.4568 159.191 26.3333 160.598 25.6662 161.542C25.1817 162.226 24.3165 162.644 23.6289 163.089C23.0108 163.49 21.648 164.786 20.8631 164.539C20.3379 164.375 19.9953 163.637 19.7089 163.216C19.0286 162.214 18.3941 160.977 17.4856 160.18C18.0367 159.08 17.2559 158.331 16.5373 157.503C16.9747 157.021 18.1953 156.55 18.3016 155.891C18.4012 155.273 17.586 154.489 17.4843 153.83L18.8494 153.264L18.7252 153.027C19.8335 152.68 18.5287 151.452 17.9125 151.185C18.6899 150.331 19.8549 150.057 20.3829 148.98L24.6707 151.112C24.7964 150.817 24.8691 150.679 25.0768 150.445Z" fill="#BDBDBD"/>
<path d="M5.75977 144.418L5.52286 144.542L5.75977 144.418Z" fill="#BACDD1"/>
<path d="M4.34979 145.763C4.62416 146.491 4.81163 147.078 4.68869 147.853C3.88748 147.322 3.71616 146.525 4.34979 145.763Z" fill="#9E9E9E"/>
<path d="M18.3299 151.118C18.8667 151.791 19.3883 152.298 19.2668 153.196C18.4398 152.83 17.8107 152.001 18.3299 151.118Z" fill="#9E9E9E"/>
<path d="M2.6692 148.612C3.0851 149.509 3.31004 150.134 2.89537 151.064C2.36538 150.318 2.1194 149.417 2.6692 148.612Z" fill="#9E9E9E"/>
<path d="M17.6763 154.485C18.1709 155.166 18.645 155.628 18.2521 156.45C17.6029 155.959 17.1961 155.237 17.6763 154.485Z" fill="#9E9E9E"/>
<path d="M17.5983 159.819C16.841 159.262 16.6185 158.673 16.6614 157.741C17.4076 158.327 17.8169 158.857 17.5983 159.819Z" fill="#9E9E9E"/>
<path d="M30.9645 142.361C30.8899 143.884 30.3943 145.175 30.0452 146.638C29.3154 149.703 28.4317 152.773 27.7825 155.853C27.4153 157.597 27.026 159.305 26.5371 161.021C26.353 161.667 26.3735 162.465 25.9903 163.033C25.2618 164.113 23.5871 164.819 22.5168 165.519C22.1429 165.766 21.6509 166.187 21.1666 166.108C20.6164 166.017 20.2658 165.312 19.9755 164.902C19.116 163.688 17.752 162.281 17.9145 160.711C18.7212 161.421 19.2864 162.385 19.8894 163.272C20.138 163.638 20.4225 164.256 20.8456 164.45C21.3084 164.662 21.8966 164.084 22.2473 163.849C23.3616 163.102 25.6224 162.21 26.1155 160.889C26.6599 159.434 26.8321 157.777 27.2288 156.276C27.9536 153.538 28.7841 150.785 29.3667 148.013C29.5753 147.02 29.8804 146.054 30.0882 145.064C30.2826 144.141 30.3386 143.104 30.9645 142.361Z" fill="#9E9E9E"/>
<path d="M5.90612 142.678C6.14565 143.447 6.92003 144.75 5.64706 144.78C5.57036 144.053 5.4831 143.297 5.90612 142.678Z" fill="#9E9E9E"/>
</g>
<defs>
<clipPath id="clip0_2281_76169">
<rect width="183" height="256" fill="white" transform="matrix(-1 0 0 1 183 0)"/>
</clipPath>
</defs>
</svg>
