<svg width="183" height="256" viewBox="0 0 183 256" fill="none" xmlns="http://www.w3.org/2000/svg">
<g clip-path="url(#clip0_2281_76330)">
<path d="M37.8508 204.52C38.8901 206.76 41.2868 208.962 43.0872 210.627C43.6449 208.791 43.7681 206.758 44.1345 204.869C42.0162 204.701 39.9885 204.52 37.8508 204.52Z" fill="#510934"/>
<path d="M37.6765 204.869L37.5019 206.091L37.5001 206C37.3973 207.258 36.8566 208.72 36.4985 209.93C36.0708 211.373 35.1218 213.434 35.684 214.961C35.9715 215.743 36.7514 215.983 37.1762 216.613C37.5232 217.126 37.5794 217.779 37.9575 218.306C39.2086 220.049 40.827 221.653 42.3667 223.14C44.5082 225.208 46.7888 226.991 49.1809 228.733C50.1914 229.467 51.092 230.356 52.1288 231.073C56.1922 233.881 60.6414 236.294 65.2477 238.09C67.2829 238.884 69.3024 239.632 71.3637 240.36C72.8247 240.875 74.5001 241 74.5001 241L75.3783 241.341C76.2999 241.754 77.3664 241.859 78.3456 242.088C80.0334 242.482 81.6794 242.842 83.4074 243.13C89.2267 244.098 95.1508 244.374 101.036 243.943C103.484 243.763 105.929 243.226 108.367 242.911C108.03 240.365 107.153 237.835 107.146 235.233C103.03 235.233 98.8896 235.952 94.7528 235.552C80.7717 234.2 67.1362 228.735 55.6546 220.7C52.9946 218.838 50.509 216.774 47.9746 214.746C46.3502 213.446 43.5001 211 43.5001 211L43.0001 210.5L42.5001 210C42.5001 210 40.5348 208.26 39.6487 207.138C38.966 206.272 38.7429 205.37 37.6765 204.869Z" fill="#FFD600"/>
<path d="M35.2327 214.99C34.7305 218.718 33.7716 222.473 33.0135 226.159C31.7261 232.418 30.7067 238.733 29.4725 245.005C28.9451 247.686 28.3624 250.356 27.8234 253.033C27.6232 254.027 27.2865 254.985 27.2036 255.999H112.207C110.86 251.787 109.675 247.534 108.542 243.26C107.222 243.288 105.981 243.607 104.695 243.761C103.007 243.962 101.303 244.089 99.633 244.285C98.1022 244.464 96.4685 244.307 94.9272 244.307C92.5045 244.307 90.0085 244.393 87.6033 244.11C86.7253 244.007 85.8683 243.637 84.9781 243.51C83.6533 243.32 82.2954 243.309 80.9793 243.044C66.8219 240.184 53.0346 233.615 42.6088 223.475C39.976 220.915 37.7945 217.929 35.5818 214.99H35.2327Z" fill="#2F2E41"/>
<path d="M79.3926 216.91C79.6282 222.405 81.3213 227.86 82.0108 233.314C84.0582 233.476 86.1039 234.169 88.1199 234.568C90.9091 235.122 93.8398 235.373 96.6726 235.567C99.0744 235.731 101.616 235.633 104.004 235.378C104.896 235.282 105.714 235.061 106.622 235.059C106.154 234.115 105.145 233.394 104.353 232.717C102.934 231.502 101.483 230.356 99.989 229.236C96.0565 226.286 91.8587 223.643 87.5962 221.2C84.9379 219.674 82.2272 218.09 79.3926 216.91Z" fill="#510934"/>
<path d="M30.8691 100.166C31.3465 101.146 32.3535 101.719 33.1382 102.45C34.5721 103.785 35.8871 105.25 37.2762 106.63C40.9106 110.24 43.9539 114.437 47.5515 118.09C48.8541 119.413 50.1686 120.726 51.6383 121.865C52.0694 122.199 52.8619 122.965 53.4518 122.5C54.0697 122.012 53.0189 121.14 52.696 120.834C51.2787 119.488 49.8806 118.126 48.4982 116.744C44.4444 112.691 40.4969 108.472 36.2504 104.622C34.6425 103.165 32.8471 101.072 30.8691 100.166Z" fill="#BDBDBD"/>
<path d="M85.6766 137.336C83.507 137.739 81.8156 137.105 80.1417 135.711C79.5919 135.254 79.063 134.876 78.7785 134.194C78.3579 133.178 78.5621 132.103 78.6947 131.054C76.6421 131.479 75.3854 133.125 73.8075 134.404C71.4913 136.28 69.0406 137.76 66.4766 139.256C67.4209 140.489 68.7945 141.457 69.9675 142.471C72.275 144.464 75.0153 146.705 76.7747 149.202C78.8082 148.604 80.8434 147.086 82.526 145.827C83.2678 145.27 83.9311 144.26 84.9784 144.26C85.9174 144.26 86.7116 145.155 87.429 145.636C88.8725 146.605 90.4242 147.411 91.9602 148.219C96.5682 150.642 101.878 152.692 107.146 152.692C108.828 152.692 110.527 152.76 112.207 152.686C113.056 152.648 113.799 152.57 113.953 151.645C111.89 151.172 109.795 150.47 107.844 149.652C106.446 149.066 105 148.5 104 148C102.5 147.25 101.66 146.708 100.862 145.887C103.47 146.425 105.882 146.585 108.542 146.585C109.821 146.585 111.238 146.759 112.5 146.5L115 146C115.873 145.945 116.5 145 115.873 144.84C113.297 144.309 110.778 143.578 108.193 143.078C107.243 142.895 106.5 142.5 105.4 142.222C109.994 142.219 114.806 141.202 118.666 138.615C119.919 137.774 121.909 136.67 122.157 135.067C120.84 135.127 119.58 135.695 118.317 136.04C116.63 136.501 115.011 136.812 113.255 136.812C113.761 136.357 114.386 136.229 114.955 135.87C116.985 134.592 119.083 133.49 120.652 131.577C121.31 130.777 122.184 129.872 121.982 128.785C118.388 129.84 115.286 131.863 111.509 132.4C109.807 132.642 108.167 132.974 106.447 132.973C105.847 132.973 104.63 132.655 104.123 132.985C103.737 133.237 103.513 133.825 103.225 134.179C102.393 135.205 101.709 136.308 100.803 137.284C98.8862 139.35 95.8159 141.098 93.182 142.091C90.7122 143.023 86.6872 142.664 85.6451 139.779C85.3606 138.991 85.5753 138.136 85.6766 137.336Z" fill="#FFD600"/>
<path d="M106.098 142.397C107.107 142.882 108.325 142.944 109.414 143.174C110.701 143.446 111.968 143.852 113.254 144.144C113.837 144.276 115.578 144.429 115.812 145.08C115.958 145.481 115.457 145.724 115.171 145.848C114.344 146.206 113.438 146.335 112.556 146.483C108.727 147.125 105.208 146.719 101.385 146.236C102.173 146.972 103.227 147.445 104.178 147.942C106.124 148.959 108.18 149.865 110.287 150.496C111.219 150.775 112.139 151.089 113.08 151.338C113.399 151.422 113.933 151.524 114.066 151.884C114.333 152.607 112.78 152.735 112.382 152.792C110.378 153.083 108.285 153.178 106.273 152.916C101.288 152.269 96.3864 150.67 91.9599 148.276C90.3593 147.41 88.7884 146.496 87.2472 145.529C86.6311 145.143 85.7339 144.32 84.9781 144.306C84.1019 144.291 83.1017 145.464 82.3599 145.887C82.8487 147.017 83.9413 147.773 84.7529 148.676C86.9836 151.155 89.4604 153.397 91.836 155.733C93.838 157.704 95.9046 159.604 97.8945 161.592C100.216 163.913 102.569 166.172 104.812 168.573C105.311 169.107 105.958 169.666 106.308 170.315C106.447 170.573 106.547 170.958 106.212 171.119C105.534 171.444 104.637 170.068 104.258 169.672C102.501 167.832 100.867 165.874 99.1093 164.035C94.99 159.728 90.9301 155.342 86.7236 151.122C85.6484 150.043 84.643 148.897 83.58 147.806C83.1943 147.41 82.695 146.69 82.1348 146.539C81.66 146.41 81.1678 146.804 80.789 147.035C79.6859 147.706 78.5845 148.373 77.4727 149.028C78.0487 149.837 78.8498 150.289 79.5672 150.957C81.3807 152.645 83.196 154.334 84.9938 156.04C89.8252 160.628 94.5886 165.357 98.8405 170.491L102.157 174.505C102.855 175.347 103.611 176.087 104.004 177.123C106.239 177.02 108.533 175.572 110.462 174.534C116.667 171.193 122.551 165.706 125.371 159.149C126.181 157.268 126.694 155.558 127.173 153.565C127.366 152.756 127.653 151.464 127.288 150.664C126.766 149.52 124.71 148.7 123.727 147.977C121.493 146.332 119.233 144.702 117.094 142.934C116.272 142.254 115.325 141.655 114.651 140.826C111.743 141.32 109.104 142.372 106.098 142.397Z" fill="#F5F5F5"/>
<path d="M81.8359 146.236C84.3145 148.52 86.5661 151.105 88.8911 153.543C92.7206 157.556 96.5798 161.542 100.353 165.606L104.555 170.15C104.909 170.533 105.7 171.627 106.34 171.152C106.941 170.705 106.072 169.797 105.771 169.461C104.415 167.943 103.014 166.43 101.56 165.007C96.7439 160.299 91.9404 155.58 87.0706 150.932C85.9133 149.828 84.9114 148.578 83.7577 147.473C83.1712 146.911 82.6772 146.271 81.8359 146.236Z" fill="#BDBDBD"/>
<path d="M92.6582 151.82C93.3127 153.23 94.7161 154.321 95.7267 155.485C98.7882 159.011 102.347 162.098 105.486 165.556C106.473 166.646 107.502 167.684 108.526 168.741C109.127 169.36 109.577 170.003 110.462 170.143C110.183 168.335 107.68 166.697 106.44 165.432C103.401 162.33 100.127 159.476 97.1213 156.328C95.8035 154.947 94.381 152.641 92.6582 151.82Z" fill="#BDBDBD"/>
<path fill-rule="evenodd" clip-rule="evenodd" d="M26.2152 97.7747C24.9824 98.0089 23.7484 98.2433 22.4907 98.2467C22.6946 95.9119 24.2222 93.6215 25.5324 91.6573L25.5326 91.6568C25.6604 91.4654 25.786 91.277 25.9081 91.092C30.3037 84.4341 37.6017 78.6413 45.3562 76.5228C47.2029 76.0182 49.0419 75.5648 50.9416 75.3125C51.0114 75.3032 51.084 75.2932 51.1591 75.2828C51.9468 75.1742 53.0003 75.029 53.7047 75.3172C54.3512 75.5821 54.9026 76.3437 55.3843 77.0089C55.5555 77.2453 55.7179 77.4696 55.8726 77.655C56.5151 78.4265 57.1466 79.2074 57.778 79.9883C58.7504 81.1908 59.7227 82.3932 60.7354 83.5612C63.1074 86.2975 65.3982 89.1056 67.6892 91.9139L67.6892 91.914C69.9517 94.6873 72.2144 97.4609 74.5559 100.166C75.0041 100.684 75.449 101.208 75.8942 101.732L75.8948 101.732C76.8259 102.828 77.7588 103.926 78.7293 104.978C78.9387 105.206 79.1599 105.437 79.3856 105.674L79.3857 105.674C80.0982 106.421 80.8565 107.215 81.4357 108.064C74.9669 114.556 70.0066 123.016 71.9999 128C72.0527 128.132 72.1107 128.251 72.1736 128.359C73.0182 130.202 74.8203 131.357 76.9489 131.403C76.1625 132.519 75.0247 133.429 73.9487 134.29C73.8842 134.342 73.8199 134.393 73.756 134.445C73.7147 134.478 73.6735 134.511 73.6326 134.544L73.5251 134.63C71.7031 136.097 69.6888 137.719 67.5235 138.636C66.5614 139.044 65.6905 138.15 65.0129 137.455L65.0128 137.455C64.9171 137.357 64.8254 137.262 64.7377 137.176C64.6978 137.137 64.6557 137.097 64.6125 137.056C64.3352 136.793 64.0185 136.493 64.0064 136.099C63.9929 135.625 64.3466 135.142 64.6534 134.724C64.7445 134.599 64.8316 134.481 64.9035 134.369C65.5528 133.363 66.1603 132.292 66.7136 131.228C66.9267 130.818 67.09 130.387 67.2534 129.956L67.2535 129.956C67.4032 129.561 67.5531 129.166 67.7416 128.785C67.8148 128.637 67.8887 128.488 67.9632 128.338C69.3569 125.53 70.9368 122.347 71.1719 119.205C72.7127 116.158 68.3563 111.128 64 115C62.3383 116.477 60.813 118.363 59.3234 120.205C58.7113 120.962 58.1053 121.711 57.4983 122.422C56.8548 122.058 56.2852 121.456 55.7464 120.886C55.4771 120.601 55.2155 120.324 54.9562 120.09C53.4499 118.727 51.9278 117.342 50.528 115.869C50.1206 115.441 49.7257 114.99 49.3301 114.538C48.6174 113.724 47.9015 112.907 47.1016 112.207C47.548 113.068 48.2378 113.802 48.913 114.521C49.1178 114.739 49.3214 114.955 49.5163 115.174C49.9027 115.606 50.2868 116.04 50.6709 116.475L50.6724 116.476L50.6733 116.477C51.7974 117.748 52.9212 119.019 54.0992 120.241C54.4248 120.579 54.7589 120.909 55.0929 121.239C55.4571 121.599 55.8213 121.959 56.1745 122.329C56.2105 122.366 56.2485 122.405 56.2876 122.444L56.2877 122.444C56.4968 122.656 56.7341 122.897 56.8398 123.175C55.6106 124.545 54.3672 125.71 53.0521 126.411C52.8137 126.25 52.5887 126.036 52.3922 125.849C52.3107 125.771 52.2341 125.698 52.1635 125.635C51.4955 125.044 50.8158 124.466 50.1361 123.888C49.5903 123.424 49.0444 122.96 48.5048 122.489C43.4838 118.109 38.5464 113.631 33.6107 109.155L33.6081 109.153L33.6056 109.15C32.6688 108.301 31.7321 107.451 30.7949 106.603C28.9838 104.963 27.1952 103.28 25.458 101.562C25.2763 101.382 25.0854 101.203 24.8923 101.022L24.8923 101.022C24.1715 100.346 23.4214 99.643 23.0144 98.7702C24.5785 98.7659 26.1089 98.4009 27.628 98.0385L27.6283 98.0384C27.9526 97.9611 28.2763 97.8838 28.5998 97.8103C36.1367 96.0961 42.6259 92.5793 47.9606 86.9106C49.7024 85.0595 51.6049 82.8337 52.5544 80.4471C52.9821 79.3727 53.3189 78.0498 52.1477 77.3216C50.5927 76.3569 48.0666 77.6387 46.38 78.4945C46.1356 78.6185 45.9089 78.7336 45.7053 78.8316L45.5724 78.8955C40.6927 81.2433 35.603 83.6921 31.5739 87.4003C30.2699 88.6006 28.1121 90.8478 28.7611 92.8369C29.5162 95.1517 32.4117 94.0186 34.0107 93.374C37.1185 92.121 39.74 90.0142 42.2144 87.8053C43.4503 86.7019 44.6809 85.5961 45.7053 84.2863H46.0544C46.5171 84.8824 47.0126 85.4143 47.6253 85.8568C46.9013 87.4091 45.2805 88.6445 43.8325 89.7483L43.8325 89.7483L43.8325 89.7483C43.4864 90.0121 43.1503 90.2683 42.8385 90.5196C38.3021 94.1764 32.7416 96.5908 27.0289 97.6227C26.7577 97.6717 26.4866 97.7232 26.2155 97.7747L26.2152 97.7747Z" fill="#F5F5F5"/>
<path fill-rule="evenodd" clip-rule="evenodd" d="M45.7052 84.2862H46.0543C46.4185 84.9672 46.9277 85.5141 47.6252 85.8568C46.4556 87.5167 44.7667 88.862 43.1743 90.1305C43.0618 90.2201 42.9498 90.3094 42.8384 90.3983C38.2172 94.09 32.6617 96.5737 26.8543 97.6227C26.5573 97.6763 26.26 97.7338 25.9622 97.7914L25.962 97.7914C24.8137 98.0135 23.658 98.237 22.4906 98.2467C22.8403 95.882 24.3679 93.5603 25.6775 91.6155C27.3982 89.0605 29.3586 86.6419 31.6675 84.5907C33.0225 83.387 34.4863 82.3443 35.952 81.3002C36.8245 80.6787 37.6976 80.0567 38.5488 79.4001C37.9985 79.0486 37.6597 79.3336 37.2662 79.6646C37.1419 79.7691 37.0122 79.8782 36.8686 79.9733C36.6808 80.0979 36.4817 80.1954 36.2829 80.2928C36.0323 80.4155 35.7822 80.538 35.5552 80.7145C35.3044 80.9095 35.0819 81.1337 34.8597 81.3576L34.8597 81.3576C34.5714 81.648 34.2838 81.9378 33.9359 82.1625C31.9016 83.4765 30.311 85.1196 28.6401 86.8456L28.6401 86.8457L28.4765 87.0146C28.3466 87.1487 28.2169 87.2821 28.0874 87.4152L28.0874 87.4153C26.6072 88.9368 25.1721 90.4121 24.1733 92.3161C24.0234 92.6018 23.8579 92.8879 23.6909 93.1766C23.3738 93.7249 23.1961 94.2244 23.016 94.7305C22.8704 95.1396 22.7233 95.553 22.4998 96L21.9998 97L21.8834 97.1864C21.8008 97.7877 21.7142 98.418 21.9214 98.9222C22.0225 99.1679 22.2043 99.3493 22.387 99.5315C22.4928 99.6371 22.5989 99.7429 22.6898 99.8617C23.4895 100.908 24.5041 101.753 25.5194 102.598C26.4405 103.366 27.3622 104.133 28.1245 105.052C34.8207 110.997 45.882 120.741 52.588 126.638C52.7957 126.546 53.0016 126.442 53.2057 126.327C51.9122 125.061 50.484 123.886 49.0648 122.719C48.1791 121.991 47.297 121.266 46.4533 120.523C41.3981 116.07 36.3686 111.581 31.408 107.024C29.5164 105.287 27.635 103.539 25.8063 101.734C25.6017 101.532 25.3924 101.332 25.1822 101.13C24.4092 100.389 23.6241 99.6357 23.0143 98.7702C24.6852 98.7692 26.2999 98.3896 27.9168 98.0096L27.9169 98.0096C28.2025 97.9425 28.4882 97.8753 28.7743 97.8103C36.1792 96.1261 42.74 92.6988 47.9605 87.0802C49.718 85.1888 51.7252 82.9052 52.6207 80.4471C53.0082 79.3824 53.3904 77.8808 52.1476 77.2315C50.5264 76.3851 48.0232 77.61 46.4164 78.3962L46.4163 78.3962C46.2898 78.4581 46.1688 78.5173 46.0543 78.5726C45.7177 78.7349 45.3796 78.8974 45.0405 79.0604C40.4051 81.2878 35.5733 83.6095 31.7442 87.087C30.237 88.4557 27.8769 90.9148 28.8244 93.1834C29.6246 95.0995 32.4601 94.028 33.9168 93.4775L34.0106 93.442C37.1921 92.2423 39.8846 90.0409 42.3888 87.8053C42.5724 87.6414 42.7606 87.4774 42.9504 87.3119C43.9802 86.4145 45.0571 85.4759 45.7052 84.2862Z" fill="#BDBDBD"/>
<path fill-rule="evenodd" clip-rule="evenodd" d="M48.9036 114.696C48.1826 113.946 47.4253 113.159 47.1016 112.207C48.0268 112.758 48.8155 113.711 49.5614 114.612C49.8444 114.954 50.1212 115.288 50.397 115.59C51.637 116.948 53.0378 118.207 54.4149 119.445C54.6546 119.66 54.8935 119.875 55.1307 120.089C55.2799 120.224 55.4509 120.366 55.6301 120.514C56.3564 121.114 57.2155 121.824 57.2878 122.667C57.174 122.798 57.0601 122.928 56.9461 123.056C56.24 122.652 55.6546 122.033 55.0856 121.431C54.9256 121.262 54.7668 121.094 54.6071 120.932C53.2237 119.534 51.916 118.056 50.611 116.582C50.2464 116.17 49.882 115.758 49.5162 115.348C49.323 115.132 49.1149 114.915 48.9036 114.696Z" fill="#BDBDBD"/>
<path d="M76.0762 76.7812C75.6521 78.3204 76.5615 80.3871 77.0869 81.8419C78.848 86.7263 81.838 91.0108 86.8981 92.7669C87.8458 93.0958 89.0554 93.1326 90.0399 92.9197C90.5653 92.8061 91.2268 92.3491 91.7696 92.5376C92.3945 92.7548 92.8309 93.5586 93.3563 93.9504C94.5152 94.8124 96.1019 95.2974 97.5453 95.2695C99.9454 95.223 102.787 93.8989 103.557 91.4398C104.138 89.5823 103.365 87.1078 102.433 85.5065C102.159 86.2313 102.64 86.7372 102.843 87.4261C103.049 88.1217 103.066 89.179 102.834 89.8692C101.619 93.4583 95.2501 94.4189 93.0072 91.4398C97.2853 89.3096 97.4109 83.2915 94.1784 80.1499C93.7839 79.766 93.3179 79.4728 92.8326 79.2174C92.4992 79.0416 92.1554 78.8804 91.7853 78.7937C88.9018 78.1166 88.7692 81.6418 88.8198 83.587C88.8582 85.0242 89.4831 86.3688 89.6908 87.7751C88.3119 87.7865 87.0517 88.0364 85.6762 87.7097C82.6845 86.9993 79.8953 84.2583 78.4274 81.6674C77.5494 80.1208 77.4359 78.3258 76.4253 76.7812H76.0762Z" fill="#FFD600"/>
<path d="M11.669 120.059C11.0487 120.937 10.2095 121.581 9.40012 122.28C9.00652 122.62 8.43908 122.994 8.35145 123.549C8.26209 124.117 8.73232 124.83 9.00845 125.294C9.79373 126.613 11.6361 129.2 13.4145 129.075C14.0008 129.034 14.515 128.632 14.9854 128.318C16.2345 127.483 17.4982 126.399 18.3018 125.119C16.7459 124.471 15.3083 123.517 14.1153 122.325C13.3305 121.54 12.776 120.376 11.669 120.059Z" fill="#FFD600"/>
<path d="M9.74902 121.805L9.92355 121.979L9.74902 121.805Z" fill="#FFB7B7"/>
<path d="M3.46552 184.102C5.0017 183.697 4.51751 182.797 4.17994 181.643C3.95582 180.877 3.83643 180.013 3.81723 179.216C3.74445 176.199 5.13383 172.557 8.00371 171.189C7.31757 172.65 6.92816 174.132 6.73215 175.726C6.6077 176.74 6.5754 177.684 6.77054 178.692C7.31774 181.521 10.2229 183.162 12.891 181.774C17.093 179.588 19.9957 172.312 14.9854 169.314C13.9397 168.688 12.8611 168.572 11.6692 168.571C12.1942 166.361 13.6235 164.787 15.6905 163.899C16.5865 163.515 17.5679 163.425 18.4764 163.066C19.9796 162.473 21.5888 160.919 21.9673 159.322C17.3735 159.417 13.2015 163.241 10.5128 166.652C9.76138 167.605 9.34247 168.806 8.57046 169.736C7.80752 170.655 6.64697 171.257 5.81578 172.135C4.3983 173.633 3.51387 175.492 3.00786 177.471C2.68408 178.738 2.6422 180.195 2.87487 181.484C3.03615 182.378 3.41874 183.189 3.46552 184.102Z" fill="#FFD600"/>
<path d="M10.7967 170.316C10.5478 171.522 10.3053 172.745 10.2757 173.981C10.2324 175.771 10.819 177.585 12.3702 178.621C12.9041 178.979 13.9003 179.492 14.4674 178.937C15.0835 178.333 15.1383 177.056 15.1577 176.25C15.2243 173.485 13.7308 170.698 10.7967 170.316Z" fill="white"/>
<path d="M125.298 223.192C124.298 222.487 123.534 221.509 122.757 220.574C121.029 218.497 119.491 216.229 118.84 213.594C117.231 214.107 115.529 215.328 114.127 216.274C113.611 216.621 112.909 217.035 112.661 217.637C112.331 218.445 112.735 219.44 112.944 220.225C113.579 222.602 114.662 225.057 116.131 227.031C116.651 227.73 117.412 228.952 118.317 229.17C119.067 229.353 119.872 228.565 120.411 228.151C122.015 226.919 124.75 225.27 125.298 223.192Z" fill="#FFD600"/>
<path d="M85.6183 157.434C85.1734 156.892 84.7738 156.406 84.6294 155.658C85.5218 156.287 86.2923 157.088 87.0593 157.885C87.464 158.306 87.8677 158.725 88.2879 159.118C92.1994 162.776 95.816 166.753 99.2755 170.833C99.8726 171.538 100.456 172.252 101.039 172.966C101.458 173.48 101.877 173.994 102.302 174.504C102.416 174.642 102.533 174.777 102.65 174.912C103.19 175.537 103.723 176.153 103.959 176.954C101.381 174.11 97.4269 169.778 94.2294 166.345L94.0002 165.999C94.0002 165.999 93.9087 165.892 93.7593 165.841C93.2105 165.254 92.2048 164.186 92.2048 164.186L92.0002 163.999L91.7117 163.666C91.7117 163.666 89.126 160.999 89.0002 160.999C88.9812 160.999 89.0248 161.003 89.0002 160.999C87.9317 159.997 86.8086 158.943 85.9175 157.805C85.8171 157.676 85.7166 157.554 85.6183 157.434Z" fill="#BDBDBD"/>
<path d="M103.877 177.048C103.919 177.074 103.961 177.099 104.004 177.122C103.995 177.084 103.985 177.047 103.975 177.009L103.877 177.048Z" fill="#BDBDBD"/>
<path d="M91.3727 115.223H91.7584C91.7186 116.588 90.6848 118.09 89.9934 119.231C88.1372 122.293 85.787 124.952 83.0892 127.309C82.2846 128.012 81.4432 128.746 80.5672 129.357C80.0188 129.739 79.2293 130.109 79.0039 130.788C78.5475 132.163 79.1797 134.159 80.225 135.114C80.5285 135.391 80.9328 135.507 81.2626 135.748C81.897 136.211 82.3329 136.612 83.1437 136.764C84.3403 136.988 85.3537 136.696 86.4322 136.217C86.9766 135.975 87.4143 135.593 87.9125 135.28C91.3577 133.113 94.2161 129.793 96.4398 126.404C96.9144 125.681 97.4021 124.972 97.8272 124.218C98.2875 123.402 98.6379 122.416 99.3445 121.78C98.9869 123.678 97.8816 125.134 96.789 126.688C95.0264 129.195 93.0571 131.684 90.693 133.674C89.7723 134.45 88.6695 135.184 87.6439 135.819C87.156 136.122 86.4416 136.361 86.1125 136.851C85.7258 137.428 85.7611 138.482 85.8926 139.138C86.4065 141.702 89.7428 142.194 91.887 141.93C93.5086 141.731 94.6381 140.997 96.0034 140.214C96.4568 139.953 96.9683 139.838 97.4159 139.561C99.1736 138.474 100.638 137.024 101.97 135.464C102.643 134.675 103.233 133.866 103.752 132.967C104.034 132.481 104.25 132 104.5 131.5C105 130.5 105.383 128.9 105.388 127.823C105.401 125.107 104.543 122.711 101.659 121.987C100.968 121.814 100.181 121.909 99.4731 121.909C99.4731 119.178 98.9464 116.298 96.2804 114.924C95.8813 114.718 95.5618 114.504 95.1013 114.463C93.8977 114.359 92.9461 114.892 91.887 115.351C91.887 114.378 92.0529 113.237 91.8614 112.283C91.7965 111.959 91.5933 111.318 91.5 111C91.3404 110.455 91 110 91 110C90.7702 109.049 89.9888 108.482 89.2724 107.96C86.9751 106.289 83.9061 106.977 81.7874 108.664C81.2991 109.052 80.6618 109.475 80.2469 109.938C79.974 110.243 79.8301 110.614 79.5295 110.906C77.0862 113.281 75.1753 115.988 73.7173 119.08C72.6288 121.389 71.8959 123.567 71.9594 126.152C72.0243 128.799 74.2298 130.83 76.8434 130.779C77.3846 130.768 78.1162 130.728 78.6017 130.468C79.3498 130.068 79.9794 129.363 80.6659 128.865C83.9783 126.465 86.6966 123.457 89.0161 120.104C89.95 118.754 91.2858 116.916 91.3727 115.223Z" fill="#FFB7B7"/>
<path fill-rule="evenodd" clip-rule="evenodd" d="M67.4999 128C68.5 126.5 73.5 117.5 68.4999 113.5C68.427 113.442 68.3576 113.384 68.2914 113.327C67.4033 113.129 66.4575 113.205 65.6571 113.621C65.1006 113.909 64.7298 114.292 64.3378 114.697C64.1801 114.86 64.019 115.026 63.8409 115.191C62.757 116.197 61.9122 117.374 61.0651 118.554C60.418 119.455 59.7693 120.359 59.0118 121.189C57.4043 122.952 55.6625 124.607 53.9331 126.251C53.5717 126.595 53.2109 126.938 52.852 127.281C52.4747 127.642 52.1359 128.058 51.796 128.476C51.4853 128.858 51.1737 129.24 50.8308 129.583C50.4618 129.952 50.088 130.317 49.7139 130.683C48.1202 132.24 46.5224 133.8 45.283 135.671C44.6979 136.555 44.2431 137.581 43.8133 138.551L43.7811 138.624C41.7902 143.115 43.976 148.102 46.1937 152.07C46.4352 152.502 46.6492 152.951 46.863 153.4C47.1033 153.904 47.3435 154.408 47.6221 154.887C47.7067 155.032 47.8006 155.182 47.8967 155.334C48.2061 155.826 48.5376 156.353 48.6494 156.893C48.7864 157.554 48.7121 158.251 48.6392 158.934C48.6065 159.24 48.5742 159.543 48.5612 159.839C48.4579 162.2 48.3434 164.554 48.1819 166.911C48.0918 168.227 48.0212 169.544 47.9507 170.86C47.8327 173.061 47.7148 175.26 47.5058 177.454C47.261 180.024 46.9685 182.583 46.6759 185.141C46.3959 187.591 46.1159 190.04 45.878 192.498C45.7197 194.132 45.491 195.758 45.2619 197.386C45.1898 197.899 45.1175 198.413 45.0475 198.927C45.0141 199.172 44.9497 199.411 44.8854 199.649C44.8124 199.92 44.7395 200.19 44.7121 200.47C44.6797 200.802 44.6753 201.178 44.6708 201.571C44.6584 202.643 44.6446 203.837 44.056 204.584C44.2464 205.56 43.9917 206.764 43.7645 207.839C43.7013 208.138 43.6401 208.427 43.5913 208.699C43.5751 208.789 43.5566 208.881 43.5378 208.975C43.4286 209.522 43.3098 210.117 43.5647 210.627C43.8928 211.283 44.553 211.811 45.1635 212.3C45.3567 212.454 45.545 212.605 45.7161 212.754C46.7044 213.616 47.7322 214.426 48.76 215.237L48.7608 215.237C49.5811 215.884 50.4014 216.531 51.2018 217.204C57.1691 222.224 64.1829 226.163 71.3145 229.245C74.7674 230.738 78.4178 232.235 82.115 233C82.0503 231.493 81.7374 229.973 81.4276 228.469C81.2788 227.746 81.1306 227.026 81.011 226.314C80.5264 223.425 80.0892 220.532 79.6521 217.639L79.6505 217.629C79.4273 216.152 79.2041 214.675 78.9746 213.199C78.9277 212.897 78.8437 212.604 78.7599 212.312C78.673 212.01 78.5865 211.708 78.5418 211.399C78.3626 210.155 78.2482 208.9 78.1337 207.645C78.0445 206.666 77.9552 205.687 77.8352 204.713C77.7646 204.14 77.6595 203.575 77.5544 203.009C77.4453 202.422 77.3362 201.835 77.2658 201.241C77.111 199.933 77.0128 198.609 76.9147 197.288C76.8469 196.374 76.7792 195.461 76.6929 194.555C76.6354 193.952 76.5737 193.348 76.512 192.743C76.333 190.992 76.1537 189.238 76.0769 187.483C75.8963 183.357 75.9144 179.216 75.9324 175.078C75.9376 173.898 75.9427 172.718 75.9433 171.54C75.9433 171.472 75.9415 171.403 75.9397 171.333C75.9326 171.064 75.9252 170.778 76.019 170.533C76.1525 170.184 76.4633 169.927 76.7567 169.684C76.843 169.613 76.9281 169.542 77.0065 169.471C77.6617 168.879 78.2514 168.255 78.8525 167.608C80.9236 165.378 82.9666 162.681 84.3276 159.97C84.4602 159.706 84.6971 159.418 84.9464 159.115C85.4562 158.496 86.0181 157.813 85.8477 157.139C85.6784 156.469 85.0369 155.95 84.4596 155.483C84.2645 155.325 84.0768 155.173 83.917 155.023C83.3873 154.526 82.8723 154.015 82.3571 153.504C81.7371 152.888 81.1168 152.273 80.4704 151.681C80.335 151.558 80.1901 151.433 80.0428 151.306C79.6714 150.986 79.285 150.653 78.9983 150.291C78.8627 150.12 78.7517 149.936 78.641 149.753C78.4685 149.467 78.2969 149.182 78.0349 148.951C77.8402 148.78 77.6101 148.692 77.3777 148.603C77.1483 148.515 76.9166 148.427 76.7148 148.256C75.9106 147.576 75.1817 146.808 74.4523 146.039C73.9308 145.489 73.4089 144.939 72.8592 144.421C71.725 143.352 70.6686 142.422 69.6008 141.482C68.7315 140.717 67.8538 139.945 66.921 139.086C66.571 138.34 65.9097 137.661 65.2593 136.993C64.7914 136.512 64.329 136.037 63.9922 135.548C64.0014 135.538 64.0106 135.529 64.0198 135.52L64 135.5L66.5714 130.786L67.4521 128.144C67.4422 128.111 67.4576 128.063 67.4999 128ZM63.3583 136.153C63.5305 135.993 63.7022 135.833 63.8744 135.664C63.3639 136.253 62.881 136.913 62.3917 137.581C61.3166 139.05 60.2107 140.561 58.7139 141.452C58.787 141.306 58.9134 141.208 59.0297 141.118C59.1062 141.058 59.1783 141.002 59.2282 140.938V140.681C59.8756 140.141 60.3008 139.629 60.8406 138.978C60.8826 138.928 60.9252 138.876 60.9688 138.824C60.9884 138.8 61.0083 138.776 61.0283 138.752C61.1665 138.586 61.3468 138.434 61.5286 138.28C61.7805 138.068 62.0354 137.852 62.1855 137.595V137.338C62.5866 136.87 62.9738 136.51 63.3583 136.153Z" fill="#FFB7B7"/>
<path d="M91.3726 115.223C91.2436 116.508 90.4103 117.631 89.8021 118.731C88.0328 121.932 85.4166 124.823 82.6639 127.22C81.7663 128.001 80.8045 128.671 79.8925 129.429C79.4394 129.805 79.0071 129.957 78.772 130.523H79.1577C80.1359 129.48 81.5278 128.745 82.6243 127.813C85.4326 125.427 88.0816 122.679 89.9231 119.471C90.6443 118.214 91.7417 116.713 91.7583 115.223H91.3726Z" fill="#E09A90"/>
<path d="M99.0871 121.781C96.9298 126.126 93.8694 130.229 90.2782 133.5C89.2898 134.4 88.1262 135.127 87.0008 135.839C86.5445 136.128 85.8939 136.258 85.5864 136.696C87.1241 136.785 88.786 135.105 89.9581 134.258C92.7697 132.228 94.8295 129.433 96.8735 126.689C97.9827 125.2 99.1055 123.661 99.3442 121.781H99.0871Z" fill="#E09A90"/>
<path d="M66.8143 130.01C65.4641 132.759 63.8944 135.184 61.9984 137.596C61.0088 138.855 59.4038 140.005 58.7139 141.453C59.8517 140.996 60.6634 139.728 61.4236 138.819C63.0162 136.916 64.4981 134.994 65.7464 132.838C66.262 131.948 66.9413 131.053 67.0714 130.01H66.8143Z" fill="#E09A90"/>
<path d="M71.4431 145.953C71.4431 150.198 70.6922 154.483 68.5939 158.242C67.9434 159.407 67.3075 160.56 66.5139 161.64C66.2173 162.043 65.7329 162.594 65.9923 163.142C66.2926 163.776 67.104 163.291 67.3672 162.918C68.1243 161.845 68.7274 160.465 69.2745 159.271C71.1778 155.116 71.8288 150.498 71.8288 145.953H71.4431Z" fill="#E09A90"/>
</g>
<defs>
<clipPath id="clip0_2281_76330">
<rect width="183" height="256" fill="white"/>
</clipPath>
</defs>
</svg>
