<svg width="356" height="269" viewBox="0 0 356 269" fill="none" xmlns="http://www.w3.org/2000/svg">
<g clip-path="url(#clip0_2281_76222)">
<path d="M42.0844 194.201C42.8008 193.352 43.7158 191.259 45.0638 191.469C46.5909 191.707 47.3613 194.271 47.7967 195.488C48.7389 198.12 48.8123 201.112 49.992 203.637C51.2442 206.318 53.722 208.381 54.3705 211.357C54.9249 213.905 53.6203 217.111 56.2557 218.649C55.8795 216.71 55.0752 214.534 56.0242 212.65C58.1568 208.417 64.1117 209.289 66.5969 212.684C68.4709 215.244 68.4851 218.294 67.6056 221.222C66.4315 225.13 64.1779 227.308 68.2798 230.229C73.7667 218.651 76.9672 206.035 82.7757 194.63C85.9681 188.362 91.823 182.936 99.199 182.638C104.465 182.425 107.91 185.599 112.511 187.339C110.262 180.74 105.015 174.245 97.4813 174.049C95.7992 174.005 93.9698 173.885 92.3281 174.304C90.9139 174.665 89.5436 175.603 88.0337 175.395C85.3206 175.02 82.637 173.316 79.8745 172.758C72.8915 171.344 65.1952 171.757 58.4028 173.934C50.0014 176.626 40.2649 184.413 42.0844 194.201Z" fill="#2F2E41"/>
<path d="M220.728 111.422C216.099 112.801 211.787 113.502 207.852 116.731C205.407 118.737 204.033 121.595 202.51 124.289C200.19 128.393 197.862 133.06 196.496 137.585C195.051 142.368 194.516 147.562 192.525 152.168C189.598 158.937 185.721 165.418 182.212 171.897C177.615 180.387 173.121 188.92 168.145 197.203C165.058 202.341 161.406 207.113 158.295 212.214C156.516 215.132 155.224 218.319 153.415 221.221C151.633 224.08 149.202 226.43 146.988 228.942C143.413 232.998 139.962 237.13 136.13 240.951C133.819 243.255 129.402 245.742 128 248.688C126.771 251.269 129.409 256.122 130.376 258.536C133.421 266.141 136.913 273.493 140.529 280.839C142.029 283.886 144.319 287.693 148.539 286.815C149.627 286.588 150.184 285.561 150.729 284.697C151.981 282.71 153.214 280.707 154.424 278.695C159.516 270.223 165.206 261.954 169.329 252.96C174.145 242.454 177.992 231.393 183.5 221.221C187.521 213.797 193.259 207.268 196.332 199.347C200.13 189.557 201.289 178.959 204.164 168.895C205.95 162.642 208.912 156.679 211.816 150.881C213.729 147.064 217.332 143.741 221.587 142.522C223.342 142.019 225.491 142.719 227.034 141.506C227.89 140.833 227.971 139.772 228.462 138.871C229.151 137.607 230.38 136.73 231.023 135.441C231.624 134.236 231.274 132.895 231.685 131.653C232.321 129.731 234.116 127.432 235.139 125.621C236.488 123.232 240.348 122.7 239.837 119.189C239.558 117.27 236.809 117.297 235.329 117.12C230.596 116.554 225.877 117.424 221.158 117.427C221.158 115.479 221.488 113.231 220.728 111.422Z" fill="#FFB7B7"/>
<path d="M57.1144 248.671C57.3206 249.512 57.5172 250.089 57.9733 250.816C60.7938 246.558 63.0166 242.127 65.1792 237.52C66.0475 235.67 67.7382 233.166 67.8047 231.086C67.8657 229.176 65.4974 228.259 65.7001 226.368C65.8246 225.207 66.7294 224.048 67.0988 222.937C68.1066 219.904 68.5223 215.52 66.7625 212.683C64.9731 209.799 58.3886 208.52 56.3921 211.866C55.2176 213.835 56.0881 216.527 56.2556 218.648C53.3642 216.164 54.7315 213.31 53.9285 210.07C53.2216 207.216 50.654 205.063 49.5358 202.349C48.2995 199.349 48.6735 193.526 45.783 191.482C44.3156 190.444 43.2356 192.147 42.7539 193.345C41.5336 196.379 40.8823 199.946 40.8023 203.207C40.7481 205.415 40.5262 207.906 41.0233 210.07C41.4283 211.832 42.6826 213.389 42.7785 215.217C42.923 217.97 41.3631 220.61 41.2423 223.366C41.0066 228.742 43.2704 234.499 45.6263 239.235C48.013 244.034 50.861 250.157 57.1144 248.671Z" fill="#FFB7B7"/>
<path d="M58.832 215.645V219.505L58.8342 221.649C58.869 223.498 59.8094 225.421 61.5581 223.299C63.9419 220.407 62.5286 216.059 58.832 215.645Z" fill="#E09A90"/>
<path d="M15.4595 270.116C25.2228 270.885 35.4453 270.472 45.0904 272.26C47.983 266.833 51.6431 261.823 54.5379 256.391C45.9393 257.482 37.1775 259.278 28.7719 261.377C22.8118 262.866 18.1164 263.967 15.4595 270.116Z" fill="#FFB7B7"/>
<path d="M255.513 40.8538C253.258 41.2754 251.879 42.641 249.93 43.6687C247.425 44.9897 243.156 46.3562 245.525 50.0825C247.197 52.7126 249.859 52.119 251.891 53.8384C252.75 54.565 252.771 55.8221 253.618 56.529C254.697 57.431 256.438 57.5442 257.659 58.2703C259.735 59.5047 260.915 62.082 263.672 61.4983C268.438 60.4895 271.133 52.5629 269.421 48.3738C268.21 45.4131 265.77 44.7645 263.242 43.3114C260.583 41.7815 258.772 40.2435 255.513 40.8538Z" fill="#FFD600"/>
<path d="M217.723 66.8159C219.683 66.574 221.418 67.0857 223.305 66.9759C225.011 66.8764 226.3 65.428 228.029 65.2864C229.805 65.1415 231.517 66.3368 233.182 66.8159C234.604 63.4902 237.021 62.9086 239.98 61.4507C241.312 60.7949 242.168 59.4894 243.49 58.8031C245.781 57.6146 247.194 57.7407 249.071 55.6644C250.834 58.9202 254.033 57.1145 256.799 58.9682C259.218 60.5891 259.161 62.7606 260.671 64.8284C261.361 65.7724 262.67 66.2866 263.672 66.8159C264.527 63.1393 268.191 61.9783 268.396 58.2378C266.753 59.3791 264.983 61.5091 262.82 61.5138C260.84 61.5181 259.649 59.205 258.088 58.27C256.809 57.504 255.121 57.3929 253.93 56.5286C252.897 55.7798 252.934 54.3232 251.891 53.5949C251.079 53.0275 249.971 53.0365 249.071 52.6599C246.678 51.6567 245.06 49.625 244.777 47.0863C244.169 47.9621 244.028 48.5922 243.918 49.6597C241.842 46.8418 240.004 44.6403 236.188 44.9872C235.095 45.0867 234.026 45.6945 232.935 45.6636C231.055 45.61 229.586 44.5656 227.6 45.1622C226.022 45.6362 225.137 47.0863 223.662 47.6885C220.871 48.8281 218.704 48.7693 217.043 51.8047C215.22 55.1364 216.59 57.8599 217.153 61.2401C217.462 63.0883 217.378 64.9583 217.723 66.8159Z" fill="#CCAB00"/>
<path d="M275.696 69.8182C275.442 71.1281 274.486 73.4674 275.295 74.685C277.111 77.4163 284.644 75.3528 286.173 73.2027C287.159 71.8161 286.677 70.0902 287.039 68.5315C288.065 64.116 289.781 60.481 285.142 57.2308C284.101 56.5012 282.874 56.2374 281.781 55.6232C279.154 54.1482 276.723 51.824 273.555 53.8381C268.156 57.2719 268.034 69.7277 275.696 69.8182Z" fill="#CCAB00"/>
<path d="M233.182 66.8165C231.382 66.0694 229.628 64.9443 227.599 65.2489C226.064 65.4792 224.827 66.6209 223.305 66.7852C221.646 66.9641 220.223 66.0608 218.588 66.8937C217.059 67.6726 216.448 69.3492 215.056 70.2546C212.799 71.7219 210.431 72.0401 209.436 74.9661C208.321 78.2404 209.72 81.0441 210.886 83.9727C211.652 85.895 211.424 87.7874 212.809 89.5086C214.944 92.1609 217.703 92.0622 220.729 92.6666C222.867 93.0938 224.496 93.8311 226.741 93.8375C227.168 89.666 230.28 86.4942 234.47 86.1172C234.47 82.5895 234.548 78.8696 233.88 75.3946C233.484 73.3384 232.533 71.492 232.323 69.3899C234.725 73.8891 237.525 79.2204 243.059 80.5187C244.638 80.8889 246.189 79.7664 247.783 79.7638C249.156 79.7617 250.599 80.6324 251.954 80.2597C253.727 79.772 255.144 77.9294 256.801 77.1098C259.307 75.8702 261.884 76.3472 264.531 76.6813C262.644 78.0366 261.047 77.6129 258.948 78.2464C256.887 78.8683 255.319 80.4286 254.271 82.2588C252.897 84.6589 253.615 86.9703 253.684 89.5484C253.771 92.8343 252.797 95.602 254.997 98.5168C256.633 100.684 258.852 101.017 260.972 102.386C263.098 103.758 264.361 105.572 267.107 105.755C269.966 105.946 272.058 104.314 274.408 103.007C276.917 101.611 279.726 100.621 282.136 99.0367C285.271 96.9749 286.688 92.5838 284.947 89.12C284.25 87.7329 282.892 86.8892 282.149 85.5661C281.116 83.7265 281.963 81.555 280.569 79.7287C278.174 76.5908 275.395 77.9792 272.261 77.3517C269.081 76.7152 267.889 75.4589 264.531 76.6813C265.925 73.5482 266.58 70.0423 264.009 67.2905C263.102 66.3194 261.791 65.8103 260.923 64.8294C259.429 63.1404 259.62 60.8509 257.641 59.2759C254.552 56.8175 252.31 58.5983 249.071 58.8938C247.459 59.0409 246.02 58.036 244.347 58.3594C242.44 58.7282 241.544 60.3216 239.98 61.2476C237.109 62.9486 234.174 63.0391 233.182 66.8165Z" fill="#FFD600"/>
<path d="M243.488 80.9711L244.777 83.1157C242.757 83.575 241.188 82.5486 239.194 82.7507C237.034 82.9694 235.835 84.7318 234.041 85.696C232.268 86.6485 230.47 86.821 228.979 88.3432C225.727 91.6654 226.92 95.5149 228.072 99.414C228.656 101.393 228.351 103.556 229.377 105.417C231.345 108.987 234.622 108.803 237.906 110.068C239.243 110.582 240.323 111.51 241.771 111.756C246.49 112.557 248.383 110.08 251.684 107.396C254.076 105.45 256.672 103.634 258.518 101.13C255.858 99.4634 253.603 97.1434 253.412 93.8383C253.328 92.392 253.775 90.9916 253.739 89.5492C253.647 85.8028 253.096 83.2049 256.082 80.2544C258.611 77.7544 262.306 78.9514 264.531 76.6821C261.844 76.1837 258.908 75.8556 256.371 77.1106C254.789 77.8933 253.315 79.8508 251.575 80.1609C250.483 80.3557 249.307 79.7895 248.212 79.7308C246.475 79.6377 244.996 80.1815 243.488 80.9711Z" fill="#CCAB00"/>
<path d="M243.059 36.3633C241.437 39.1361 239.929 41.9446 238.765 44.9414C240.318 45.7709 241.495 46.5896 242.63 47.9437H244.347C245.708 46.0312 247.234 44.7561 249.5 44.0836C247.902 41.2193 245.712 38.3135 243.059 36.3633Z" fill="#BDBDBD"/>
<path d="M207.416 51.375C209.088 56.352 212.094 62.8375 216.434 65.9577C216.818 64.3485 217.168 62.4699 216.969 60.8109C216.587 57.6323 215.396 55.9398 216.434 52.6617C213.461 52.1101 210.418 51.7542 207.416 51.375Z" fill="#BDBDBD"/>
<path d="M265.819 71.9622C268.277 71.3943 270.585 70.4533 273.12 70.2466C272.304 68.8149 271.152 67.4956 270.545 65.9575C268.662 61.1847 270.316 56.4238 274.408 53.5193C272.36 52.812 269.437 54.5328 268.655 56.5388C268.108 57.9417 268.55 59.445 267.648 60.7656C266.316 62.7133 263.948 63.1855 263.874 65.9579C263.818 68.0287 265.599 69.8309 265.819 71.9622Z" fill="#BDBDBD"/>
<path d="M197.969 71.9619C200.567 75.1701 205.263 78.6451 209.134 80.1111C208.577 77.5505 209.108 74.8317 210.944 72.8648C211.845 71.898 213.096 71.3602 213.987 70.4037C214.894 69.4305 215.404 67.9877 216.005 66.8151C209.21 65.9573 204.085 69.4189 197.969 71.9619Z" fill="#BDBDBD"/>
<path d="M264.531 76.6808C265.914 76.315 267.373 75.6733 268.825 76.0152C270.097 76.315 271.266 77.6776 272.633 77.4494C275.009 77.0531 275.188 71.6446 275.267 69.8184C273.005 70.11 267.754 70.3918 266.254 72.2644C265.39 73.3431 265.06 75.383 264.531 76.6808Z" fill="#BDBDBD"/>
<path d="M282.997 74.9644C282.783 77.663 282.72 80.4312 282.385 83.1135C282.276 83.9915 281.902 85.4622 282.827 86.0593C284.071 86.8635 286.424 85.2817 287.72 85.0685C289.873 84.7146 292.019 85.9289 294.162 86.1159C292.204 81.5785 288.799 73.941 282.997 74.9644Z" fill="#BDBDBD"/>
<path d="M274.408 74.9648L273.979 77.1094C276.825 77.2397 278.738 78.6315 281.279 79.6828C282.297 78.1203 282.895 76.8379 282.997 74.9648C279.72 75.7128 277.672 75.5168 274.408 74.9648Z" fill="#BDBDBD"/>
<path d="M235.33 76.6797C234.951 79.6717 234.479 82.6659 234.471 85.6867C237.661 83.471 239.387 81.3951 243.059 83.9711L244.777 83.1133C243.234 79.9531 238.747 77.2883 235.33 76.6797Z" fill="#BDBDBD"/>
<path d="M215.576 91.6914C216.442 95.3023 219.358 97.7252 220.489 101.127C222.077 105.907 221.158 112.029 221.158 116.997C224.89 116.997 228.603 116.422 232.323 116.585C234.555 116.682 237.471 117.911 239.623 117.454C240.743 117.215 241.72 116.352 242.63 115.71C242.306 114.562 242.128 113.077 241.368 112.122C239.175 109.361 234.299 109.809 231.505 107.592C228.506 105.213 229.054 102.672 228.195 99.4117C227.721 97.6111 226.863 96.1606 226.741 94.2648C224.808 94.1649 223.405 93.3354 221.588 92.8224C219.612 92.2653 217.573 92.3236 215.576 91.6914Z" fill="#BDBDBD"/>
<path d="M285.144 95.5527C282.528 99.6423 278.022 100.892 273.978 103.155C271.617 104.476 269.567 106.191 266.678 105.754C264.294 105.394 262.765 103.387 260.666 102.415C260.118 104.363 259.515 106.393 260.047 108.418C261.192 112.78 267.751 117.085 271.831 118.285C272.393 113.938 273.549 109.836 273.549 105.418C279.616 105.543 285.53 104.61 291.585 104.56C290.36 101.38 287.691 97.8113 285.144 95.5527Z" fill="#BDBDBD"/>
<path d="M258.089 101.557C256.661 103.286 254.73 104.921 252.936 106.275C253.582 108.513 254.598 110.325 254.654 112.708C256.838 112.258 258.973 111.671 261.095 110.993C259.939 107.519 260.186 105.548 260.666 101.986L258.089 101.557Z" fill="#BDBDBD"/>
<path d="M241.771 112.279C242.269 115.957 244.226 119.186 245.636 122.573C249.012 121 254.422 115.381 254.59 111.421C254.665 109.675 253.783 108.159 252.936 106.703C250.742 107.482 249.673 109.427 247.783 110.691C245.998 111.884 243.87 112.234 241.771 112.279Z" fill="#BDBDBD"/>
<path d="M264.102 142.303C266.32 142.89 268.64 143.706 270.972 143.509C276.273 143.061 278.176 137.943 278.273 133.296C276.037 132.786 273.731 131.894 271.402 132.09C266.195 132.53 264.197 137.72 264.102 142.303Z" fill="#BDBDBD"/>
<path d="M312.198 144.018C312.198 148.33 311.765 154.065 316.922 155.682C319.18 156.391 321.882 156.027 324.222 156.027C324.222 153.921 324.445 151.666 324.016 149.594C322.804 143.733 316.916 144.018 312.198 144.018Z" fill="#BDBDBD"/>
<path d="M248.642 42.7969L249.071 43.2258L248.642 42.7969Z" fill="#2F2E41"/>
<path d="M255.083 44.0849C256.81 43.8147 258.124 44.1733 259.807 44.5138C258.736 42.6829 256.329 42.166 255.083 44.0849Z" fill="#CCAB00"/>
<path d="M249.071 43.2266L249.501 43.6555L249.071 43.2266Z" fill="#2F2E41"/>
<path d="M261.095 43.6543C261.697 44.6296 262.175 44.9354 263.242 45.3699C262.819 44.1462 262.356 43.9232 261.095 43.6543Z" fill="#CCAB00"/>
<path d="M247.354 46.6578L250.36 46.2289V45.3711C248.949 45.4161 248.136 45.4492 247.354 46.6578Z" fill="#CCAB00"/>
<path d="M260.236 46.6562V47.5141C261.539 47.8718 262.492 48.6009 263.672 49.2297C263.125 47.3914 262.098 46.8643 260.236 46.6562Z" fill="#CCAB00"/>
<path d="M265.389 47.0859C265.95 48.1312 266.49 48.6703 267.537 49.2305C267.284 47.7709 266.828 47.3982 265.389 47.0859Z" fill="#CCAB00"/>
<path d="M253.365 47.5156V48.3734H255.083V47.5156H253.365Z" fill="#CCAB00"/>
<path d="M258.519 51.375C259.285 52.5197 260.312 53.2956 261.525 53.9484C261.028 52.2753 260.211 51.7198 258.519 51.375Z" fill="#CCAB00"/>
<path d="M249.071 56.0938L249.501 56.5227L249.071 56.0938Z" fill="#2F2E41"/>
<path d="M251.648 59.5234C252.277 60.4336 252.703 60.5845 253.795 60.8102C253.174 59.831 252.803 59.7027 251.648 59.5234ZM246.924 59.9523C247.452 60.7544 247.726 60.9062 248.642 61.2391C248.115 60.3662 247.91 60.2414 246.924 59.9523ZM256.371 59.9523C256.661 60.9375 256.786 61.1421 257.66 61.668C257.326 60.7535 257.174 60.4795 256.371 59.9523Z" fill="#CCAB00"/>
<path d="M243.918 60.3828V61.2406H246.065V60.3828H243.918Z" fill="#CCAB00"/>
<path d="M250.789 61.668C251.316 62.5408 251.52 62.6656 252.507 62.9547C251.98 62.0819 251.775 61.9571 250.789 61.668Z" fill="#CCAB00"/>
<path d="M255.083 63.8125C255.417 64.7269 255.568 65.001 256.371 65.5281C256.082 64.5429 255.957 64.3383 255.083 63.8125Z" fill="#CCAB00"/>
<path d="M249.071 65.0996V65.9574L252.507 67.2441C251.701 65.7095 250.775 65.2896 249.071 65.0996Z" fill="#CCAB00"/>
<path d="M215.575 66.3867L216.005 66.8156L215.575 66.3867Z" fill="#2F2E41"/>
<path d="M242.2 66.3867C242.728 67.1888 243.002 67.3406 243.918 67.6734C243.391 66.8006 243.186 66.6758 242.2 66.3867Z" fill="#CCAB00"/>
<path d="M227.599 67.6738C228.127 68.4759 228.402 68.6277 229.317 68.9606C228.791 68.0877 228.586 67.9629 227.599 67.6738Z" fill="#CCAB00"/>
<path d="M256.371 68.1016C256.94 69.254 257.364 69.6782 258.518 70.2461C258.117 68.9049 257.714 68.5022 256.371 68.1016Z" fill="#CCAB00"/>
<path d="M216.005 68.9609L216.434 69.3898L216.005 68.9609Z" fill="#2F2E41"/>
<path d="M221.587 68.9609C222.115 69.763 222.389 69.9148 223.305 70.2477C222.778 69.3748 222.573 69.25 221.587 68.9609ZM250.359 68.9609C251.028 70.1228 251.825 70.7803 252.936 71.5344C252.66 69.8441 252.022 69.3071 250.359 68.9609Z" fill="#CCAB00"/>
<path d="M245.636 70.2461C246.134 71.0957 246.516 71.4213 247.353 71.9617C246.993 70.835 246.764 70.6059 245.636 70.2461Z" fill="#CCAB00"/>
<path d="M227.6 71.5332C228.189 72.6256 228.552 72.9005 229.747 73.2488C229.157 72.1564 228.794 71.8815 227.6 71.5332ZM261.095 71.5332L261.525 74.1066H262.384C262.289 72.8173 262.188 72.2345 261.095 71.5332Z" fill="#CCAB00"/>
<path d="M215.575 72.3906V73.6773H217.293V72.3906H215.575ZM222.446 72.8195C223.075 73.6636 223.565 73.8283 224.593 74.1062C223.972 73.127 223.601 72.9988 222.446 72.8195Z" fill="#CCAB00"/>
<path d="M254.224 73.25C254.654 74.0752 254.687 74.1499 255.512 74.5367C255.305 73.5228 255.239 73.4567 254.224 73.25Z" fill="#CCAB00"/>
<path d="M264.53 75.8223L264.96 76.2512L264.53 75.8223Z" fill="#2F2E41"/>
<path d="M269.254 75.8223L269.684 76.2512L269.254 75.8223Z" fill="#2F2E41"/>
<path d="M217.722 76.252V77.5387H219.44V76.252H217.722Z" fill="#CCAB00"/>
<path d="M270.113 76.252L270.543 76.6808L270.113 76.252Z" fill="#2F2E41"/>
<path d="M228.888 76.6797L229.317 78.3953H230.176L230.605 77.9664V77.1086L228.888 76.6797Z" fill="#CCAB00"/>
<path d="M236.617 76.6797L237.047 77.1086L236.617 76.6797Z" fill="#2F2E41"/>
<path d="M273.549 77.1094L273.978 77.5383L273.549 77.1094Z" fill="#2F2E41"/>
<path d="M272.26 77.5391L272.69 77.968L272.26 77.5391Z" fill="#2F2E41"/>
<path d="M266.678 77.9668V79.2535L269.684 80.1113C268.961 78.6766 268.266 78.213 266.678 77.9668Z" fill="#CCAB00"/>
<path d="M239.623 78.3965L240.053 78.8254L239.623 78.3965Z" fill="#2F2E41"/>
<path d="M275.696 78.3965C276.056 79.5232 276.285 79.7523 277.414 80.1121C276.918 79.1475 276.662 78.8914 275.696 78.3965Z" fill="#CCAB00"/>
<path d="M281.708 78.3965L282.137 78.8254L281.708 78.3965Z" fill="#2F2E41"/>
<path d="M240.912 79.2539L241.342 79.6828L240.912 79.2539Z" fill="#2F2E41"/>
<path d="M272.689 79.2539C273.198 80.4801 273.571 80.9832 274.837 81.3984C274.429 80.0903 273.976 79.7205 272.689 79.2539Z" fill="#CCAB00"/>
<path d="M226.74 79.6836C227.251 80.8447 227.675 81.4276 228.888 81.8282C228.487 80.4869 228.083 80.0842 226.74 79.6836ZM258.519 79.6836C258.983 80.5933 259.325 80.9356 260.236 81.3992C259.876 80.2729 259.646 80.0435 258.519 79.6836Z" fill="#CCAB00"/>
<path d="M220.729 80.1113C221.115 81.0223 221.105 81.0124 222.017 81.398C221.81 80.3841 221.744 80.3181 220.729 80.1113Z" fill="#CCAB00"/>
<path d="M242.2 80.1113L242.63 80.5402L242.2 80.1113Z" fill="#2F2E41"/>
<path d="M242.63 80.541L243.059 80.9699L242.63 80.541Z" fill="#2F2E41"/>
<path d="M241.341 82.6855L241.77 83.1144L241.341 82.6855Z" fill="#2F2E41"/>
<path d="M276.555 82.6855C277.065 83.8466 277.49 84.4295 278.702 84.8301C278.295 83.5219 277.842 83.1522 276.555 82.6855Z" fill="#CCAB00"/>
<path d="M237.047 83.1133L237.476 83.5422L237.047 83.1133ZM242.2 83.1133L242.63 83.5422L242.2 83.1133Z" fill="#2F2E41"/>
<path d="M271.831 83.1133C272.308 84.4472 273.092 84.7912 274.408 85.2578C273.761 83.9659 273.222 83.51 271.831 83.1133Z" fill="#CCAB00"/>
<path d="M263.672 83.543C264.2 84.345 264.474 84.4969 265.39 84.8297C264.863 83.9569 264.658 83.8321 263.672 83.543Z" fill="#CCAB00"/>
<path d="M248.642 83.9727C249.373 85.3258 250.237 85.9435 251.648 86.5461C250.938 85.0724 250.221 84.4191 248.642 83.9727Z" fill="#FFD600"/>
<path d="M237.047 86.5445L240.053 86.1156V85.2578C238.642 85.3028 237.83 85.3359 237.047 86.5445Z" fill="#FFD600"/>
<path d="M224.164 85.6875C224.55 86.5985 224.54 86.5886 225.452 86.9742C225.066 86.0632 225.076 86.0731 224.164 85.6875Z" fill="#CCAB00"/>
<path d="M270.113 86.9746V88.2613L273.978 89.9769C273.133 88.1875 272.087 87.2791 270.113 86.9746ZM275.696 86.9746C276.365 88.1365 277.161 88.794 278.272 89.548C277.827 88.0078 277.238 87.4198 275.696 86.9746Z" fill="#CCAB00"/>
<path d="M259.807 87.4023C260.678 88.8044 262.154 89.3774 263.672 89.9758C262.811 88.1915 261.774 87.5507 259.807 87.4023ZM265.389 87.8312C265.854 88.7409 266.196 89.0832 267.107 89.5469C266.747 88.4201 266.517 88.1911 265.389 87.8312Z" fill="#CCAB00"/>
<path d="M240.912 88.6895C241.437 89.4327 241.775 89.612 242.63 89.9762C242.382 88.819 242.088 88.78 240.912 88.6895ZM248.642 88.6895C249.106 89.5992 249.449 89.9414 250.36 90.4051C249.993 89.3221 249.712 89.1055 248.642 88.6895Z" fill="#FFD600"/>
<path d="M281.278 90.834C281.612 91.7484 281.764 92.0225 282.567 92.5496C282.277 91.5644 282.152 91.3598 281.278 90.834Z" fill="#CCAB00"/>
<path d="M270.113 92.5508C270.823 93.9228 271.63 94.6803 273.119 95.1242C272.409 93.6505 271.693 92.9973 270.113 92.5508Z" fill="#CCAB00"/>
<path d="M231.464 93.4062C232.085 94.3854 232.456 94.5137 233.611 94.693V93.4062H231.464ZM240.053 93.4062V94.2641L242.629 95.1219C242.157 93.6975 241.517 93.5191 240.053 93.4062ZM247.782 93.4062C248.278 94.3709 248.534 94.6269 249.5 95.1219C249.005 94.1573 248.748 93.9012 247.782 93.4062Z" fill="#FFD600"/>
<path d="M272.689 103.701L273.119 104.13L272.689 103.701Z" fill="#FFD600"/>
<path d="M263.672 104.559L264.101 104.988L263.672 104.559ZM271.401 104.559L271.831 104.988L271.401 104.559Z" fill="#FFD600"/>
<path d="M239.194 110.564L239.624 110.993L239.194 110.564Z" fill="#2F2E41"/>
<path d="M66.3426 72.0449C65.8533 66.4408 62.7748 56.3547 55.1777 59.6452C54.2523 60.0458 53.4286 60.6806 52.7313 61.4016C49.7953 64.4378 49.6341 68.9726 50.3694 72.9027C51.6675 79.8411 54.37 85.98 57.6598 92.2034C58.9688 94.6795 60.4508 97.2117 62.0884 99.4862C62.9709 100.712 63.9685 101.61 65.4841 100.802C68.0011 99.4609 70.3058 96.5212 72.0901 94.3479C77.1798 88.1494 82.1706 80.418 83.8587 72.4738C84.2624 70.5755 84.4969 68.732 83.6689 66.898C81.8516 62.8719 76.8658 61.6011 73.2303 63.9575C70.1753 65.9377 68.9535 69.655 66.3426 72.0449Z" fill="#FFF176"/>
<path d="M88.6729 107.215C94.514 107.215 100.181 105.61 105.421 103.03C107.559 101.977 110.055 100.838 111.582 98.9369C113.573 96.4578 113.02 92.1212 109.713 91.1621C107.043 90.3871 104.364 91.5207 101.985 92.632C102.602 89.9672 104.537 86.3996 103.444 83.6486C101.64 79.1091 95.2561 82.2675 93.4417 84.9182C89.1491 91.1892 88.6729 99.874 88.6729 107.215Z" fill="#FFF9C4"/>
<path d="M266.21 207.071C266.882 205.812 267.423 204.5 268.037 203.211C270.588 197.853 275.308 187.214 267.498 183.967C266.424 183.521 265.216 183.25 264.063 183.127C262.548 182.964 260.842 182.93 259.339 183.193C254.9 183.972 251.283 188.093 248.891 191.63C243.089 200.212 240.893 210.388 238.898 220.367C238.143 224.14 237.304 228.106 237.047 231.947C236.94 233.542 236.852 235.331 238.751 235.71C241.655 236.288 244.844 235.629 247.744 235.417C257.308 234.716 267.387 231.308 276.087 227.36C279.832 225.66 284.4 223.633 287.023 220.35C291.368 214.913 289.116 205.904 282.099 204.295C276.874 203.098 271.081 205.488 266.21 207.071Z" fill="#FFF9C4"/>
<path d="M299.276 243.528C306.937 246.475 315.625 247.389 323.754 246.603C326.541 246.333 329.786 246.392 332.336 245.049C336.212 243.006 336.958 236.925 333.193 234.404C330.518 232.613 326.404 232.805 323.324 232.805C325.473 229.759 329.324 227.249 330.049 223.369C331.348 216.413 321.973 216.054 317.742 218.373C311.275 221.918 306.645 229.21 302.971 235.378C301.481 237.88 299.791 240.64 299.276 243.528Z" fill="#FFF176"/>
<path d="M133.196 268.999H47.627C52.5873 261.219 63.6355 243.585 65.5086 237.98C66.7584 234.24 69.7618 227.299 72.9432 219.947C75.9454 213.009 79.1061 205.705 81.1013 200.378C84.1069 192.685 93.7956 179.006 108.506 185.833C123.457 192.771 124.66 212.629 125.857 232.388C126.132 236.929 126.406 241.464 126.848 245.836C127.7 254.282 130.318 262.296 133.196 268.999Z" fill="#F5F5F5"/>
</g>
<defs>
<clipPath id="clip0_2281_76222">
<rect width="356" height="269" fill="white"/>
</clipPath>
</defs>
</svg>
