<svg width="29" height="29" viewBox="0 0 29 29" fill="none" xmlns="http://www.w3.org/2000/svg">
<path fill-rule="evenodd" clip-rule="evenodd" d="M18.447 2.4021H10.57C6.67989 2.4021 3.52638 5.53909 3.52638 9.40877C3.52638 13.2784 6.67989 16.4154 10.57 16.4154H22.2216L20.7873 11.0904H10.57C9.63634 11.0904 8.8795 10.3375 8.8795 9.40877C8.8795 8.48004 9.63634 7.72717 10.57 7.72717H19.8814L18.447 2.4021ZM23.1349 19.8058H9.16124C6.62416 19.8058 4.40037 18.4714 3.16039 16.4697C3.0313 17.0002 2.96289 17.5542 2.96289 18.1242C2.96289 21.9939 6.11641 25.1308 10.0065 25.1308H24.5692L23.1349 19.8058Z" fill="#FFD600"/>
</svg>
