<svg width="24" height="24" viewBox="0 0 24 24" fill="none" xmlns="http://www.w3.org/2000/svg">
<path d="M0 2C0 0.89543 0.895431 0 2 0H22C23.1046 0 24 0.895431 24 2V22C24 23.1046 23.1046 24 22 24H2C0.89543 24 0 23.1046 0 22V2Z" fill="#BDBDBD"/>
<path d="M20.1456 6.3473C19.8953 6.10646 19.4894 6.10646 19.2391 6.3473L8.84807 16.3445L4.76098 12.4123C4.51068 12.1714 4.10479 12.1714 3.85443 12.4123C3.60411 12.6531 3.60411 13.0436 3.85443 13.2844L8.39485 17.6528C8.64508 17.8935 9.0511 17.8936 9.30139 17.6528L20.1456 7.21949C20.3959 6.97862 20.3959 6.58814 20.1456 6.3473Z" fill="white"/>
</svg>


