<svg width="152" height="44" viewBox="0 0 152 44" fill="none" xmlns="http://www.w3.org/2000/svg">
<g clip-path="url(#clip0_8424_42709)">
<g clip-path="url(#clip1_8424_42709)">
<rect width="44" height="44" rx="11.8148" fill="#2E2E33"/>
<path fill-rule="evenodd" clip-rule="evenodd" d="M26.447 10.4021H18.57C14.6799 10.4021 11.5264 13.5391 11.5264 17.4088C11.5264 21.2784 14.6799 24.4154 18.57 24.4154H30.2216L28.7873 19.0904H18.57C17.6363 19.0904 16.8795 18.3375 16.8795 17.4088C16.8795 16.48 17.6363 15.7272 18.57 15.7272H27.8814L26.447 10.4021ZM31.1349 27.8058H17.1612C14.6242 27.8058 12.4004 26.4714 11.1604 24.4697C11.0313 25.0002 10.9629 25.5542 10.9629 26.1242C10.9629 29.9939 14.1164 33.1308 18.0065 33.1308H32.5692L31.1349 27.8058Z" fill="#FFD600"/>
</g>
<path d="M60.427 18.265V20.963H64.778V23.471H60.427V26.397H65.348V29H57.178V15.662H65.348V18.265H60.427ZM67.0013 23.68C67.0013 22.5907 67.204 21.6343 67.6093 20.811C68.0273 19.9877 68.591 19.3543 69.3003 18.911C70.0096 18.4677 70.8013 18.246 71.6753 18.246C72.4226 18.246 73.075 18.398 73.6323 18.702C74.2023 19.006 74.6393 19.405 74.9433 19.899V18.398H78.1923V29H74.9433V27.499C74.6266 27.993 74.1833 28.392 73.6133 28.696C73.056 29 72.4036 29.152 71.6563 29.152C70.795 29.152 70.0096 28.9303 69.3003 28.487C68.591 28.031 68.0273 27.3913 67.6093 26.568C67.204 25.732 67.0013 24.7693 67.0013 23.68ZM74.9433 23.699C74.9433 22.8883 74.7153 22.2487 74.2593 21.78C73.816 21.3113 73.2713 21.077 72.6253 21.077C71.9793 21.077 71.4283 21.3113 70.9723 21.78C70.529 22.236 70.3073 22.8693 70.3073 23.68C70.3073 24.4907 70.529 25.1367 70.9723 25.618C71.4283 26.0867 71.9793 26.321 72.6253 26.321C73.2713 26.321 73.816 26.0867 74.2593 25.618C74.7153 25.1493 74.9433 24.5097 74.9433 23.699ZM85.0458 29.152C84.1211 29.152 83.2978 28.9937 82.5758 28.677C81.8538 28.3603 81.2838 27.9297 80.8658 27.385C80.4478 26.8277 80.2135 26.207 80.1628 25.523H83.3738C83.4118 25.8903 83.5828 26.188 83.8868 26.416C84.1908 26.644 84.5645 26.758 85.0078 26.758C85.4131 26.758 85.7235 26.682 85.9388 26.53C86.1668 26.3653 86.2808 26.1563 86.2808 25.903C86.2808 25.599 86.1225 25.3773 85.8058 25.238C85.4891 25.086 84.9761 24.9213 84.2668 24.744C83.5068 24.5667 82.8735 24.383 82.3668 24.193C81.8601 23.9903 81.4231 23.68 81.0558 23.262C80.6885 22.8313 80.5048 22.255 80.5048 21.533C80.5048 20.925 80.6695 20.374 80.9988 19.88C81.3408 19.3733 81.8348 18.9743 82.4808 18.683C83.1395 18.3917 83.9185 18.246 84.8178 18.246C86.1478 18.246 87.1928 18.5753 87.9528 19.234C88.7255 19.8927 89.1688 20.7667 89.2828 21.856H86.2808C86.2301 21.4887 86.0655 21.1973 85.7868 20.982C85.5208 20.7667 85.1661 20.659 84.7228 20.659C84.3428 20.659 84.0515 20.735 83.8488 20.887C83.6461 21.0263 83.5448 21.2227 83.5448 21.476C83.5448 21.78 83.7031 22.008 84.0198 22.16C84.3491 22.312 84.8558 22.464 85.5398 22.616C86.3251 22.8187 86.9648 23.0213 87.4588 23.224C87.9528 23.414 88.3835 23.7307 88.7508 24.174C89.1308 24.6047 89.3271 25.1873 89.3398 25.922C89.3398 26.5427 89.1625 27.1 88.8078 27.594C88.4658 28.0753 87.9655 28.4553 87.3068 28.734C86.6608 29.0127 85.9071 29.152 85.0458 29.152ZM102.348 18.398L95.6975 34.035H92.2015L94.6335 28.639L90.3205 18.398H93.9495L96.4005 25.029L98.8325 18.398H102.348ZM105.726 20.526C106.081 19.9053 106.6 19.3987 107.284 19.006C107.968 18.6133 108.747 18.417 109.621 18.417C110.559 18.417 111.401 18.6387 112.148 19.082C112.896 19.5253 113.485 20.1523 113.915 20.963C114.346 21.761 114.561 22.692 114.561 23.756C114.561 24.8073 114.346 25.7447 113.915 26.568C113.485 27.3913 112.889 28.031 112.129 28.487C111.382 28.943 110.546 29.171 109.621 29.171C108.722 29.171 107.93 28.9747 107.246 28.582C106.575 28.1893 106.068 27.689 105.726 27.081V29H103.997V14.94H105.726V20.526ZM112.794 23.756C112.794 22.9707 112.636 22.2867 112.319 21.704C112.003 21.1213 111.572 20.678 111.027 20.374C110.495 20.07 109.906 19.918 109.26 19.918C108.627 19.918 108.038 20.0763 107.493 20.393C106.961 20.697 106.531 21.1467 106.201 21.742C105.885 22.3247 105.726 23.0023 105.726 23.775C105.726 24.5603 105.885 25.2507 106.201 25.846C106.531 26.4287 106.961 26.8783 107.493 27.195C108.038 27.499 108.627 27.651 109.26 27.651C109.906 27.651 110.495 27.499 111.027 27.195C111.572 26.8783 112.003 26.4287 112.319 25.846C112.636 25.2507 112.794 24.554 112.794 23.756ZM116.381 23.756C116.381 22.692 116.597 21.761 117.027 20.963C117.458 20.1523 118.047 19.5253 118.794 19.082C119.554 18.6387 120.397 18.417 121.321 18.417C122.233 18.417 123.025 18.6133 123.696 19.006C124.368 19.3987 124.868 19.8927 125.197 20.488V18.588H126.945V29H125.197V27.062C124.855 27.67 124.342 28.1767 123.658 28.582C122.987 28.9747 122.202 29.171 121.302 29.171C120.378 29.171 119.542 28.943 118.794 28.487C118.047 28.031 117.458 27.3913 117.027 26.568C116.597 25.7447 116.381 24.8073 116.381 23.756ZM125.197 23.775C125.197 22.9897 125.039 22.3057 124.722 21.723C124.406 21.1403 123.975 20.697 123.43 20.393C122.898 20.0763 122.309 19.918 121.663 19.918C121.017 19.918 120.428 20.07 119.896 20.374C119.364 20.678 118.94 21.1213 118.623 21.704C118.307 22.2867 118.148 22.9707 118.148 23.756C118.148 24.554 118.307 25.2507 118.623 25.846C118.94 26.4287 119.364 26.8783 119.896 27.195C120.428 27.499 121.017 27.651 121.663 27.651C122.309 27.651 122.898 27.499 123.43 27.195C123.975 26.8783 124.406 26.4287 124.722 25.846C125.039 25.2507 125.197 24.5603 125.197 23.775ZM135.13 18.398C136.397 18.398 137.423 18.7843 138.208 19.557C138.993 20.317 139.386 21.419 139.386 22.863V29H137.676V23.11C137.676 22.0713 137.416 21.2797 136.897 20.735C136.378 20.1777 135.668 19.899 134.769 19.899C133.857 19.899 133.129 20.184 132.584 20.754C132.052 21.324 131.786 22.1537 131.786 23.243V29H130.057V18.588H131.786V20.07C132.128 19.538 132.59 19.1263 133.173 18.835C133.768 18.5437 134.421 18.398 135.13 18.398ZM148.214 29L144.129 24.402V29H142.4V14.94H144.129V23.205L148.138 18.588H150.551L145.649 23.775L150.57 29H148.214Z" fill="white"/>
</g>
<defs>
<clipPath id="clip0_8424_42709">
<rect width="152" height="44" fill="white"/>
</clipPath>
<clipPath id="clip1_8424_42709">
<rect width="44" height="44" fill="white"/>
</clipPath>
</defs>
</svg>
