<svg width="48" height="64" viewBox="0 0 48 64" fill="none" xmlns="http://www.w3.org/2000/svg">
<path d="M48 24C48 34.925 33.375 54.375 26.9625 62.4C25.425 64.3125 22.575 64.3125 21.0375 62.4C14.5125 54.375 0 34.925 0 24C0 10.745 10.745 0 24 0C37.25 0 48 10.745 48 24Z" fill="#FFD600"/>
<circle cx="24" cy="24" r="18.5" fill="white" stroke="#FFD600" stroke-width="3"/>
<g clip-path="url(#clip0_934_27944)">
<path d="M32 16H16C14.89 16 14.01 16.89 14.01 18L14 30C14 31.11 14.89 32 16 32H32C33.11 32 34 31.11 34 30V18C34 16.89 33.11 16 32 16ZM32 30H16V24H32V30ZM32 20H16V18H32V20Z" fill="#212529"/>
</g>
<defs>
<clipPath id="clip0_934_27944">
<rect width="24" height="24" fill="white" transform="translate(12 12)"/>
</clipPath>
</defs>
</svg>
