<svg width="24" height="24" viewBox="0 0 24 24" fill="none" xmlns="http://www.w3.org/2000/svg">
<g clip-path="url(#clip0_14674_86205)">
<path d="M15.1388 1H7.58328C6.27995 1 5.22217 2.12 5.22217 3.5V20.5C5.22217 21.88 6.27995 23 7.58328 23H15.1388C16.4422 23 17.4999 21.88 17.4999 20.5V3.5C17.4999 2.12 16.4422 1 15.1388 1ZM11.3611 22C10.5772 22 9.94439 21.33 9.94439 20.5C9.94439 19.67 10.5772 19 11.3611 19C12.1449 19 12.7777 19.67 12.7777 20.5C12.7777 21.33 12.1449 22 11.3611 22ZM15.6111 18H7.11106V4H15.6111V18Z" fill="#212529"/>
</g>
<defs>
<clipPath id="clip0_14674_86205">
<rect width="22.6667" height="24" fill="white" transform="translate(0.5)"/>
</clipPath>
</defs>
</svg>
