<svg width="33" height="32" viewBox="0 0 33 32" fill="none" xmlns="http://www.w3.org/2000/svg">
<g clip-path="url(#clip0_22107_59183)">
<path d="M16.5013 2.66602C11.3413 2.66602 7.16797 6.83935 7.16797 11.9993C7.16797 18.9993 16.5013 29.3327 16.5013 29.3327C16.5013 29.3327 25.8346 18.9993 25.8346 11.9993C25.8346 6.83935 21.6613 2.66602 16.5013 2.66602ZM9.83464 11.9993C9.83464 8.31935 12.8213 5.33268 16.5013 5.33268C20.1813 5.33268 23.168 8.31935 23.168 11.9993C23.168 15.8393 19.328 21.586 16.5013 25.1727C13.728 21.6127 9.83464 15.7993 9.83464 11.9993Z" fill="white"/>
<path d="M16.5013 15.3327C18.3423 15.3327 19.8346 13.8403 19.8346 11.9993C19.8346 10.1584 18.3423 8.66602 16.5013 8.66602C14.6604 8.66602 13.168 10.1584 13.168 11.9993C13.168 13.8403 14.6604 15.3327 16.5013 15.3327Z" fill="white"/>
</g>
<defs>
<clipPath id="clip0_22107_59183">
<rect width="32" height="32" fill="white" transform="translate(0.5)"/>
</clipPath>
</defs>
</svg>
