<svg width="33" height="33" viewBox="0 0 33 33" fill="none" xmlns="http://www.w3.org/2000/svg">
<path d="M32.3334 14.734C32.3334 13.7739 31.6934 13.134 30.7334 13.134H25.9334V1.93398C25.9334 0.973927 25.2934 0.333984 24.3334 0.333984H1.93337C0.973317 0.333984 0.333374 0.973927 0.333374 1.93398V17.934C0.333374 18.894 0.973317 19.534 1.93337 19.534H6.73338V30.734C6.73338 31.694 7.37332 32.334 8.33337 32.334H30.7334C31.6934 32.334 32.3334 31.694 32.3334 30.734V14.734ZM24.3334 29.134V24.334H29.1334V29.134H24.3334ZM22.7334 3.53398V6.73399H3.53337V3.53398H22.7334ZM3.53337 16.334V9.93399H22.7334V13.134H8.33337C7.37332 13.134 6.73338 13.7739 6.73338 14.734V16.334H3.53337ZM9.93338 16.334H29.1334V21.134H22.7334C21.7733 21.134 21.1334 21.7739 21.1334 22.734V29.134H9.93338V16.334Z" fill="#616161"/>
</svg>
