<svg width="33" height="32" viewBox="0 0 33 32" fill="none" xmlns="http://www.w3.org/2000/svg">
<g clip-path="url(#clip0_22107_59189)">
<path d="M16.5013 2.66602C9.1413 2.66602 3.16797 8.63935 3.16797 15.9993C3.16797 23.3594 9.1413 29.3327 16.5013 29.3327C23.8613 29.3327 29.8346 23.3594 29.8346 15.9993C29.8346 8.63935 23.8613 2.66602 16.5013 2.66602ZM16.5013 26.666C10.6213 26.666 5.83464 21.8793 5.83464 15.9993C5.83464 10.1193 10.6213 5.33268 16.5013 5.33268C22.3813 5.33268 27.168 10.1193 27.168 15.9993C27.168 21.8793 22.3813 26.666 16.5013 26.666ZM16.9146 14.8527C14.5546 14.2527 13.7946 13.5993 13.7946 12.626C13.7946 11.506 14.848 10.7193 16.5946 10.7193C18.4346 10.7193 19.128 11.5993 19.1813 12.906H21.4613C21.3946 11.1193 20.3013 9.47935 18.1413 8.94602V6.66602H15.0346V8.91935C13.0213 9.34602 11.408 10.6527 11.408 12.666C11.408 15.0527 13.3946 16.2527 16.288 16.946C18.888 17.5593 19.408 18.4793 19.408 19.4394C19.408 20.146 18.888 21.2927 16.608 21.2927C14.4746 21.2927 13.6346 20.3327 13.5146 19.106H11.2213C11.3546 21.3727 13.0346 22.6527 15.0346 23.066V25.3327H18.1546V23.106C20.1813 22.7193 21.7813 21.5594 21.7946 19.4127C21.7813 16.4794 19.2613 15.466 16.9146 14.8527Z" fill="white"/>
</g>
<defs>
<clipPath id="clip0_22107_59189">
<rect width="32" height="32" fill="white" transform="translate(0.5)"/>
</clipPath>
</defs>
</svg>
