<svg width="328" height="262" viewBox="0 0 328 262" fill="none" xmlns="http://www.w3.org/2000/svg">
<g clip-path="url(#clip0_19284_125457)">
<path d="M276.427 250.852C277.718 250.932 278.431 249.324 277.454 248.388L277.357 248C277.369 247.97 277.382 247.939 277.395 247.908C278.165 246.066 280.287 245.194 282.128 245.957C287.951 248.369 281.803 253.912 282.266 257.663C282.428 258.958 287.489 259.029 287.202 260.299C289.893 254.404 291.308 247.966 291.306 241.493C291.306 239.867 291.216 238.24 291.034 236.618C290.884 235.291 290.678 233.972 290.411 232.666C288.967 225.602 285.843 218.875 281.339 213.257C279.175 212.072 280.495 210.219 279.404 207.998C279.012 207.197 275.517 207.179 275.371 206.302C275.528 206.322 277.787 203.971 277.041 202.808C276.549 202.043 276.702 201.069 277.333 200.415C277.395 200.351 277.453 200.284 277.507 200.211C279.371 197.678 281.939 198.119 283.282 201.56C286.147 203.008 286.175 205.41 284.418 207.721C283.3 209.192 283.148 211.181 282.167 212.755C282.268 212.885 282.373 213.01 282.474 213.139C284.326 215.518 285.928 218.074 287.278 220.76C286.896 217.775 287.458 214.178 288.417 211.859C289.517 209.198 291.586 206.959 293.399 204.658C295.564 201.909 299.969 203.156 300.352 206.637C300.356 206.67 300.36 206.703 300.363 206.737C300.095 206.889 299.832 207.05 299.576 207.22C298.114 208.189 298.62 210.461 300.354 210.728L300.393 210.734C300.296 211.701 296.872 214.747 296.63 215.69C298.946 224.653 297.213 225.836 290.087 225.986L289.713 226.52C290.388 228.465 290.931 230.457 291.339 232.475C291.724 234.348 291.991 236.241 292.141 238.143C292.327 240.542 292.312 242.953 292.111 245.348L292.123 245.263C292.635 242.625 294.064 240.161 296.138 238.453C299.229 235.907 303.597 234.969 306.932 232.922C308.537 231.937 310.595 233.208 310.315 235.074L310.302 235.163C309.805 235.365 309.321 235.6 308.853 235.863C308.584 236.015 308.321 236.176 308.065 236.347C306.602 237.317 307.109 239.588 308.843 239.855L308.882 239.861C308.91 239.865 308.935 239.869 308.963 239.873C308.112 241.9 300.001 244.759 298.516 246.382C297.071 254.211 297.781 253.978 291.132 251.701H291.128C290.402 254.873 289.342 257.972 287.978 260.926L276.712 260.93C276.672 260.804 276.635 260.675 276.599 260.55C277.641 260.614 278.691 260.553 279.716 260.362C278.88 259.335 278.044 258.3 277.208 257.272C277.188 257.252 277.171 257.232 277.155 257.212L277.142 257.196L275.983 253.37C276.074 252.522 276.224 251.68 276.426 250.852L276.427 250.852V250.852V250.852Z" fill="#F2F2F2"/>
<path d="M157.378 260.839L57.6922 260.874C52.6842 260.875 48.1983 258.282 45.6928 253.938C44.4399 251.765 43.8133 249.382 43.8125 246.998C43.8117 244.614 44.4369 242.23 45.688 240.057L95.499 149.2C98.0018 144.853 102.486 142.258 107.494 142.256C112.502 142.254 116.988 144.847 119.494 149.192L169.374 240.026C170.623 242.192 171.248 244.573 171.249 246.955C171.248 249.338 170.624 251.721 169.372 253.895C166.87 258.241 162.385 260.837 157.378 260.839H157.378H157.378ZM45.0656 246.996C45.0654 249.166 56.0653 244.491 57.2049 246.467C59.4844 250.42 53.1356 259.622 57.6918 259.621C57.6918 259.621 166.012 257.223 168.289 253.269C169.427 251.292 169.996 249.123 169.995 246.954C169.995 244.786 169.424 242.617 168.285 240.641L118.404 149.807C116.131 145.866 112.051 143.507 107.494 143.509C102.94 143.51 45.0657 244.826 45.0655 246.996H45.0656Z" fill="#3F3D56"/>
<path d="M158.485 259.587C157.235 262.093 215.757 261.323 216.449 261.323C216.449 261.323 232.898 260.959 233.244 260.358C233.417 260.058 233.503 259.728 233.503 259.399C233.503 259.07 233.416 258.741 233.243 258.44L225.669 244.647C225.324 244.048 224.704 243.69 224.012 243.69C223.983 243.69 223.941 243.716 223.886 243.765C213.781 252.813 201.329 258.794 187.779 258.996C173.371 259.21 158.564 259.428 158.485 259.587H158.485Z" fill="#3F3D56"/>
<path d="M4.67937e-08 261.253C0.000143832 261.667 0.331607 261.999 0.744228 261.999L327.256 261.885C327.669 261.885 328 261.553 328 261.14C328 260.726 327.668 260.394 327.256 260.395L0.743716 260.508C0.331095 260.508 -0.000143739 260.84 4.67936e-08 261.253H4.67937e-08Z" fill="#CCCCCC"/>
<path d="M252.485 257.637L246.83 257.638L244.133 235.786L252.478 235.784L252.485 257.637Z" fill="#A0616A"/>
<path d="M233.112 257.516C232.936 257.813 232.844 258.772 232.844 259.117C232.844 260.179 233.704 261.04 234.764 261.04L252.274 261.033C252.997 261.033 253.583 260.446 253.583 259.721L253.583 258.991C253.583 258.991 254.448 256.795 252.664 254.09C252.664 254.09 250.448 256.209 247.135 252.892L246.158 251.119L239.089 256.303L235.17 256.787C234.313 256.893 233.553 256.771 233.112 257.516H233.112Z" fill="#2F2E41"/>
<path d="M230.802 238.946L225.446 240.762L215.906 220.926L223.811 218.246L230.802 238.946Z" fill="#A0616A"/>
<path d="M212.413 245.046C212.341 245.384 212.56 246.322 212.67 246.649C213.01 247.655 214.099 248.195 215.103 247.854L231.69 242.229C232.375 241.997 232.742 241.252 232.51 240.566L232.277 239.874C232.277 239.874 232.395 237.516 229.839 235.526C229.839 235.526 228.418 238.245 224.219 236.165L222.726 234.8L217.687 241.978L214.13 243.695C213.351 244.071 212.592 244.199 212.413 245.046L212.413 245.046Z" fill="#2F2E41"/>
<path d="M222.071 112.179L211.104 148.573L198.156 181.309L218.654 228.058L226.254 224.671L217.16 181.725L236.232 152.584L245.132 243.555L252.733 243.13L263.042 133.322L264.512 109.414L222.071 112.179Z" fill="#2F2E41"/>
<path d="M255.194 31.5605L239.147 34.5281L237.883 41.7219L228.172 46.3797L223.122 99.2737C223.122 99.2737 214.68 110.278 221.438 113.661L264.512 109.415C264.512 109.415 266.62 101.591 264.509 100.849C262.397 100.106 262.39 81.4183 262.39 81.4183L272.09 42.9794L257.73 37.9067L255.194 31.5605Z" fill="#E6E6E6"/>
<path d="M245.731 31.4202C252.888 31.4202 258.689 25.6073 258.689 18.4366C258.689 11.266 252.888 5.45312 245.731 5.45312C238.575 5.45312 232.773 11.266 232.773 18.4366C232.773 25.6073 238.575 31.4202 245.731 31.4202Z" fill="#A0616A"/>
<path d="M254.312 20.3653C253.278 20.9325 254.259 23.6405 253.612 23.8746C252.865 24.1452 250.142 21.0389 250.108 17.5595C250.098 16.5065 250.34 16.0008 250.107 14.7523C249.803 13.1191 248.869 11.1928 248.005 11.2439C247.492 11.2742 246.992 12.0001 246.954 12.6479C246.902 13.5558 247.782 13.9132 247.656 14.4022C247.414 15.3337 243.718 15.9768 242.402 14.404C241.371 13.171 242.162 11.0061 241.701 10.8952C241.361 10.8135 240.996 12.0054 239.6 13.3523C239.074 13.8597 238.292 14.6144 237.849 14.4056C237.209 14.1039 237.674 11.9776 237.498 11.9494C237.353 11.926 237.261 13.4206 236.449 14.757C235.405 16.4739 233.252 17.7973 232.247 17.2148C231.631 16.8579 231.583 15.8643 231.546 15.1096C231.468 13.5197 229.162 9.86271 229.759 8.16193C230.973 4.70032 233.053 7.14043 233.994 5.9852C235.268 4.42131 236.411 5.26214 238.546 3.52728C240.632 1.8325 240.65 0.1291 242.047 0.0170014C243.305 -0.0839473 243.752 1.26056 245.199 1.06863C246.425 0.906034 246.692 -0.136771 247.651 0.0150534C248.528 0.154049 248.586 1.0727 249.752 1.41795C250.497 1.63836 250.66 1.31934 251.503 1.41734C253.257 1.62127 254.435 3.22186 254.656 3.52169C255.507 4.67754 255.177 5.16496 256.058 6.32844C256.818 7.33179 258.502 6.90572 259.135 7.40685C261.204 9.04428 262.093 12.064 262.11 15.5058C262.123 17.9131 261.81 19.1294 261.111 22.1678C260.58 24.4751 258.121 27.4567 256.766 28.7862C256.402 29.1431 255.382 30.1436 254.665 29.8396C253.986 29.5516 253.965 28.2564 253.964 28.0854C253.961 27.4972 254.117 26.7694 255.364 24.9267C256.673 22.9911 257.193 22.7702 257.114 22.1189C256.974 20.9674 255.136 19.9132 254.312 20.3653H254.312Z" fill="#2F2E41"/>
<path d="M209.112 141.413C208.708 144.797 210.124 147.749 212.273 148.006C214.422 148.263 216.492 145.728 216.895 142.344C217.071 140.862 216.899 139.464 216.47 138.338L217.999 123.977L211.258 123.401L210.466 137.62C209.784 138.613 209.288 139.931 209.112 141.413H209.112H209.112Z" fill="#A0616A"/>
<path d="M228.489 46.0371C228.489 46.0371 224.996 46.0869 222.684 50.6121C221.455 53.0168 214.88 97.9844 214.88 97.9844L208.824 134.821L219.141 134.873L227.179 99.988L233.942 79.7551L228.489 46.0371L228.489 46.0371Z" fill="#E6E6E6"/>
<path d="M257.519 136.009C256.531 139.27 257.409 142.424 259.481 143.054C261.552 143.684 264.032 141.551 265.02 138.29C265.452 136.862 265.527 135.455 265.301 134.271L269.314 120.4L262.777 118.651L259.515 132.512C258.67 133.37 257.951 134.581 257.519 136.009V136.009Z" fill="#A0616A"/>
<path d="M264.701 43.6164C264.701 43.6164 269.767 39.8064 273.992 45.7289C278.217 51.6513 279.923 100.312 279.923 100.312L268.109 130.358L259.24 127.4L267.673 90.5837L252.883 62.6617L264.701 43.6164H264.701Z" fill="#E6E6E6"/>
<path d="M136.586 240.802C161.79 240.802 182.222 220.33 182.222 195.076C182.222 169.822 161.79 149.35 136.586 149.35C111.381 149.35 90.9492 169.822 90.9492 195.076C90.9492 220.33 111.381 240.802 136.586 240.802Z" fill="#FFD600"/>
<path d="M136.593 223.106C138.907 223.106 140.783 221.226 140.783 218.907C140.783 216.589 138.907 214.709 136.593 214.709C134.278 214.709 132.402 216.589 132.402 218.907C132.402 221.226 134.278 223.106 136.593 223.106Z" fill="white"/>
<path d="M136.576 167.044C136.191 169.607 136.88 170.143 136.884 181.192C136.888 192.24 139.176 207.052 136.589 207.053C134.003 207.054 133.057 176.484 124.076 173.778C113.516 170.597 137.822 158.749 136.576 167.044Z" fill="white"/>
<path d="M75.335 218.421L71.2119 227.15C76.1964 223.568 83.982 220.481 90.1776 218.828C84.4049 216.034 77.3412 211.529 73.1212 207.069L75.4926 216.292C47.6895 210.618 27.7237 189.247 27.7152 164.766L26.7109 164.42C26.7198 189.991 46.4094 212.628 75.335 218.421V218.421Z" fill="#3F3D56"/>
</g>
<defs>
<clipPath id="clip0_19284_125457">
<rect width="328" height="262" fill="white"/>
</clipPath>
</defs>
</svg>
