<svg width="88" height="88" viewBox="0 0 88 88" fill="none" xmlns="http://www.w3.org/2000/svg">
<rect width="88" height="88" rx="44" fill="#FAFAFA"/>
<path d="M65.4188 42.577L66 40.7518L64.1097 40.8115C63.2242 40.779 62.3713 40.4802 61.6543 39.9533H61.9097C63.0612 39.9478 64.115 39.2905 64.6257 38.2584L65.4568 36.4821C64.805 36.4876 64.1531 36.4496 63.5066 36.3681C62.8874 36.2214 62.3334 35.8846 61.915 35.4067C61.3501 34.8036 60.5679 34.4614 59.7422 34.456C59.4218 34.456 59.1012 34.5103 58.7916 34.6081C58.835 34.4614 58.8731 34.3148 58.9003 34.1627C59.0306 33.1034 58.7319 32.0333 58.0746 31.1913L56.6405 29.4259L55.7605 31.4901C55.6193 31.7834 55.4074 32.0387 55.1359 32.2234C54.9837 31.4846 54.6252 30.8111 54.0928 30.2787C53.2019 29.3661 51.9797 28.8555 50.7032 28.8664C50.4805 28.8664 50.2578 28.8827 50.0405 28.9153L48.324 29.252C48.4706 28.6762 48.7042 28.1276 49.0193 27.6224L49.9644 26.1503L47.5852 26.373L46.8247 24.7434L45.3581 25.5419L44 24.2002L42.6419 25.5419L41.1753 24.7814L40.4148 26.373L38.0356 26.1014L38.9807 27.579C39.2959 28.0841 39.5294 28.6328 39.676 29.2086L38.0465 28.8881H37.9921C37.764 28.8555 37.5359 28.8392 37.3076 28.8392C36.0312 28.8283 34.8088 29.339 33.9181 30.2515C33.3803 30.7893 33.0109 31.4738 32.8642 32.2234C32.6035 32.0441 32.3916 31.7997 32.2504 31.5118L31.3649 29.4313L29.92 31.2022C29.2736 32.0441 28.9857 33.1089 29.1106 34.1627C29.1378 34.3148 29.1758 34.4614 29.2193 34.6081C28.9096 34.5103 28.5891 34.456 28.2686 34.456C27.443 34.4614 26.6607 34.8036 26.0958 35.4067C25.683 35.8792 25.1343 36.216 24.5205 36.3681C23.8686 36.4659 23.2059 36.5039 22.5432 36.4821L23.3526 38.2856C23.8632 39.3177 24.917 39.975 26.0686 39.9805H26.3239C25.6178 40.4965 24.7758 40.7952 23.9012 40.8333L22 40.7518L22.5812 42.577C23.0158 44.0056 24.2489 45.054 25.7318 45.2442C25.5798 46.2056 24.9714 47.0367 24.1022 47.4714L22.6464 48.0634L23.4286 49.4268C24.0751 50.4318 25.1886 51.0293 26.3783 51.0184C26.6879 51.0184 26.9975 50.9859 27.3017 50.9207C27.3778 51.2521 27.4756 51.5834 27.5842 51.9039C27.8558 52.6209 27.8721 53.4031 27.6385 54.1311L26.9323 55.614L28.5131 56.0323C28.8662 56.1246 29.2356 56.1681 29.5995 56.1681C29.8602 56.1681 30.1156 56.1409 30.3709 56.0812C30.5556 56.0377 30.7402 55.9834 30.9141 55.9128C31.1151 56.2767 31.3704 56.6136 31.6583 56.9123C32.6686 57.9498 34.1028 58.4767 35.9225 58.4767H37.2207L34.5428 59.5903L36.5743 60.5952C37.3946 60.9973 38.2312 61.3612 39.084 61.6817L38.8395 62.3878L39.5403 62.7083C40.7027 63.1646 41.9359 63.4199 43.1852 63.4634H44.8528C46.0968 63.4199 47.3244 63.1592 48.4815 62.7029L49.1605 62.3878L48.9215 61.6817C49.7852 61.3503 50.6326 60.9755 51.4582 60.5572L53.4519 59.5903L50.7793 58.5039H52.0829C53.9028 58.5039 55.3422 57.9607 56.3472 56.9395C56.6405 56.6407 56.8904 56.3039 57.0913 55.9399C57.2652 56.0105 57.4499 56.0649 57.6346 56.1083C57.8899 56.1681 58.1452 56.1952 58.4059 56.1952C58.7699 56.1952 59.1393 56.1464 59.4924 56.0595L61.0785 55.6412L60.3887 54.1854C60.1279 53.4467 60.1388 52.6373 60.4159 51.9039C60.5299 51.5725 60.6222 51.2358 60.6982 50.899C61.0025 50.9642 61.3175 50.9967 61.6272 50.9967C62.8276 51.0076 63.9466 50.3883 64.5822 49.3671L65.3535 48.0199L63.9195 47.4333C63.0504 46.9987 62.4419 46.1676 62.2899 45.2061C63.7728 45.0105 65.0059 43.9676 65.4405 42.5336L65.4188 42.577Z" fill="white"/>
<path d="M50.5306 48.3458H37.4936V53.2346C37.4936 55.2445 38.9439 56.4939 41.0896 56.4939C42.8822 56.4939 43.3548 56.5645 44.0175 57.2272C44.4358 56.7764 45.0279 56.5211 45.6472 56.5319V56.4559L46.06 55.1847L45.3592 54.4188C45.0767 54.5058 44.7835 54.5383 44.4901 54.5221C44.0501 54.5166 43.6155 54.4731 43.1864 54.3862H43.0506C42.9908 54.3862 42.9908 54.3862 42.9745 54.4188L42.8931 54.5546L42.7464 54.799L42.4639 54.7339L41.2091 54.4406L41.0353 54.723V54.7556L41.1874 54.924L41.1222 55.1413C41.0082 55.4075 40.8451 55.6465 40.6388 55.853L40.3237 56.1897L40.0358 55.8312L39.8239 55.565C39.5958 55.2662 39.5414 54.8752 39.6719 54.5221L39.3188 54.6687L39.1613 54.3211L39.0744 54.0766C38.8516 53.5606 39.02 52.963 39.4708 52.6371L40.4813 52.0939L41.4427 52.284C41.4427 52.1917 41.5025 51.8603 41.5297 51.7788H41.4753L40.932 51.9852L40.3889 51.6159C40.2802 51.5072 40.2748 51.328 40.3889 51.2139L40.9049 50.4317L39.5958 48.8021L41.5567 49.5734L41.6926 49.4105L41.9642 49.0845L42.2738 49.3778C42.3553 49.4593 42.4096 49.5571 42.4367 49.6712C42.98 49.8884 43.9849 50.524 44.0664 51.5561L43.7567 51.6811C43.7948 51.7353 43.8437 51.7788 43.9035 51.8059L45.3375 51.9472L45.4679 51.9092C45.7123 51.8168 45.9731 51.768 46.2338 51.7625C46.4945 51.7625 46.7498 51.8223 46.9835 51.9364C47.0867 51.8983 47.2007 51.8766 47.3094 51.8712H47.38C48.146 51.8712 48.5316 52.447 48.8358 52.9033L48.9933 53.1314C49.2595 53.5117 49.6126 54.0658 49.6289 54.0875L49.7864 54.3319L49.5908 54.56C49.4116 54.799 49.1291 54.9349 48.8304 54.9349C48.7435 54.9403 48.6566 54.9403 48.5696 54.9349C48.4936 54.9186 48.4175 54.8968 48.3414 54.8643C48.3414 54.9403 48.3414 55.0327 48.298 55.1087L48.0753 56.3906C49.5529 56.0919 50.5958 54.7665 50.536 53.2564L50.5306 48.3458ZM37.4773 47.9492H47.6298C47.217 47.5147 47.0758 46.89 47.2605 46.3196C47.1247 46.2545 46.9943 46.1676 46.8802 46.0698C46.4836 46.363 45.2506 47.243 44.9573 47.4658L44.892 47.5092L40.9049 46.803H40.8235C40.693 46.8085 40.5627 46.8085 40.4323 46.803C40.3943 46.9823 40.2367 47.1073 40.0575 47.1073H39.9923C39.7805 47.0692 39.6338 46.8683 39.6664 46.6564V46.5695C39.1504 46.2001 38.906 45.5592 39.0417 44.9398V44.8692L39.1014 44.8258C39.1014 44.8258 39.1775 44.7714 39.2807 44.7117L38.9929 44.6683C38.8842 44.6465 38.8136 44.5488 38.8298 44.4401C38.8461 44.3314 38.9439 44.2608 39.0526 44.2771H39.058L39.7479 44.3858L39.813 41.9576L40.8398 40.8712L41.4807 42.2183L40.8072 44.5542L41.4155 44.652C41.5242 44.6737 41.5948 44.7714 41.5785 44.8801C41.5622 44.9779 41.4807 45.043 41.3829 45.043H41.3504L40.856 44.9616V44.9996C40.9104 45.0974 40.9919 45.1735 41.0951 45.2223L44.1316 45.2712L44.9083 44.5053C44.3163 44.2989 43.8926 43.7774 43.822 43.1527C43.4417 43.0061 43.132 42.7236 42.9582 42.3596C42.8116 42.0174 42.7844 41.6317 42.8876 41.2732C42.4096 41.083 41.9751 40.7952 41.622 40.4258H37.1133C37.3306 40.9582 37.4555 41.523 37.4773 42.0935V47.9492Z" fill="#FCE527"/>
<path d="M41.6425 50.4805C41.5773 50.4805 41.5176 50.5293 41.5121 50.5945V50.5999C41.5067 50.6705 41.561 50.7358 41.6317 50.7412H41.637C41.7131 50.7412 41.7674 50.6814 41.7674 50.6108C41.7674 50.5347 41.7131 50.4805 41.6425 50.4805Z" fill="#222220"/>
<path d="M41.6345 50.4744C41.6399 50.4744 41.6399 50.4798 41.6399 50.4798C41.6454 50.4798 41.6454 50.4744 41.6508 50.4744H41.6345ZM50.5104 59.383L49.7609 59.0951L49.9672 58.3183L50.1954 57.4708C49.1688 57.9978 48.0932 58.4215 46.985 58.7366C46.4419 58.8886 46.0507 58.9592 46.0507 58.9592V59.5079C45.3826 59.6166 44.709 59.6763 44.03 59.6817H43.9703C43.2912 59.6763 42.6176 59.6166 41.9495 59.5079V58.9647C41.9495 58.9647 41.5529 58.8886 41.0097 58.7366C39.9016 58.4215 38.826 57.9978 37.7994 57.4708L38.0221 58.3183L38.2339 59.0951L37.4788 59.383L36.6641 59.6926C37.7831 60.2739 38.951 60.7573 40.1569 61.1376L39.869 61.9198C41.1781 62.4195 42.5796 62.6639 43.981 62.6314H44.0137C45.4151 62.6639 46.8166 62.4195 48.1257 61.9198L47.8433 61.1376C49.0438 60.7573 50.2117 60.2739 51.3307 59.6926L50.5104 59.383ZM37.5712 59.7415L38.7879 59.3341L38.4241 58.1391C39.2226 58.5355 40.0482 58.867 40.901 59.1277L40.3035 60.7573C39.3638 60.5074 38.4457 60.1652 37.5712 59.7415ZM44.03 62.2457L44.0028 62.2239C42.8078 62.2185 41.6181 62.0555 40.4665 61.7405L41.1998 59.7523C42.1125 59.9805 43.0522 60.1054 43.9973 60.1108H44.0572C45.0023 60.1001 45.942 59.9805 46.8547 59.7523L47.5879 61.7405C46.431 62.0664 45.2304 62.2348 44.03 62.2457ZM47.7347 60.7899V60.7736L47.1372 59.1439C47.99 58.8832 48.8157 58.5519 49.6141 58.1554L49.2503 59.3504L50.4833 59.7632C49.6033 60.1923 48.6798 60.54 47.7347 60.7899ZM43.9974 28.3766C45.225 28.344 46.431 28.7134 47.4304 29.425C47.5881 28.621 47.8868 27.8497 48.3159 27.1489L47.0828 27.2902L46.4419 25.9158L45.1979 26.5568L43.9974 25.3672L42.7969 26.5568L41.5529 25.9158L40.9119 27.2902L39.6788 27.1489C40.1081 27.8497 40.4068 28.621 40.5643 29.425C41.5638 28.7134 42.7697 28.344 43.9974 28.3766ZM40.8576 27.7682L41.1999 27.8062L41.3465 27.4966L41.7757 26.5731L42.5741 26.9859L42.8838 27.1435L43.1337 26.9153L43.9974 26.0408L44.861 26.9153L45.111 27.1598L45.4206 27.0022L46.2137 26.5894L46.6482 27.5129L46.795 27.8225L47.1372 27.7845L47.4631 27.7464C47.3327 28.0452 47.2187 28.3548 47.1263 28.6699C45.1653 27.665 42.835 27.665 40.874 28.6699C40.7816 28.3548 40.6675 28.0452 40.5372 27.7464L40.8576 27.7682ZM60.1091 39.5884L59.9624 39.4092C58.952 38.1217 57.9905 36.8995 56.2741 36.3399C56.3447 36.2802 56.4153 36.2259 56.4913 36.177C57.3061 35.7153 57.882 34.9223 58.0667 34.0042C58.1589 33.173 57.9254 32.342 57.4148 31.6793L56.8716 31.0002L56.5294 31.8096C56.5294 31.8585 55.9264 33.1568 54.7096 33.1568H54.3511C54.4163 32.3039 54.1067 31.462 53.5036 30.8536C52.7704 30.1039 51.76 29.6857 50.7116 29.6911C50.516 29.6911 50.3205 29.7074 50.1304 29.7346L49.2992 29.8975L49.8153 30.5765C50.2173 31.1197 50.5812 32.0595 50.152 32.5647C49.9457 32.7439 49.712 32.8852 49.4567 32.983C48.9136 33.2383 48.1313 33.6023 48.1313 34.5148C48.1313 35.107 48.593 35.7261 49.4242 36.253C51.8741 37.8067 53.3896 39.4092 54.0469 41.2126C55.0627 43.9612 53.7373 45.5257 52.4498 46.3514L51.8741 46.7208L52.3792 47.1824C52.8301 47.5682 53.3842 47.8071 53.9763 47.867H54.4705C54.9758 47.867 55.4755 47.7963 55.9589 47.6496C55.8395 47.8615 55.6929 48.0624 55.5353 48.2471C54.802 49.0999 53.7155 49.5671 52.5911 49.5074H52.1076L52.0696 49.9908C52.0642 50.6699 52.3629 51.3108 52.8789 51.7508C53.0148 51.8704 53.1669 51.9682 53.3298 52.0442C52.5258 52.8264 52.0696 53.8965 52.0533 55.021C52.0533 55.6348 51.912 56.2432 51.6458 56.7973L51.1027 57.6121H52.0696C53.6667 57.6121 54.8889 57.1721 55.7363 56.2976C56.1763 55.8358 56.5022 55.2763 56.6923 54.6679C57.0074 54.934 57.3767 55.1188 57.7788 55.2111C57.9689 55.2546 58.1644 55.2763 58.36 55.2763C58.6533 55.2763 58.9467 55.2383 59.2291 55.173L59.8483 55.0101L59.5767 54.4343C59.2345 53.5163 59.2345 52.5005 59.5767 51.5824C59.7777 50.9849 59.9189 50.3657 59.9951 49.7355C60.4839 49.9854 61.0271 50.1104 61.5758 50.1049C62.4775 50.1158 63.3195 49.6704 63.8083 48.9153L64.1071 48.3721L63.5639 48.1439C61.7442 47.3889 61.3422 45.3573 61.2607 44.2599C61.44 44.298 61.6192 44.3198 61.8039 44.3252L61.956 44.4284C63.9333 44.4284 64.596 42.413 64.6232 42.3261L64.8458 41.6146H64.1017C62.5373 41.5602 61.076 40.8215 60.1091 39.5884ZM61.9614 43.8798H61.8854C61.4889 43.8852 61.0977 43.7765 60.761 43.5701C60.761 43.5701 60.473 47.4976 63.401 48.7143V48.7306C63.0153 49.3173 62.3526 49.6649 61.6518 49.654C60.8588 49.703 60.0929 49.3661 59.593 48.7523C59.6094 49.6758 59.4573 50.5992 59.1476 51.4684C58.7511 52.5168 58.7511 53.6792 59.1476 54.7277C58.9032 54.7874 58.6588 54.8199 58.4089 54.8199C58.2567 54.8199 58.0992 54.8037 57.9526 54.7657C57.2301 54.5918 56.6543 54.0595 56.4207 53.3587C56.4207 53.3587 56.5348 57.1286 52.1402 57.1286H52.1076C52.4389 56.4985 52.6129 55.7977 52.6074 55.0861C52.7975 52.2995 54.6879 51.903 54.6879 51.903C54.1664 51.8377 53.672 51.653 53.2375 51.3598C52.841 51.0284 52.6129 50.5395 52.602 50.0235C53.873 50.0777 55.1007 49.5508 55.9318 48.5839C56.4316 48.0136 56.7629 47.3183 56.9042 46.574C56.2035 47.101 55.3398 47.3671 54.4651 47.3292H54.0198C53.5471 47.2802 53.0963 47.0955 52.7323 46.7859C54.4054 45.6995 55.5788 43.8417 54.5412 41.0224C53.7047 38.7627 51.7002 37.0733 49.6849 35.8023C49.0167 35.3893 48.6148 34.9223 48.6148 34.5202C48.6148 33.5751 49.9565 33.5479 50.5106 32.8906C51.1461 32.1518 50.7496 30.9568 50.1955 30.2397C50.353 30.2126 50.516 30.2017 50.6736 30.2017C51.5807 30.1909 52.4553 30.5548 53.0854 31.2067C53.7264 31.8151 53.9708 32.7331 53.7264 33.5805L54.0198 33.6402C54.1989 33.6729 54.3782 33.6892 54.5629 33.6946H54.6824C56.2741 33.6946 56.9911 32.0269 56.9911 32.0269C56.9911 32.0269 58.6858 34.1129 56.1926 35.7424C55.7635 36.0195 55.5733 36.2857 55.6494 36.5573L55.6874 36.7365L55.8667 36.7692C57.6755 37.258 58.5827 38.5074 59.7071 39.9252C60.7718 41.2777 62.3798 42.0926 64.1017 42.1523H64.1343C64.1343 42.1523 63.5911 43.8798 61.9614 43.8798Z" fill="#222220"/>
<path d="M58.4771 36.5851C59.0856 36.9327 59.6125 37.4053 60.0254 37.9702C60.3349 38.4482 60.7749 38.8285 61.2965 39.0566C61.492 39.1219 61.7039 39.1544 61.9102 39.1544C62.7414 39.1544 63.5018 38.6819 63.8821 37.943L64.1972 37.2369L63.4312 37.1935C62.6056 37.0413 61.8614 36.6176 61.3127 35.982C60.9054 35.542 60.3349 35.2867 59.732 35.2813C59.2649 35.2867 58.814 35.428 58.4229 35.6779L57.7167 36.1722L58.4771 36.5851ZM59.7483 35.8082L59.732 35.8136C60.1937 35.8136 60.6283 36.0147 60.938 36.3569C61.5735 37.0848 62.4426 37.5682 63.3987 37.7258C63.1054 38.2744 62.5349 38.6166 61.9102 38.622C61.7582 38.622 61.6061 38.5949 61.4595 38.546C60.5795 38.2473 60.2698 36.9164 58.7434 36.1125C59.0421 35.9169 59.3898 35.8136 59.7483 35.8082ZM58.8358 43.587L58.825 43.5761C58.3795 39.9909 55.7775 37.3998 52.8822 35.8299C52.616 35.6833 52.3662 35.5638 52.1272 35.4496C53.3222 35.6942 54.5662 35.4008 55.5276 34.6511C55.5276 34.6511 53.8491 35.8842 50.416 34.7652C51.3666 35.3845 53.2135 36.2536 54.9029 37.666C59.1182 41.3707 56.1035 44.9885 56.1035 44.9885C57.3637 43.7934 57.8037 41.9682 57.2388 40.3277C58.1297 41.8107 58.5588 43.5273 58.4664 45.2546C58.3469 48.1011 56.7662 50.5889 55.1366 52.5717C54.6476 53.1964 54.3109 53.9296 54.1697 54.712C54.4466 53.9351 54.865 53.218 55.4081 52.5989C57.1735 50.5292 58.6675 48.3835 58.8792 45.2927C59.064 45.8358 59.8135 47.4166 61.0087 48.0087C61.0087 48.0087 59.5094 47.107 58.8358 43.587ZM36.3469 56.8359C36.0862 56.2819 35.945 55.6735 35.9395 55.0597C35.9232 53.9352 35.4615 52.8651 34.6575 52.0828C34.8204 52.0068 34.9726 51.909 35.1084 51.7896C35.6244 51.3496 35.9232 50.7085 35.9178 50.0296L35.8851 49.546H35.3963C34.2773 49.6004 33.1909 49.1387 32.4575 48.2859C32.3 48.1012 32.1588 47.9002 32.0338 47.6883C32.5173 47.835 33.017 47.9056 33.5222 47.9056H34.0166C34.6087 47.8459 35.1681 47.6068 35.619 47.2212L36.1242 46.7594L35.5484 46.39C34.2556 45.5644 32.9355 43.9999 33.9513 41.2513C34.6087 39.4641 36.1242 37.8507 38.5957 36.2972C39.4269 35.754 39.8832 35.151 39.8832 34.559C39.8832 33.6463 39.1173 33.2824 38.5578 33.0271C38.3025 32.9293 38.0688 32.7881 37.8625 32.6088C37.4279 32.1036 37.7919 31.1421 38.1992 30.6206L38.7425 29.9416L37.9059 29.7787C37.7158 29.7461 37.5203 29.7352 37.3247 29.7352C36.2654 29.7026 35.2442 30.11 34.4945 30.8542C33.8807 31.4572 33.5603 32.3046 33.62 33.1628H33.2941C32.0718 33.1628 31.496 31.87 31.4743 31.8157L31.1321 31.0063L30.5889 31.6853C30.0837 32.3481 29.8501 33.1791 29.9425 34.0103C30.1272 34.9283 30.6975 35.7213 31.5123 36.1831C31.5884 36.232 31.6644 36.2863 31.7296 36.346C30.0131 36.8893 29.0516 38.1278 28.0412 39.4152L27.8946 39.5999C26.9277 40.833 25.461 41.5718 23.8965 41.626H23.1523L23.3805 42.3377C23.3805 42.4246 24.0649 44.4399 26.0476 44.4399H26.1454C26.3301 44.4344 26.5094 44.4128 26.6886 44.3747C26.6072 45.4612 26.2052 47.5037 24.38 48.2587L23.8368 48.4868L24.1355 49.03C24.6244 49.7851 25.4664 50.2306 26.3681 50.2197C26.9168 50.2251 27.4546 50.1001 27.9434 49.8503C28.0195 50.4804 28.1607 51.0997 28.3617 51.6972C28.7039 52.6152 28.7039 53.631 28.3617 54.549L28.0901 55.1249L28.7094 55.2878C28.9918 55.353 29.2852 55.391 29.5785 55.391C29.7741 55.391 29.9696 55.3693 30.1598 55.3259C30.5617 55.2335 30.9311 55.0488 31.2462 54.7826C31.4363 55.391 31.7622 55.9506 32.2022 56.4122C33.0551 57.2868 34.2773 57.7213 35.8688 57.7268H36.8357L36.3469 56.8359ZM35.8797 57.1401C31.4852 57.1401 31.5938 53.3703 31.5938 53.3703C31.3602 54.071 30.7844 54.6034 30.062 54.7772C29.9153 54.8152 29.7578 54.8315 29.6057 54.8315C29.3558 54.8315 29.1114 54.799 28.8723 54.7391C29.2689 53.6907 29.2689 52.5283 28.8723 51.4799C28.5627 50.6107 28.416 49.6873 28.4323 48.7638C27.9326 49.3777 27.1667 49.7144 26.3736 49.6656H26.3464C25.6402 49.6765 24.9775 49.3234 24.5918 48.7366C27.5198 47.5199 27.2318 43.5925 27.2318 43.5925C26.8951 43.799 26.5039 43.9075 26.1074 43.9021H26.0476C24.418 43.9021 23.8748 42.1747 23.8748 42.1747H23.9074C25.6294 42.1204 27.2427 41.3056 28.3074 39.953C29.4264 38.5352 30.339 37.2859 32.1479 36.7969L32.3272 36.7644L32.3652 36.5851C32.4141 36.3081 32.2239 36.0419 31.822 35.7703C29.3286 34.1406 31.0234 32.0547 31.0234 32.0547C31.0234 32.0547 31.7296 33.7224 33.3321 33.7224H33.4082C33.5928 33.7169 33.7721 33.7006 33.9513 33.6681L34.2447 33.6083C33.9948 32.7609 34.2447 31.8429 34.8857 31.2345C35.5157 30.5826 36.3904 30.2187 37.2975 30.2295C37.4551 30.2295 37.6181 30.2404 37.7756 30.2676C37.2323 30.99 36.8304 32.1851 37.4659 32.9184C38.0091 33.554 39.3563 33.5812 39.3563 34.5481C39.3563 34.95 38.9815 35.4172 38.3134 35.8354C36.2926 37.1066 34.2881 38.7959 33.457 41.0557C32.4195 43.875 33.5928 45.749 35.2659 46.8191C34.902 47.1234 34.4511 47.3135 33.9785 47.3624H33.5276C32.6531 47.4004 31.7894 47.1343 31.0886 46.6073C31.2299 47.3515 31.5612 48.0468 32.0555 48.6172C32.8867 49.5787 34.1197 50.111 35.3909 50.0566C35.38 50.5728 35.1519 51.0616 34.7553 51.393C34.3207 51.6863 33.8264 51.871 33.305 51.9362C33.305 51.9362 35.2007 52.3219 35.4072 55.1194C35.4017 55.831 35.5756 56.5318 35.9069 57.1619L35.8797 57.1401Z" fill="#222220"/>
<path d="M26.0846 39.1491H26.0901C26.2965 39.1491 26.5083 39.1165 26.7039 39.0514C27.2254 38.8232 27.6654 38.443 27.975 37.965C28.3824 37.4 28.9093 36.9274 29.5177 36.5797L30.2782 36.1724L29.5721 35.6781C29.1809 35.4281 28.7301 35.2869 28.2683 35.2815C27.6654 35.2869 27.095 35.5422 26.6876 35.9877C26.1444 36.6178 25.3948 37.0469 24.5745 37.199L23.8086 37.2371L24.1182 37.9432C24.4985 38.6821 25.2535 39.1437 26.0846 39.1491ZM27.0624 36.3571C27.3666 36.0149 27.8012 35.8138 28.2629 35.8138C28.616 35.8193 28.9637 35.928 29.2624 36.1181C27.7251 36.9383 27.4046 38.2528 26.5464 38.5516C26.4051 38.6005 26.253 38.6277 26.1009 38.6277C25.4708 38.6277 24.895 38.28 24.6017 37.7259C25.5577 37.5684 26.4269 37.085 27.0624 36.3571ZM29.5449 45.2765C29.4526 43.5491 29.8763 41.8326 30.7726 40.3496C30.2077 41.9901 30.6477 43.8153 31.9079 45.0104C31.9079 45.0104 28.8877 41.3926 33.1084 37.6879C34.7978 36.2756 36.6393 35.4065 37.5899 34.7872C34.1568 35.9062 32.4783 34.6731 32.4783 34.6731C33.4397 35.4227 34.6783 35.716 35.8734 35.4716C35.6343 35.5857 35.3844 35.7106 35.1183 35.8519C32.223 37.4272 29.6047 40.0183 29.1756 43.6034V43.5763C28.502 47.0963 27.0027 47.9981 27.0027 47.9981C28.1923 47.4113 28.9474 45.8252 29.1267 45.2819C29.3277 48.3783 30.8378 50.524 32.6032 52.5881C33.141 53.2074 33.5647 53.9244 33.8418 54.7012C33.695 53.9244 33.3583 53.1912 32.8639 52.5719C31.2343 50.5891 29.659 48.1012 29.5449 45.2765ZM43.0056 38.7363C43.1957 38.5516 43.4619 38.4647 43.7281 38.4973V39.5239C43.7227 39.7792 43.6575 40.0237 43.5325 40.2464H44.5592C44.4343 40.0237 44.3691 39.7792 44.3637 39.5239V38.4973C44.6244 38.4647 44.8906 38.5516 45.0807 38.7363V38.0247H43.0056V38.7363ZM42.5765 33.8094H42.5656C42.7232 33.9452 42.9079 34.0538 43.1089 34.119L43.2393 34.1788V33.5052L42.0334 33C42.0931 33.3368 42.2887 33.6301 42.5765 33.8094ZM45.4393 33.804L45.4338 33.8094C45.7218 33.6301 45.9172 33.3368 45.9771 33L44.7711 33.5052V34.1734L44.896 34.1135C45.0971 34.0484 45.2818 33.9397 45.4393 33.804Z" fill="#222220"/>
<path d="M47.5993 31.0827C47.5993 30.0669 45.8881 29.1543 44.0032 29.1543C42.1182 29.1543 40.4072 30.0669 40.4072 31.0827L40.4451 31.3326L41.2003 35.6782L40.4451 36.1182L38.4734 37.2373C38.4734 37.2373 38.0334 37.4654 37.8269 37.6012C37.0827 38.1444 36.9251 38.8723 37.3543 39.1874C37.4629 38.4486 38.1094 37.9054 38.859 37.9272C39.4837 37.9435 40.0649 38.2585 40.418 38.7745C40.5266 38.905 40.6244 39.0462 40.7113 39.1874C40.8254 39.3721 40.9394 39.535 41.0535 39.6926H36.0234C36.4472 40.4204 36.6916 41.2407 36.7459 42.0826V53.2566C36.7459 55.9726 38.8263 57.2491 41.0916 57.2491C42.8299 57.2491 43.0634 57.1676 44.0194 58.1237C44.9756 57.1676 45.2091 57.2491 46.9474 57.2491C49.1963 57.2491 51.2931 55.9617 51.2931 53.2566V42.0935C51.3474 41.2516 51.5918 40.4313 52.0156 39.7035H46.931C47.0451 39.5459 47.1593 39.3829 47.2734 39.1982C47.3656 39.057 47.4634 38.9157 47.5666 38.7854C47.9251 38.2694 48.5063 37.9543 49.131 37.938C49.8807 37.9163 50.5272 38.4595 50.6357 39.1982C51.0703 38.8886 50.9128 38.1119 50.1632 37.6121C49.9622 37.4709 49.5222 37.2481 49.5222 37.2481L47.5666 36.0966L46.8116 35.6566L47.5666 31.3108L47.5993 31.0827ZM41.135 31.5824L43.7859 32.4787V36.6397L41.8357 35.6076L41.135 31.5824ZM37.1098 40.4259H41.6782C42.0313 40.7953 42.4659 41.0886 42.944 41.2733C42.8407 41.6319 42.8679 42.0175 43.0146 42.3597C43.1884 42.7237 43.498 43.0062 43.8782 43.1528C43.9488 43.7775 44.3725 44.299 44.9647 44.5054C44.6387 44.8368 44.3182 45.1464 44.1879 45.2713L41.1513 45.2225C41.0481 45.1735 40.9666 45.0975 40.9123 44.9997V44.9617L41.4066 45.0432H41.4393C41.537 45.0432 41.6185 44.978 41.6348 44.8803C41.651 44.7716 41.5804 44.6738 41.4718 44.6521L40.8634 44.5543L41.537 42.2185L40.896 40.8713L39.8694 41.9578L39.8041 44.3859L39.1143 44.2773C39.0056 44.2556 38.9079 44.3262 38.8862 44.4348V44.4403C38.8698 44.5488 38.9404 44.6466 39.0491 44.6684L39.337 44.7119C39.2338 44.7716 39.1632 44.815 39.1578 44.8259L39.098 44.8694V44.94C38.9622 45.5592 39.2121 46.2003 39.7227 46.5697V46.6566C39.6901 46.8684 39.8368 47.0694 40.0487 47.1073H40.1138C40.2931 47.1073 40.4506 46.9825 40.4887 46.8032C40.619 46.8086 40.744 46.8086 40.8743 46.8032H40.9557L44.9375 47.5257L45.0027 47.4822C45.3178 47.2595 46.5291 46.3957 46.9256 46.0862C47.0397 46.1839 47.1701 46.2709 47.3059 46.336C47.1212 46.9064 47.2625 47.5311 47.6753 47.9657H37.4738V42.0935C37.4521 41.5232 37.3272 40.9582 37.1098 40.4259ZM46.5834 45.7982C46.1706 46.1025 45.1548 46.8412 44.7854 47.1019L41.1731 46.4719V46.3741C41.2328 46.1297 41.2654 45.8797 41.2709 45.6298L44.3128 45.6788L44.3725 45.619C44.4215 45.5701 45.3829 44.6412 45.8718 44.1035C46.0022 44.2664 46.1543 44.4022 46.3281 44.5109C46.2412 44.9563 46.3335 45.418 46.5834 45.7982ZM40.5484 45.1464V45.1626C40.6299 45.3148 40.7494 45.4451 40.896 45.5321C40.8906 45.7548 40.8688 45.9721 40.8309 46.1894C40.8309 46.2382 40.8309 46.2872 40.7928 46.336V46.4121C40.5429 46.4121 40.2985 46.3741 40.0594 46.298C39.6249 46.0644 39.3804 45.5864 39.451 45.0975C39.6466 44.9617 39.8694 44.8748 40.1029 44.8422C40.304 44.8368 40.4832 44.9563 40.5484 45.1464ZM40.1735 44.4239L40.2334 42.1262L40.7765 41.5829L41.1079 42.2728L40.4615 44.5109L40.1735 44.4239ZM46.5563 56.5266H46.0348L46.4422 55.1957C46.5074 55.0111 46.1706 54.772 46.0294 54.5603C46.3607 54.7612 46.7029 54.9404 47.056 55.1035C47.056 55.1469 46.5563 56.5266 46.5563 56.5266ZM47.9523 55.0382L47.9088 55.0003L47.6263 56.4669C47.4472 56.4669 47.257 56.505 47.0832 56.5157L47.3819 55.1035C47.4688 54.6851 46.3444 54.5603 45.7903 53.7291C45.4263 54.0333 44.9593 54.1745 44.4921 54.1257C44.0793 54.1203 43.6718 54.0767 43.2698 53.9953C43.1993 53.9898 43.1287 53.9898 43.058 53.9953C42.8896 53.9844 42.7266 54.0713 42.6397 54.218L42.5582 54.3538L41.0101 53.979L40.6407 54.62C40.581 54.7069 40.5918 54.8264 40.6679 54.9025L40.771 55.0166C40.6679 55.2175 40.5375 55.4022 40.38 55.5597L40.1518 55.2773C39.978 54.9948 39.9943 54.6309 40.1899 54.3647L40.7982 53.338L42.0965 53.5335L41.8956 53.0719C41.624 52.4635 42.0368 51.6866 42.0803 51.2412C42.0803 51.377 41.939 51.4042 41.7978 51.4042H41.4229C41.3957 51.3988 41.3632 51.3988 41.336 51.4042L40.9829 51.616L40.7059 51.3607C40.6625 51.2792 40.6787 51.1815 40.744 51.1217L41.3849 50.3992L40.6244 49.5138L41.7109 50.057L42.0368 49.6659C42.1237 49.7528 42.0856 49.981 42.0856 49.981C42.8734 50.1766 43.4219 50.8935 43.4003 51.7084V51.8659C43.5088 52.0397 43.6827 52.1592 43.8782 52.2081L45.3503 52.3548C45.6437 52.2625 45.9425 52.2026 46.2466 52.1647C46.5074 52.1647 46.7681 52.2462 46.9854 52.3873C47.0887 52.3168 47.2135 52.2733 47.3385 52.2679H47.3874C48.0447 52.2679 48.3217 52.8654 48.6748 53.3543C48.941 53.7291 49.2994 54.2941 49.2994 54.2941C49.1963 54.4462 49.0279 54.5385 48.8432 54.5385C48.778 54.5439 48.7182 54.5439 48.6531 54.5385C47.9469 54.4081 47.8437 52.9523 47.4417 52.8382H47.3765C47.3004 52.8382 47.2299 52.8817 47.1918 52.9523C47.3765 53.4466 47.2679 53.6476 47.4688 54.0388C47.6156 54.2723 47.8003 54.4842 48.0121 54.6635C48.0121 54.6635 47.9849 54.8807 47.9523 55.0382ZM40.0378 53.615H40.0269L40.0921 53.7835C40.0487 53.9301 39.5488 54.1419 39.5488 54.1419L39.4403 53.9029C39.299 53.5607 39.4022 53.1697 39.701 52.9469L40.5212 52.4472L41.3957 52.6319C41.3903 52.8057 41.4447 52.9741 41.5479 53.1153L40.6298 52.9415L40.0866 53.3217C39.9997 53.3978 39.9834 53.5173 40.0378 53.615ZM50.5434 53.2619C50.6032 54.7721 49.5548 56.0975 48.0718 56.3909L48.3217 55.0763C48.3217 55.0003 48.3488 54.9079 48.3597 54.8319C48.4357 54.8644 48.5118 54.8862 48.5879 54.9025C48.6748 54.9079 48.7617 54.9079 48.8487 54.9025C49.1474 54.9025 49.4299 54.7666 49.6091 54.5276L49.8047 54.2995L49.6417 54.0768C49.6417 54.0768 49.2778 53.501 49.0062 53.1207L48.8541 52.8926C48.5498 52.4363 48.1641 51.8604 47.3982 51.8604H47.3276C47.219 51.8659 47.1049 51.8876 47.0017 51.9257C46.7681 51.8116 46.5128 51.7519 46.2521 51.7519C45.9913 51.7573 45.7306 51.8062 45.4862 51.8985L45.3557 51.9366L43.9217 51.7953C43.8619 51.7681 43.8131 51.7247 43.775 51.6704L44.0847 51.5454C43.9978 50.5079 42.9982 49.8723 42.455 49.6604C42.4279 49.5464 42.3735 49.4486 42.2921 49.3672L41.9825 49.0738L41.7109 49.3997L41.575 49.5626L39.5651 48.737L40.8743 50.3666L40.3582 51.1488C40.2496 51.2575 40.2441 51.4368 40.3582 51.5509L40.9015 51.9203L41.4447 51.7138H41.499C41.499 51.7953 41.4393 52.1266 41.4121 52.219L40.4669 52.056L39.4565 52.5992C38.9894 52.936 38.8263 53.5553 39.0709 54.0768L39.1849 54.3212L39.3425 54.6688L39.6956 54.5222C39.5651 54.8753 39.6194 55.2664 39.8476 55.5651L40.0594 55.8368L40.3419 56.1953L40.657 55.8585C40.8634 55.6521 41.0263 55.4131 41.1404 55.1469L41.2056 54.9297L41.0535 54.7612V54.7286L41.2274 54.4462L42.4822 54.7395L42.7647 54.8047L42.9168 54.5548L42.9982 54.419C42.9982 54.3919 42.9982 54.3864 43.0743 54.3864H43.2101C43.6393 54.4733 44.0738 54.5168 44.5084 54.5222C44.8017 54.5385 45.095 54.5059 45.3775 54.419L46.0728 55.2121L45.66 56.4832V56.5592C45.0407 56.5484 44.4487 56.8037 44.0303 57.2545C43.3622 56.5919 42.8896 56.5212 41.1025 56.5212C38.9568 56.5212 37.5063 55.2664 37.5063 53.2619V48.3731H50.5434V53.2619ZM50.8965 40.4259C50.6738 40.9528 50.5543 41.5178 50.5325 42.0935V45.7548C50.06 45.6516 49.7069 45.2497 49.6743 44.7662V44.5978H49.5113C49.2288 44.576 48.9681 44.4457 48.7725 44.2447C48.5335 43.9676 48.4032 43.62 48.3978 43.256C48.1641 43.6363 48.1859 44.1251 48.4575 44.4837C48.6694 44.7498 48.979 44.9291 49.3157 44.9726C49.4135 45.6026 49.9187 46.0916 50.5488 46.1731V47.9657H48.2674C47.6699 47.6615 47.42 46.9498 47.6862 46.336L47.7731 46.1404L47.5721 46.0644C46.9203 45.8363 46.5617 45.1356 46.7681 44.4728L46.8116 44.3098L46.6594 44.2392C46.0891 43.9079 45.7741 43.2615 45.8663 42.6097C45.5676 42.9138 45.4916 43.3756 45.6817 43.7557C45.5731 43.8807 45.4318 44.0273 45.2743 44.1904C44.704 44.0709 44.291 43.5765 44.2694 42.9953V42.8595L44.1444 42.8106C43.8131 42.7128 43.5415 42.4847 43.384 42.1804C43.2807 41.9306 43.259 41.6481 43.3296 41.3873C43.4382 41.4091 43.5469 41.4254 43.6556 41.4363C43.7641 41.4417 43.8782 41.4417 43.9869 41.4363C44.8669 41.4363 45.7034 41.056 46.2901 40.4042L50.8965 40.4259ZM47.3765 36.7212L48.2674 37.2644L48.4901 37.3948C48.0284 37.5197 47.6101 37.7697 47.2787 38.1173L47.2407 38.1498C47.1647 38.2313 47.0941 38.3128 47.0234 38.3997L46.98 38.4541C46.9094 38.541 46.8441 38.6333 46.7844 38.7311L46.7518 38.78C46.6757 38.8886 46.6051 39.0081 46.5346 39.1276C46.0403 40.1109 45.0787 40.7681 43.9869 40.8768C42.895 40.7681 41.9335 40.1109 41.4393 39.1276C41.3687 39.0081 41.298 38.8941 41.2274 38.78L41.184 38.7203L41.0101 38.4378L40.9612 38.378C40.8906 38.2911 40.82 38.2097 40.7494 38.1335L40.7113 38.0956C40.38 37.7479 39.9617 37.498 39.5 37.3731L39.7281 37.2426L40.6244 36.6995L41.5425 36.1563L43.9923 37.4872L46.4422 36.1997L47.3765 36.7212ZM46.1706 35.6348L44.2204 36.6615V32.4842L46.8659 31.5879L46.1706 35.6348ZM43.9978 32.0442L41.097 30.8817C41.3415 30.295 42.4822 29.7953 43.9978 29.7953C45.5134 29.7953 46.6541 30.295 46.8985 30.8817L43.9978 32.0442Z" fill="#222220"/>
</svg>
