<svg width="88" height="88" viewBox="0 0 88 88" fill="none" xmlns="http://www.w3.org/2000/svg">
<rect width="88" height="88" rx="44" fill="#FFF176"/>
<g clip-path="url(#clip0_21551_140088)">
<path d="M43.9987 25.6665C35.8954 25.6665 29.332 26.5832 29.332 32.9998V51.3332C29.332 52.9465 30.047 54.3948 31.1654 55.4032V58.6665C31.1654 59.6748 31.9904 60.4998 32.9987 60.4998H34.832C35.8404 60.4998 36.6654 59.6748 36.6654 58.6665V56.8332H51.332V58.6665C51.332 59.6748 52.157 60.4998 53.1654 60.4998H54.9987C56.007 60.4998 56.832 59.6748 56.832 58.6665V55.4032C57.9504 54.3948 58.6654 52.9465 58.6654 51.3332V32.9998C58.6654 26.5832 52.102 25.6665 43.9987 25.6665ZM54.3754 31.1482H33.622C34.6304 30.1765 37.2337 29.3332 43.9987 29.3332C50.7637 29.3332 53.367 30.1765 54.3754 31.1482ZM54.9987 34.8148V40.3332H32.9987V34.8148H54.9987ZM54.3754 52.6715L53.8437 53.1665H34.1537L33.622 52.6715C33.3837 52.4698 32.9987 52.0115 32.9987 51.3332V43.9998H54.9987V51.3332C54.9987 52.0115 54.6137 52.4698 54.3754 52.6715Z" fill="#212529"/>
<path d="M37.582 51.3335C39.1008 51.3335 40.332 50.1023 40.332 48.5835C40.332 47.0647 39.1008 45.8335 37.582 45.8335C36.0632 45.8335 34.832 47.0647 34.832 48.5835C34.832 50.1023 36.0632 51.3335 37.582 51.3335Z" fill="#212529"/>
<path d="M50.418 51.3335C51.9368 51.3335 53.168 50.1023 53.168 48.5835C53.168 47.0647 51.9368 45.8335 50.418 45.8335C48.8992 45.8335 47.668 47.0647 47.668 48.5835C47.668 50.1023 48.8992 51.3335 50.418 51.3335Z" fill="#212529"/>
</g>
<defs>
<clipPath id="clip0_21551_140088">
<rect width="44" height="44" fill="white" transform="translate(22 22)"/>
</clipPath>
</defs>
</svg>
