<svg width="88" height="88" viewBox="0 0 88 88" fill="none" xmlns="http://www.w3.org/2000/svg">
<rect width="88" height="88" rx="44" fill="#FAFAFA"/>
<path d="M44 22C31.8341 22 22 31.8341 22 44C22 56.1659 31.8341 66 44 66C56.1659 66 66 56.1659 66 44C66 31.8341 56.1659 22 44 22ZM40.9585 53.3272L39.3364 58.0922C33.2535 56.0645 29.1982 50.2857 29.1982 43.7972C29.1982 37.3088 33.2535 31.6313 39.4378 29.5023L41.0599 34.2673C37.0046 35.5853 34.3687 39.4378 34.3687 43.6959C34.1659 48.1567 36.9032 52.0092 40.9585 53.3272ZM48.4608 58.1935L46.9401 53.3272C51.0968 52.0092 53.8341 48.1567 53.8341 43.7972C53.8341 39.4378 51.0968 35.6866 47.0415 34.3687L48.6636 29.5023C54.8479 31.53 59.0046 37.3088 59.0046 43.7972C59.0046 50.4885 54.7465 56.2673 48.4608 58.1935Z" fill="#00BEF0"/>
</svg>
