<svg width="88" height="88" viewBox="0 0 88 88" fill="none" xmlns="http://www.w3.org/2000/svg">
<rect width="88" height="88" rx="44" fill="#FFF176"/>
<g clip-path="url(#clip0_21551_136671)">
<path d="M53.1642 49.4997H56.8308V53.1663H53.1642V49.4997ZM53.1642 42.1663H56.8308V45.833H53.1642V42.1663ZM53.1642 34.833H56.8308V38.4997H53.1642V34.833ZM47.1875 34.833L49.4975 36.373V34.833H47.1875Z" fill="#212529"/>
<path d="M40.332 27.5V30.2683L43.9987 32.7067V31.1667H60.4987V56.8333H53.1654V60.5H64.1654V27.5H40.332Z" fill="#212529"/>
<path d="M36.977 32.4502L49.4987 40.7919V60.5002H23.832V41.2135L36.977 32.4502ZM40.332 56.8335H45.832V42.4602L36.977 36.8319L27.4987 42.8635V56.8335H32.9987V45.8335H40.332V56.8335Z" fill="#212529"/>
</g>
<defs>
<clipPath id="clip0_21551_136671">
<rect width="44" height="44" fill="white" transform="translate(22 22)"/>
</clipPath>
</defs>
</svg>
