<svg width="88" height="88" viewBox="0 0 88 88" fill="none" xmlns="http://www.w3.org/2000/svg">
<rect width="88" height="88" rx="44" fill="#FFF176"/>
<g clip-path="url(#clip0_21827_88381)">
<path d="M32.9987 40.333C30.982 40.333 29.332 41.983 29.332 43.9997C29.332 46.0163 30.982 47.6663 32.9987 47.6663C35.0154 47.6663 36.6654 46.0163 36.6654 43.9997C36.6654 41.983 35.0154 40.333 32.9987 40.333ZM54.9987 40.333C52.982 40.333 51.332 41.983 51.332 43.9997C51.332 46.0163 52.982 47.6663 54.9987 47.6663C57.0154 47.6663 58.6654 46.0163 58.6654 43.9997C58.6654 41.983 57.0154 40.333 54.9987 40.333ZM43.9987 40.333C41.982 40.333 40.332 41.983 40.332 43.9997C40.332 46.0163 41.982 47.6663 43.9987 47.6663C46.0154 47.6663 47.6654 46.0163 47.6654 43.9997C47.6654 41.983 46.0154 40.333 43.9987 40.333Z" fill="#212529"/>
</g>
<defs>
<clipPath id="clip0_21827_88381">
<rect width="44" height="44" fill="white" transform="translate(22 22)"/>
</clipPath>
</defs>
</svg>
