<svg width="88" height="88" viewBox="0 0 88 88" fill="none" xmlns="http://www.w3.org/2000/svg">
<rect width="88" height="88" rx="44" fill="#FFF176"/>
<path fill-rule="evenodd" clip-rule="evenodd" d="M45.3176 26.7235L44.0015 27.9998L42.6853 26.7235L44.0015 25.3662L45.3176 26.7235ZM44.0015 30.7144C43.8487 30.8871 43.6854 31.0737 43.5129 31.273C42.4143 32.5429 40.9527 34.3236 39.495 36.3716C38.0337 38.4247 36.6007 40.7124 35.539 42.9977C34.4675 45.3039 33.8346 47.4801 33.8346 49.3444C33.8346 54.7086 38.3464 59.1664 44.0014 59.1664C49.6563 59.1664 54.168 54.7087 54.168 49.3444C54.168 47.48 53.5351 45.3039 52.4637 42.9977C51.402 40.7124 49.9691 38.4247 48.5078 36.3716C47.0502 34.3236 45.5886 32.5428 44.49 31.273C44.3175 31.0736 44.1542 30.8871 44.0015 30.7144ZM44.0015 27.9998C42.6853 26.7235 42.6853 26.7235 42.6853 26.7235L42.6813 26.7276L42.673 26.7363L42.6435 26.7669C42.6183 26.7932 42.582 26.8312 42.5354 26.8804C42.4423 26.9788 42.3078 27.1221 42.138 27.3063C41.7984 27.6747 41.3166 28.2075 40.74 28.874C39.5886 30.2048 38.0502 32.0783 36.5078 34.2454C34.9691 36.4072 33.402 38.895 32.2137 41.4528C31.0351 43.9896 30.168 46.7239 30.168 49.3444C30.168 56.8337 36.4229 62.8331 44.0014 62.8331C51.5799 62.8331 57.8346 56.8338 57.8346 49.3444C57.8346 46.724 56.9675 43.9896 55.789 41.4528C54.6007 38.8951 53.0337 36.4072 51.495 34.2454C49.9527 32.0783 48.4143 30.2048 47.2629 28.874C46.6863 28.2076 46.2046 27.6747 45.865 27.3063C45.6951 27.1221 45.5607 26.9788 45.4675 26.8805C45.4209 26.8313 45.3847 26.7933 45.3595 26.7669L45.33 26.7363L45.3216 26.7276L45.3176 26.7235C45.3176 26.7235 45.3176 26.7235 44.0015 27.9998ZM52.2952 47.4163L51.7525 49.1675C50.6848 52.6126 48.0094 55.3513 44.6072 56.5426L42.8768 57.1485L41.6651 53.6878L43.3954 53.0819C45.7184 52.2685 47.5319 50.3995 48.2501 48.082L48.7929 46.3309L52.2952 47.4163Z" fill="#212529"/>
</svg>
