<svg width="88" height="88" viewBox="0 0 88 88" fill="none" xmlns="http://www.w3.org/2000/svg">
<rect width="88" height="88" rx="44" fill="#FAFAFA"/>
<path fill-rule="evenodd" clip-rule="evenodd" d="M50.372 27H38.8976C33.2309 27 28.6372 31.5696 28.6372 37.2066C28.6372 42.8435 33.2309 47.4131 38.8976 47.4131H55.8705L53.7811 39.6561H38.8976C37.5376 39.6561 36.4351 38.5594 36.4351 37.2066C36.4351 35.8537 37.5376 34.757 38.8976 34.757H52.4614L50.372 27ZM57.2008 52.3518H36.8455C33.1498 52.3518 29.9104 50.4081 28.1041 47.4922C27.9161 48.265 27.8164 49.072 27.8164 49.9023C27.8164 55.5392 32.4101 60.1088 38.0767 60.1088H59.2902L57.2008 52.3518Z" fill="#FFD600"/>
</svg>
