<svg width="88" height="88" viewBox="0 0 88 88" fill="none" xmlns="http://www.w3.org/2000/svg">
<rect width="88" height="88" rx="44" fill="#FFF176"/>
<g clip-path="url(#clip0_21551_136782)">
<path d="M62.3346 40.3335V33.0002C62.3346 30.9835 60.6846 29.3335 58.668 29.3335H29.3346C27.318 29.3335 25.6863 30.9835 25.6863 33.0002V40.3335C27.703 40.3335 29.3346 41.9835 29.3346 44.0002C29.3346 46.0168 27.703 47.6668 25.668 47.6668V55.0002C25.668 57.0168 27.318 58.6668 29.3346 58.6668H58.668C60.6846 58.6668 62.3346 57.0168 62.3346 55.0002V47.6668C60.318 47.6668 58.668 46.0168 58.668 44.0002C58.668 41.9835 60.318 40.3335 62.3346 40.3335ZM58.668 37.6568C56.4863 38.9218 55.0013 41.3052 55.0013 44.0002C55.0013 46.6952 56.4863 49.0785 58.668 50.3435V55.0002H29.3346V50.3435C31.5163 49.0785 33.0013 46.6952 33.0013 44.0002C33.0013 41.2868 31.5346 38.9218 29.353 37.6568L29.3346 33.0002H58.668V37.6568ZM38.6296 51.3335L44.0013 47.8868L49.373 51.3335L47.7413 45.1735L52.673 41.1402L46.3113 40.7552L44.0013 34.8335L41.673 40.7368L35.3113 41.1218L40.243 45.1552L38.6296 51.3335Z" fill="#212529"/>
</g>
<defs>
<clipPath id="clip0_21551_136782">
<rect width="44" height="44" fill="white" transform="translate(22 22)"/>
</clipPath>
</defs>
</svg>
