<svg width="88" height="88" viewBox="0 0 88 88" fill="none" xmlns="http://www.w3.org/2000/svg">
<rect width="88" height="88" rx="44" fill="#FFF176"/>
<path d="M52.6667 49.9167C52.6667 51.4355 51.4355 52.6667 49.9167 52.6667C48.3979 52.6667 47.1667 51.4355 47.1667 49.9167C47.1667 48.3979 48.3979 47.1667 49.9167 47.1667C51.4355 47.1667 52.6667 48.3979 52.6667 49.9167Z" fill="#212529"/>
<path d="M41.5 38.75C41.5 40.2688 40.2688 41.5 38.75 41.5C37.2312 41.5 36 40.2688 36 38.75C36 37.2312 37.2312 36 38.75 36C40.2688 36 41.5 37.2312 41.5 38.75Z" fill="#212529"/>
<path fill-rule="evenodd" clip-rule="evenodd" d="M37.537 48.537L48.537 37.537L51.1297 40.1297L40.1297 51.1297L37.537 48.537Z" fill="#212529"/>
<path fill-rule="evenodd" clip-rule="evenodd" d="M44.1667 60.6667C53.2794 60.6667 60.6667 53.2794 60.6667 44.1667C60.6667 35.054 53.2794 27.6667 44.1667 27.6667C35.054 27.6667 27.6667 35.054 27.6667 44.1667C27.6667 53.2794 35.054 60.6667 44.1667 60.6667ZM44.1667 64.3333C55.3044 64.3333 64.3333 55.3044 64.3333 44.1667C64.3333 33.0289 55.3044 24 44.1667 24C33.0289 24 24 33.0289 24 44.1667C24 55.3044 33.0289 64.3333 44.1667 64.3333Z" fill="#212529"/>
</svg>
