<svg width="88" height="88" viewBox="0 0 88 88" fill="none" xmlns="http://www.w3.org/2000/svg">
<rect width="88" height="88" rx="44" fill="#FAFAFA"/>
<path d="M60.8866 30.5479C61.9178 31.899 62.7908 33.367 63.4879 34.9222L43.7135 49.6952L35.4492 44.445V38.1287L43.7135 43.3789L60.8866 30.5479Z" fill="#21A038"/>
<path d="M27.0152 43.9989C27.0152 43.7155 27.022 43.4339 27.0357 43.154L22.0273 42.9053C22.0102 43.2681 22 43.6344 22 44.004C21.9979 46.8924 22.5585 49.7526 23.6496 52.4208C24.7408 55.0891 26.341 57.5127 28.3585 59.5527L31.9111 55.9541C30.358 54.3865 29.126 52.5233 28.2858 50.4716C27.4456 48.42 27.0138 46.2202 27.0152 43.9989Z" fill="url(#paint0_linear_22046_142045)"/>
<path d="M43.7102 27.0822C43.9897 27.0822 44.2675 27.0925 44.5436 27.1064L44.7942 22.0289C44.4352 22.0116 44.0738 22.0029 43.7102 22.0029C40.8588 21.9994 38.035 22.5667 35.4007 23.6723C32.7663 24.7779 30.3734 26.3999 28.3594 28.4453L31.9119 32.0457C33.4588 30.4712 35.2974 29.2222 37.3222 28.3704C39.3469 27.5186 41.5178 27.0808 43.7102 27.0822Z" fill="url(#paint1_linear_22046_142045)"/>
<path d="M43.7108 60.9178C43.4313 60.9178 43.1534 60.9178 42.8756 60.8953L42.625 65.9711C42.9852 65.9895 43.3472 65.9988 43.7108 65.9988C46.561 66.0017 49.3835 65.4341 52.0164 64.3282C54.6493 63.2223 57.0406 61.6 59.0531 59.5547L55.5074 55.9561C53.9603 57.5296 52.1218 58.778 50.0975 59.6295C48.0731 60.481 45.9027 60.9188 43.7108 60.9178Z" fill="url(#paint2_linear_22046_142045)"/>
<path d="M53.1199 30.0335L57.3407 26.8806C53.4829 23.7146 48.6672 21.9912 43.7031 22V27.081C47.0646 27.0768 50.348 28.1063 53.1199 30.0335Z" fill="url(#paint3_linear_22046_142045)"/>
<path d="M65.4191 44.0001C65.4218 42.6783 65.3077 41.3588 65.0781 40.0576L60.4056 43.5474C60.4056 43.6978 60.4056 43.8481 60.4056 44.0001C60.4068 46.364 59.9179 48.7017 58.9706 50.8618C58.0232 53.0219 56.6384 54.9562 54.9062 56.5392L58.2765 60.3141C60.5284 58.2537 62.328 55.7368 63.5585 52.9264C64.789 50.1159 65.4229 47.0747 65.4191 44.0001Z" fill="#21A038"/>
<path d="M43.7107 60.9181C41.378 60.9189 39.0711 60.4232 36.9394 59.4631C34.8078 58.5031 32.8989 57.0999 31.3363 55.3447L27.6133 58.7585C29.646 61.0412 32.1295 62.8652 34.9027 64.1126C37.6758 65.3599 40.6766 66.0026 43.7107 65.999V60.9181Z" fill="url(#paint4_linear_22046_142045)"/>
<path d="M32.5145 31.4594L29.1461 27.6846C26.8934 29.7446 25.0932 32.2614 23.8621 35.0718C22.6311 37.8823 21.9966 40.9236 22 43.9985H27.0152C27.0142 41.6348 27.5032 39.297 28.4505 37.1369C29.3979 34.9769 30.7825 33.0426 32.5145 31.4594Z" fill="url(#paint5_linear_22046_142045)"/>
<defs>
<linearGradient id="paint0_linear_22046_142045" x1="29.3728" y1="58.9187" x2="23.7617" y2="42.9136" gradientUnits="userSpaceOnUse">
<stop offset="0.14" stop-color="#F1E813"/>
<stop offset="0.3" stop-color="#E6E418"/>
<stop offset="0.58" stop-color="#C9DA26"/>
<stop offset="0.89" stop-color="#A2CC39"/>
</linearGradient>
<linearGradient id="paint1_linear_22046_142045" x1="29.7913" y1="29.3436" x2="43.9517" y2="24.019" gradientUnits="userSpaceOnUse">
<stop offset="0.06" stop-color="#0FA7DF"/>
<stop offset="0.54" stop-color="#0098F8"/>
<stop offset="0.92" stop-color="#0290EA"/>
</linearGradient>
<linearGradient id="paint2_linear_22046_142045" x1="42.2944" y1="62.9322" x2="58.274" y2="59.3701" gradientUnits="userSpaceOnUse">
<stop offset="0.12" stop-color="#A2CC39"/>
<stop offset="0.28" stop-color="#86C239"/>
<stop offset="0.87" stop-color="#219F38"/>
</linearGradient>
<linearGradient id="paint3_linear_22046_142045" x1="42.6599" y1="23.7017" x2="56.3356" y2="27.866" gradientUnits="userSpaceOnUse">
<stop offset="0.06" stop-color="#0290EA"/>
<stop offset="0.79" stop-color="#0C89CA"/>
</linearGradient>
<linearGradient id="paint4_linear_22046_142045" x1="28.8713" y1="58.14" x2="43.7708" y2="63.6345" gradientUnits="userSpaceOnUse">
<stop offset="0.13" stop-color="#F1E813"/>
<stop offset="0.3" stop-color="#EAE616"/>
<stop offset="0.53" stop-color="#D8DF1F"/>
<stop offset="0.8" stop-color="#BAD52D"/>
<stop offset="0.98" stop-color="#A2CC39"/>
</linearGradient>
<linearGradient id="paint5_linear_22046_142045" x1="23.8683" y1="44.6136" x2="29.9699" y2="28.952" gradientUnits="userSpaceOnUse">
<stop offset="0.07" stop-color="#A2CC39"/>
<stop offset="0.26" stop-color="#81C45E"/>
<stop offset="0.92" stop-color="#0FA7DF"/>
</linearGradient>
</defs>
</svg>
