<svg width="88" height="88" viewBox="0 0 88 88" fill="none" xmlns="http://www.w3.org/2000/svg">
<rect width="88" height="88" rx="44" fill="#FAFAFA"/>
<path d="M43.7447 66C32.9672 66 24.1992 57.2373 24.1992 46.4652C24.1992 40.2716 27.0402 34.5791 31.9918 30.848L32.1997 30.6934V22H43.4142V26.925C43.5208 26.925 43.6328 26.9197 43.7394 26.9197C54.5169 26.9197 63.2796 35.6877 63.2796 46.4652C63.2849 57.2373 54.5169 66 43.7447 66Z" fill="#19502E"/>
<path d="M41.0069 27.8689L41.5452 27.3412V23.2637H42.1583V29.3027L38.0913 33.3002V23.2637H38.7043V30.1235L39.2426 29.5958V23.2637H39.8556V28.9935L40.394 28.4712V23.2637H41.0069V27.8689ZM36.924 30.1235L36.3857 29.5958V23.2637H35.7675V28.9936L35.2344 28.4659V23.2637H34.6161V27.8689L34.0778 27.3412V23.2637H33.4648V29.3027L37.537 33.3002V23.2637H36.924V30.1235ZM38.0913 36.6529L42.1583 32.65V30.0915L38.0913 34.0731V36.6529ZM38.0913 46.7801L42.1583 42.7825V40.0641L38.0913 44.0457V46.7801ZM42.1583 36.0026L38.0913 40.0002V37.4204L42.1583 33.4441V36.0026ZM42.1583 39.3553L38.0913 43.3528V40.7731L42.1583 36.7968V39.3553ZM33.4648 42.7825L37.537 46.7801V44.0457L33.4648 40.0641V42.7825ZM33.4648 32.6553L37.537 36.6529V34.0731L33.4648 30.0915V32.6553ZM37.537 40.0002L33.4648 36.0026V33.4441L37.537 37.4204V40.0002ZM33.4648 39.3553L37.537 43.3528V40.7731L33.4648 36.7914V39.3553ZM48.2505 41.466H57.7168C57.994 41.466 58.2285 41.7005 58.2231 41.9884V42.3081C58.2231 42.5959 57.994 42.8305 57.7115 42.8305H56.2563V43.2782H56.9812V43.9071H56.2563V44.5574H56.9812V45.7568H56.2563V45.213H55.1796V45.7568H54.4547V44.5574H55.1796V43.9071H54.4547V43.2782H55.1796V42.8305H47.8187C48.0266 43.1556 48.1492 43.5394 48.1492 43.9552C48.1492 45.1331 47.1898 46.0872 46.0119 46.0872C44.8339 46.0872 43.8799 45.1331 43.8799 43.9552C43.8799 43.4914 44.029 43.0651 44.2796 42.7186C44.093 42.5959 43.9704 42.3881 43.9704 42.1482C43.9704 41.9084 44.093 41.7005 44.2796 41.5779C44.029 41.2261 43.8799 40.805 43.8799 40.3413C43.8799 39.1634 44.8339 38.2093 46.0119 38.2093C47.1898 38.2093 48.1492 39.1634 48.1492 40.3413C48.1492 40.757 48.0266 41.1408 47.8187 41.466H48.2505ZM46.0119 45.0478C46.6195 45.0478 47.1152 44.5574 47.1152 43.9498C47.1152 43.5021 46.5982 42.4361 46.5982 42.4361V41.8551C46.5982 41.8551 47.1152 40.7838 47.1152 40.336C47.1152 39.7283 46.6195 39.2327 46.0119 39.2327C45.4095 39.2327 44.9139 39.7283 44.9139 40.336C44.9139 40.5598 44.9778 40.7677 45.095 40.9383L45.4042 41.4606C45.2123 41.6312 45.095 41.8764 45.095 42.1482C45.095 42.42 45.2123 42.6652 45.4042 42.8305L45.095 43.3475C44.9778 43.518 44.9139 43.7259 44.9139 43.9498C44.9139 44.5574 45.4095 45.0478 46.0119 45.0478Z" fill="#FFCB05"/>
<path d="M43.7471 28.1836C43.4539 28.1836 43.1608 28.1889 42.873 28.2049V29.4522C43.1608 29.4362 43.4539 29.4308 43.7471 29.4308C53.1547 29.4308 60.7821 37.0582 60.7821 46.4711C60.7821 55.8735 53.1547 63.5009 43.7471 63.5009C34.3341 63.4955 26.7068 55.8681 26.7068 46.4659C26.7068 41.2423 29.0573 36.5678 32.7564 33.4444V31.856C28.3271 35.1926 25.4648 40.4908 25.4648 46.4659C25.4648 56.5557 33.6519 64.7374 43.7471 64.7374C53.8423 64.7374 62.0294 56.5557 62.0294 46.4659C62.024 36.3706 53.8423 28.1836 43.7471 28.1836ZM29.7663 42.8307V40.171C29.7663 40.171 30.198 41.642 31.829 43.2838C32.3556 43.8104 32.9625 44.3992 33.7211 45.1352L33.7213 45.1354L33.722 45.1361L33.723 45.137V45.1371L33.7239 45.1379C34.2008 45.6006 34.7377 46.1216 35.3522 46.7216C35.4094 46.7776 35.4712 46.8359 35.5364 46.8975L35.5365 46.8976C36.2488 47.5702 37.3669 48.6261 37.3669 51.0285V53.9653C37.1005 53.3096 36.8979 52.9312 35.72 51.78C35.6933 51.7532 34.7333 50.8092 33.7335 49.8262C32.7344 48.8437 31.6957 47.8223 31.5092 47.6385C30.8749 47.0042 29.7663 45.3731 29.7663 42.8307ZM33.7211 51.7019L33.7219 51.7026C34.1993 52.1658 34.7368 52.6874 35.3522 53.2884C35.4077 53.3422 35.4677 53.3984 35.5307 53.4576L35.5308 53.4577C36.2427 54.1258 37.3674 55.1814 37.3723 57.5951V60.7079L37.3525 60.6593C37.0951 60.0249 36.874 59.48 35.7253 58.3573C35.6773 58.304 31.8823 54.5942 31.5092 54.2318C30.9229 53.5655 29.7663 51.9452 29.7663 49.408V47.1108C29.7663 47.1108 30.198 48.2141 31.829 49.8505C32.3556 50.377 32.9625 50.9659 33.7211 51.7019ZM57.4828 54.8128C57.2323 55.2232 56.9605 55.6177 56.678 56.0067V52.3556H57.4828V54.8128ZM59.0232 51.4655C59.1404 51.1137 59.2418 50.7565 59.3323 50.3941H56.678V51.0497H57.083C57.7866 51.0337 58.5755 51.0231 59.0232 51.4655ZM40.6397 50.3088H41.3593V57.5897H40.6397V50.3088ZM38.9874 48.9017H41.3593C41.9722 48.9017 42.3986 49.0296 42.6544 49.2694C42.905 49.504 43.0169 49.9357 43.0169 50.5487V57.3552C43.0169 57.9735 42.8996 58.3999 42.6544 58.6398C42.276 59.0129 41.5831 59.0129 41.0075 59.0129C40.8796 59.0022 40.7569 59.0022 40.6451 59.0022V62.2269C40.7074 62.238 40.7695 62.2494 40.8314 62.2609C41.0076 62.2934 41.1832 62.3259 41.3646 62.3495V59.7005C42.4572 59.7005 43.1768 59.3274 43.5126 58.5812V62.5254H43.7472C43.8963 62.5254 44.051 62.5254 44.2001 62.52V50.6766C44.2001 50.0477 44.3281 49.6105 44.5626 49.3601C44.8025 49.1096 45.2289 48.987 45.8365 48.987C45.9201 48.987 46.0088 48.9853 46.1008 48.9835H46.1009C46.6903 48.9725 47.4183 48.959 47.8194 49.3601C48.0592 49.6105 48.1711 50.053 48.1711 50.6766V54.1679H46.5401V50.442H45.8365V62.4028C46.071 62.3762 46.3055 62.3389 46.5401 62.2962V54.866H48.1711V61.9125C48.5069 61.8165 48.8374 61.7099 49.1625 61.5926V55.1432C49.1625 54.413 49.3384 53.864 50.0793 53.6134L49.2585 49.1308H50.9054L51.1826 54.0292H51.3851L51.6623 49.1308H53.4L52.4725 53.6134C53.2507 53.8854 53.4 54.3651 53.4 55.1432V59.3113C53.8797 58.9489 54.3434 58.5598 54.7805 58.1441V49.0935H59.6042C59.6361 48.8804 59.6681 48.6565 59.6947 48.4379H48.4057L48.5655 49.2481C48.2084 48.5925 47.5315 48.2621 46.5401 48.2621H45.8365C44.6426 48.2621 43.9124 48.7365 43.6352 49.6852C43.3793 48.6938 42.6225 48.1982 41.3646 48.1982H38.2731V61.5713C38.5076 61.6567 38.7474 61.7366 38.9874 61.8112V48.9017ZM53.9756 54.0506L53.1974 53.3096L53.9756 49.2908V54.0506ZM51.6463 60.4573C51.4012 60.5959 51.156 60.7239 50.9054 60.8518V54.9407H51.6463V60.4573Z" fill="white"/>
</svg>
