<svg width="88" height="88" viewBox="0 0 88 88" fill="none" xmlns="http://www.w3.org/2000/svg">
<rect width="88" height="88" rx="44" fill="#FFF176"/>
<g clip-path="url(#clip0_21551_140206)">
<path d="M62.3307 38.5003L43.9974 25.667L25.6641 38.5003H42.1641V62.3337H45.8307V38.5003H62.3307ZM43.9974 30.1403L50.7074 34.8337H37.2874L43.9974 30.1403Z" fill="#212529"/>
<path d="M29.5855 44.0005L25.9922 44.6788L27.4955 52.6905V62.3338H31.1622L31.1989 55.0005H34.8289V62.3338H38.4955V51.3338H30.9789L29.5855 44.0005Z" fill="#212529"/>
<path d="M57.0128 51.3338H49.4961V62.3338H53.1628V55.0005H56.7928L56.8294 62.3338H60.4961V52.6905L61.9994 44.6788L58.4061 44.0005L57.0128 51.3338Z" fill="#212529"/>
</g>
<defs>
<clipPath id="clip0_21551_140206">
<rect width="44" height="44" fill="white" transform="translate(22 22)"/>
</clipPath>
</defs>
</svg>
