<svg width="88" height="88" viewBox="0 0 88 88" fill="none" xmlns="http://www.w3.org/2000/svg">
<rect width="88" height="88" rx="44" fill="#FAFAFA"/>
<path fill-rule="evenodd" clip-rule="evenodd" d="M22 44.0119C22 31.8673 31.8709 22 44.0149 22C56.1315 22 66 31.8673 66 44.0119C66 56.1315 56.1315 66 44.0149 66C31.8709 66 22 56.1315 22 44.0119ZM23.0999 44.0119C23.0999 55.5252 32.482 64.8995 44.0149 64.8995C55.5246 64.8995 64.9001 55.5228 64.9001 44.0119C64.9001 32.4796 55.5282 23.1005 44.0149 23.1005C32.4784 23.1005 23.0999 32.4748 23.0999 44.0119ZM50.2573 30.1808C46.7757 28.6279 40.288 28.474 34.9736 30.8408C35.3985 30.5365 35.8419 30.2619 36.302 30.0161C36.5825 29.8657 36.8696 29.726 37.1614 29.5983C38.8348 28.8189 41.5335 28.0634 44.897 28.0634C45.0557 28.0634 45.2145 28.0646 45.3738 28.0681C48.2497 28.1195 51.6592 29.1125 53.7432 31.1738C54.0977 31.6059 54.303 32.0368 54.3787 32.3698C56.0324 33.2101 56.998 33.9978 57.531 34.9145C57.7619 35.3967 57.8377 35.904 57.7339 36.49C58.2764 36.7944 58.7466 37.2121 59.1125 37.7158C59.3375 38.0966 59.5159 38.5251 59.5684 38.913C59.643 39.4179 59.6931 40.0027 59.159 40.6914C59.7188 40.9719 60.1748 41.7573 60.2297 42.0915C60.5095 43.334 59.6931 44.5562 58.6517 45.5003C57.8723 46.1807 56.4944 46.9446 55.0304 47.5545C54.1985 47.9006 53.3385 48.1978 52.5454 48.4007C49.4893 49.1742 46.6706 49.6301 44.2035 50.0299C43.1842 50.1959 42.2246 50.351 41.333 50.5145C42.1458 50.7091 43.1287 50.9418 44.4237 51.0982C45.3153 51.2068 46.3549 51.2784 47.5897 51.2784C54.072 51.2784 59.7958 48.2217 59.7958 48.2217C59.7958 48.2217 59.6699 48.606 59.5404 48.9629C55.4213 51.4551 48.8865 52.4971 46.0864 52.3694C43.263 52.2405 40.8734 51.8096 38.5328 51.0958C37.8179 51.2975 37.1137 51.535 36.4232 51.8096C39.986 53.4376 42.6799 53.7957 45.7074 54.0225C48.8077 54.254 53.9485 53.5128 58.268 51.9397C58.1713 52.0375 58.0973 52.1581 58.0251 52.2763C57.9457 52.4052 57.8676 52.5329 57.7619 52.626C55.5484 53.7957 50.8714 54.9666 48.5052 55.068C46.1634 55.1707 43.3155 55.068 40.8221 54.6085C38.6856 54.1788 36.9281 53.5128 35.0983 52.7024C34.7707 52.953 34.6179 53.2622 34.5385 53.619C41.6898 57.3585 48.3494 57.4325 55.9578 55.068L55.2686 55.7305C46.9004 59.1405 40.3638 57.8156 35.3 55.3724C35.1252 55.296 34.9211 55.2184 34.7707 55.1182C35.2547 55.9334 39.1171 58.7574 43.4414 59.1143C45.005 59.2479 46.75 59.1704 48.3673 58.9424C49.8306 58.7359 51.1901 58.4053 52.2166 57.9959L50.9454 58.6559C49.9016 59.1656 47.1302 60.3389 43.2618 60.0822C38.1002 59.7242 35.1998 57.4337 33.9017 56.2401C33.2918 55.6768 33.0143 55.043 32.8347 54.254C31.6638 53.6429 30.9268 53.0043 30.3192 52.0387C29.9623 51.5052 30.0358 50.8702 30.1115 50.3319L30.2703 49.8796C29.7069 49.4678 29.1227 49.0357 28.8941 48.606C28.3821 47.6893 28.6924 46.8992 29.0469 46.2881C28.9341 46.158 28.8249 46.0279 28.7258 45.8978C28.5551 45.6722 28.4143 45.4466 28.3373 45.221C28.1827 44.814 28.1589 44.4022 28.2048 43.9463C28.3086 43.1848 28.7157 42.4746 29.2498 41.8611C30.367 40.5625 32.1514 39.5456 35.1741 38.5537C37.4789 37.7839 38.7166 37.5177 40.1955 37.2002C40.6281 37.1071 41.0811 37.0104 41.5872 36.8946C44.2065 36.2883 47.3354 36.0866 49.953 35.1699C42.653 33.8988 35.075 35.0673 28.8941 39.3128L29.2999 38.1181C34.8441 34.5063 40.9749 32.3698 51.3512 34.1769C51.911 33.8451 52.241 33.5132 52.3962 32.8532C49.8002 31.9127 46.9786 31.582 43.3423 31.631C40.0851 31.7348 34.2073 32.9511 31.0586 34.8154L32.0207 33.6171C34.2073 32.3149 39.9299 30.6128 44.2322 30.5365C47.2561 30.4613 48.8077 30.6379 52.4207 31.6059C52.0871 30.9984 51.3512 30.6904 50.2573 30.1808ZM55.8015 35.4755C55.7024 34.7629 54.8884 34.0754 54.1746 33.6171C54.1084 33.8486 53.9264 34.1112 53.7366 34.344C53.634 34.4705 53.5289 34.5875 53.4388 34.6865C54.2272 34.8918 55.0412 35.1926 55.8015 35.4755ZM52.3204 35.7023C51.8084 36.1105 51.2265 36.465 50.3588 36.7992C51.7863 37.0486 52.8545 37.4568 54.072 37.7898C54.0845 37.7958 54.0989 37.7982 54.1126 37.797C54.3775 37.797 55.2489 36.9913 55.3993 36.7705C54.9278 36.564 54.3984 36.3563 53.8309 36.1618C53.3505 35.9971 52.8432 35.8407 52.3204 35.7023ZM57.7619 39.4429C58.0908 38.8067 57.8879 38.3997 57.2033 37.8137C56.9223 38.1479 56.6167 38.4248 56.2867 38.679C56.5266 38.7936 56.7569 38.8927 56.9795 38.9977C57.2511 39.1254 57.5113 39.2615 57.7619 39.4429ZM46.3185 38.0966C42.961 38.5036 39.2454 39.2126 36.0675 40.1555L35.898 40.2068C34.3207 40.6866 28.3564 42.4961 30.1676 44.9907L30.1891 44.9668C30.3622 44.771 31.6196 43.3423 35.5823 42.1905C38.3699 41.3717 41.2279 40.8513 44.1307 40.3226C46.7381 39.8475 49.3818 39.3653 52.0417 38.6552C50.4584 38.2338 49.3794 37.982 48.0295 37.9808C47.5133 37.9808 46.9577 38.0178 46.3185 38.0966ZM49.9548 41.1748C48.1495 41.6319 43.7726 42.2681 39.0693 43.285C37.5929 43.6157 33.5473 44.5562 31.5635 46.2368C31.8816 46.4993 32.1347 46.645 32.4056 46.787C32.6103 46.8944 32.8257 47.0007 33.0877 47.1534C33.9017 46.6175 35.0225 46.109 36.6786 45.6746C39.2907 44.9811 41.321 44.6469 43.621 44.2686L44.3079 44.1552C46.8771 43.7661 51.7338 42.7491 54.4032 41.7823C55.0173 41.5747 55.5926 41.3168 56.0826 41.0173C56.3052 40.8812 56.5099 40.7368 56.6925 40.5852C56.514 40.3847 54.7846 39.5456 54.7332 39.6232C53.6686 40.1304 52.142 40.6377 49.9548 41.1748ZM51.7606 44.635C46.3185 46.109 42.3732 46.3096 37.8961 47.41C37.3804 47.5401 36.857 47.6905 36.3456 47.8624C35.9732 47.9865 35.6068 48.1226 35.2547 48.2718C36.0908 48.7051 37.0074 49.0882 37.9217 49.4451C39.7527 48.9104 40.6216 48.6812 43.2618 48.2491L44.7281 47.9854C46.1264 47.7299 48.079 47.3683 49.6206 47.0556C53.6686 46.1866 59.5941 44.3032 58.0174 41.8611C57.9386 41.928 57.8598 41.9888 57.781 42.0497C57.6814 42.1285 57.5823 42.2072 57.4832 42.2944C56.2867 43.2051 54.3787 43.9463 51.7606 44.635ZM31.1064 48.7051C31.2824 48.5284 31.5134 48.3745 31.6918 48.2217C31.2824 48.0104 31.002 47.8314 30.6803 47.6261L30.4953 47.5079C30.2912 47.971 30.7018 48.4735 31.1064 48.7051ZM35.8353 50.1815C35.0983 49.8509 34.3111 49.5227 33.5473 49.1658C33.1916 49.395 32.8627 49.6217 32.6073 49.8509C33.2172 50.2078 33.8039 50.536 34.415 50.8714C34.8644 50.5945 35.34 50.363 35.8353 50.1815ZM32.8627 52.5496C32.9361 52.293 33.0656 52.0913 33.2441 51.837C33.043 51.7296 32.8424 51.6234 32.6419 51.5124C32.4092 51.3823 32.1776 51.2474 31.9461 51.0958C31.918 51.5816 32.226 52.0137 32.8627 52.5496Z" fill="#476BF0"/>
</svg>
