<svg width="88" height="88" viewBox="0 0 88 88" fill="none" xmlns="http://www.w3.org/2000/svg">
<rect width="88" height="88" rx="44" fill="#FFF176"/>
<path fill-rule="evenodd" clip-rule="evenodd" d="M33.6036 53.1665C31.4359 51.2323 29.6261 48.3533 29.332 44.1694C29.332 43.0626 29.5494 42.091 29.8909 41.2287C30.3791 39.9957 31.1211 38.986 31.8447 38.1236C32.0823 37.8404 32.3179 37.5731 32.5419 37.319C32.9687 36.8348 33.3533 36.3985 33.6289 35.9915C33.5893 36.3281 33.5355 36.6658 33.4816 37.0041C33.293 38.1868 33.1032 39.3769 33.5183 40.5522C33.6195 40.8388 33.7568 41.1245 33.9387 41.409C34.1203 41.6928 34.3464 41.9755 34.6257 42.2566C34.8733 42.5057 35.1627 42.7535 35.5 43C36.1475 43.4808 36.8535 42.5667 36.5376 41.6028L36.5323 41.5872C36.5225 41.5581 36.5117 41.5291 36.5 41.5C36.216 40.7963 35.9914 40.1185 35.8216 39.4651C35.7995 39.3801 35.7784 39.2954 35.7581 39.2112C35.5918 38.5196 35.4874 37.8557 35.4393 37.2177C35.4131 36.8712 35.4035 36.5323 35.4096 36.2008C35.4124 36.0437 35.4188 35.8882 35.4286 35.7344C35.6899 31.6396 38.3753 28.6984 41.6468 26.3535C42.9313 25.4328 44.3062 24.6041 45.6602 23.8335C45.2539 25.5563 45.2223 26.9888 45.4611 28.2163C46.0581 31.2843 48.3444 33.0712 50.6924 34.9062C52.7714 36.5311 54.8988 38.1937 55.9444 40.817C57.7891 45.0782 56.6672 49.9488 53.4253 53.1665H56.0013C57.5661 53.1665 58.8346 54.435 58.8346 55.9998V60.9998C58.8346 62.5646 57.5661 63.8332 56.0013 63.8332H31.0013C29.4365 63.8332 28.168 62.5646 28.168 60.9998V55.9998C28.168 54.435 29.4365 53.1665 31.0013 53.1665H33.6036ZM52.5384 42.1747L52.5582 42.2245L52.5795 42.2737C53.8333 45.1699 53.0265 48.6151 50.5503 50.8398C48.8146 52.3686 46.3786 53.1279 43.6908 53.1665H43.2567C42.6771 53.1583 42.0871 53.1173 41.4911 53.044C40.5876 52.9304 38.4687 52.3385 36.5802 50.8756C35.185 49.7949 33.911 48.2471 33.314 45.9438L33.3291 45.9549C34.2867 46.6597 35.5659 47.0032 36.8848 46.6736C38.1029 46.3692 38.9311 45.5999 39.4153 44.902C40.3759 43.5175 40.5379 41.7075 39.9001 40.1275C38.466 36.5747 39.089 34.365 40.3239 32.615C40.8475 31.873 41.5121 31.1732 42.2924 30.4993C42.3658 30.7067 42.4454 30.9118 42.5311 31.1146C43.5001 33.4066 45.1027 35.0306 46.5297 36.2572C47.1672 36.8052 47.8367 37.3283 48.4316 37.793L48.6329 37.9504C49.3051 38.4763 49.8899 38.9411 50.4244 39.4204C51.48 40.3671 52.1552 41.2133 52.5384 42.1747ZM43.3535 56.8332H31.8346V60.1665H55.168V56.8332H43.5759C43.5017 56.8336 43.4276 56.8336 43.3535 56.8332Z" fill="#212529"/>
</svg>
