<svg width="88" height="88" viewBox="0 0 88 88" fill="none" xmlns="http://www.w3.org/2000/svg">
<rect width="88" height="88" rx="44" fill="#FFF176"/>
<path d="M51.332 25.6665C46.272 25.6665 42.1654 29.7732 42.1654 34.8332C42.1654 39.8932 46.272 43.9998 51.332 43.9998C56.392 43.9998 60.4987 39.8932 60.4987 34.8332C60.4987 29.7732 56.392 25.6665 51.332 25.6665ZM51.332 40.3332C48.2887 40.3332 45.832 37.8765 45.832 34.8332C45.832 31.7898 48.2887 29.3332 51.332 29.3332C54.3754 29.3332 56.832 31.7898 56.832 34.8332C56.832 37.8765 54.3754 40.3332 51.332 40.3332ZM56.832 51.3332H53.1654C53.1654 49.1332 51.7904 47.1532 49.737 46.3832L38.4437 42.1665H23.832V62.3332H34.832V59.6932L47.6654 63.2498L62.332 58.6665V56.8332C62.332 53.7898 59.8754 51.3332 56.832 51.3332ZM31.1654 58.6665H27.4987V45.8332H31.1654V58.6665ZM47.6104 59.4182L34.832 55.9165V45.8332H37.7837L48.4537 49.8115C49.077 50.0498 49.4987 50.6548 49.4987 51.3332C49.4987 51.3332 45.832 51.2415 45.282 51.0582L40.9187 49.6098L39.7637 53.0932L44.127 54.5415C45.062 54.8532 46.0337 54.9998 47.0237 54.9998H56.832C57.547 54.9998 58.1887 55.4398 58.482 56.0448L47.6104 59.4182Z" fill="#212529"/>
</svg>
