<svg width="88" height="88" viewBox="0 0 88 88" fill="none" xmlns="http://www.w3.org/2000/svg">
<rect width="88" height="88" rx="44" fill="#FFF176"/>
<g clip-path="url(#clip0_21551_140155)">
<path d="M58.6641 33.0003H51.3307V29.3337C51.3307 27.317 49.6807 25.667 47.6641 25.667H40.3307C38.3141 25.667 36.6641 27.317 36.6641 29.3337V33.0003H29.3307C27.3141 33.0003 25.6641 34.6503 25.6641 36.667V58.667C25.6641 60.6837 27.3141 62.3337 29.3307 62.3337H58.6641C60.6807 62.3337 62.3307 60.6837 62.3307 58.667V36.667C62.3307 34.6503 60.6807 33.0003 58.6641 33.0003ZM40.3307 29.3337H47.6641V33.0003H40.3307V29.3337ZM58.6641 58.667H29.3307V36.667H58.6641V58.667Z" fill="#212529"/>
<path d="M45.8307 40.3335H42.1641V45.8335H36.6641V49.5002H42.1641V55.0002H45.8307V49.5002H51.3307V45.8335H45.8307V40.3335Z" fill="#212529"/>
</g>
<defs>
<clipPath id="clip0_21551_140155">
<rect width="44" height="44" fill="white" transform="translate(22 22)"/>
</clipPath>
</defs>
</svg>
