<svg width="88" height="88" viewBox="0 0 88 88" fill="none" xmlns="http://www.w3.org/2000/svg">
<rect width="88" height="88" rx="44" fill="#FFF176"/>
<g clip-path="url(#clip0_21551_140230)">
<path d="M42.1667 49.5002H45.8333V53.1668H42.1667V49.5002ZM42.1667 34.8335H45.8333V45.8335H42.1667V34.8335ZM56.8333 27.5002H49.17C48.4 25.3735 46.3833 23.8335 44 23.8335C41.6167 23.8335 39.6 25.3735 38.83 27.5002H31.1667C30.91 27.5002 30.6717 27.5185 30.4333 27.5735C29.7183 27.7202 29.0767 28.0868 28.5817 28.5818C28.2517 28.9118 27.9767 29.3152 27.7933 29.7552C27.61 30.1768 27.5 30.6535 27.5 31.1668V56.8335C27.5 57.3285 27.61 57.8235 27.7933 58.2635C27.9767 58.7035 28.2517 59.0885 28.5817 59.4368C29.0767 59.9318 29.7183 60.2985 30.4333 60.4452C30.6717 60.4818 30.91 60.5002 31.1667 60.5002H56.8333C58.85 60.5002 60.5 58.8502 60.5 56.8335V31.1668C60.5 29.1502 58.85 27.5002 56.8333 27.5002ZM44 27.0418C44.7517 27.0418 45.375 27.6652 45.375 28.4168C45.375 29.1685 44.7517 29.7918 44 29.7918C43.2483 29.7918 42.625 29.1685 42.625 28.4168C42.625 27.6652 43.2483 27.0418 44 27.0418ZM56.8333 56.8335H31.1667V31.1668H56.8333V56.8335Z" fill="#212529"/>
</g>
<defs>
<clipPath id="clip0_21551_140230">
<rect width="44" height="44" fill="white" transform="translate(22 22)"/>
</clipPath>
</defs>
</svg>
