<svg width="16" height="14" viewBox="0 0 16 14" fill="none" xmlns="http://www.w3.org/2000/svg">
<path d="M8.00002 2.99997C10.5267 2.99997 12.78 4.41997 13.88 6.66664C13.4867 7.47997 12.9334 8.17997 12.2734 8.74664L13.2134 9.68664C14.14 8.86664 14.8734 7.83997 15.3334 6.66664C14.18 3.73997 11.3334 1.66663 8.00002 1.66663C7.15335 1.66663 6.34002 1.79997 5.57335 2.04663L6.67335 3.14663C7.10669 3.05997 7.54669 2.99997 8.00002 2.99997ZM7.28669 3.75997L8.66669 5.13997C9.04669 5.30663 9.35335 5.6133 9.52002 5.9933L10.9 7.3733C10.9534 7.14664 10.9934 6.90663 10.9934 6.65997C11 5.00663 9.65335 3.66663 8.00002 3.66663C7.75335 3.66663 7.52002 3.69997 7.28669 3.75997ZM1.34002 1.57997L3.12669 3.36663C2.04002 4.21997 1.18002 5.3533 0.666687 6.66664C1.82002 9.5933 4.66669 11.6666 8.00002 11.6666C9.01335 11.6666 9.98669 11.4733 10.88 11.12L13.16 13.4L14.1 12.46L2.28002 0.633301L1.34002 1.57997ZM6.34002 6.57997L8.08002 8.31997C8.05335 8.32663 8.02669 8.3333 8.00002 8.3333C7.08002 8.3333 6.33335 7.58664 6.33335 6.66664C6.33335 6.6333 6.34002 6.6133 6.34002 6.57997ZM4.07335 4.3133L5.24002 5.47997C5.08669 5.84663 5.00002 6.24663 5.00002 6.66664C5.00002 8.31997 6.34669 9.66664 8.00002 9.66664C8.42002 9.66664 8.82002 9.57997 9.18002 9.42664L9.83335 10.08C9.24669 10.24 8.63335 10.3333 8.00002 10.3333C5.47335 10.3333 3.22002 8.9133 2.12002 6.66664C2.58669 5.7133 3.26669 4.92663 4.07335 4.3133Z" fill="#212529"/>
</svg>
