<svg width="16" height="11" viewBox="0 0 16 11" fill="none" xmlns="http://www.w3.org/2000/svg">
<path d="M8.00002 1.99999C10.5267 1.99999 12.78 3.41999 13.88 5.66666C12.78 7.91332 10.5267 9.33332 8.00002 9.33332C5.47335 9.33332 3.22002 7.91332 2.12002 5.66666C3.22002 3.41999 5.47335 1.99999 8.00002 1.99999ZM8.00002 0.666656C4.66669 0.666656 1.82002 2.73999 0.666687 5.66666C1.82002 8.59332 4.66669 10.6667 8.00002 10.6667C11.3334 10.6667 14.18 8.59332 15.3334 5.66666C14.18 2.73999 11.3334 0.666656 8.00002 0.666656ZM8.00002 3.99999C8.92002 3.99999 9.66669 4.74666 9.66669 5.66666C9.66669 6.58666 8.92002 7.33332 8.00002 7.33332C7.08002 7.33332 6.33335 6.58666 6.33335 5.66666C6.33335 4.74666 7.08002 3.99999 8.00002 3.99999ZM8.00002 2.66666C6.34669 2.66666 5.00002 4.01332 5.00002 5.66666C5.00002 7.31999 6.34669 8.66666 8.00002 8.66666C9.65335 8.66666 11 7.31999 11 5.66666C11 4.01332 9.65335 2.66666 8.00002 2.66666Z" fill="#212529"/>
</svg>
