<svg width="328" height="262" viewBox="0 0 328 262" fill="none" xmlns="http://www.w3.org/2000/svg">
<g clip-path="url(#clip0_19284_125498)">
<path d="M188.42 61.0784C193.967 61.0784 198.465 56.5662 198.465 51.0001C198.465 45.4341 193.967 40.9219 188.42 40.9219C182.872 40.9219 178.375 45.4341 178.375 51.0001C178.375 56.5662 182.872 61.0784 188.42 61.0784Z" fill="#F2F2F2"/>
<path d="M266.34 210.651C281.271 199.241 288.402 180.068 283.937 161.778C283.826 161.323 283.709 160.87 283.586 160.418C280.626 149.561 273.304 139.242 262.632 135.773C253.671 132.861 243.89 135.1 234.541 133.942C216.19 131.668 201.962 116.77 191.952 101.172C181.941 85.5736 174.247 68.1134 160.945 55.2269C139.018 33.9856 103.25 29.4124 76.0645 43.2389C48.8786 57.0654 31.5615 87.7406 32.3001 118.312C33.0386 148.884 51.1274 178.113 77.3968 193.62C87.0471 199.317 98.2085 203.353 109.316 201.941C118.955 200.716 127.712 195.519 137.305 193.977C152.387 191.551 167.373 198.393 180.418 206.366C193.463 214.339 206.064 223.789 220.888 227.486C235.282 231.075 253.114 220.759 266.34 210.651Z" fill="#F2F2F2"/>
<path d="M244.889 43.8807C244.562 43.6617 244.231 43.4541 243.904 43.2428C234.443 37.1717 224.302 32.2397 213.691 28.5485L211.231 62.6023H195.634V23.5775C194.652 23.3737 193.662 23.1812 192.673 23V62.6023H174.138C163.934 62.6023 154.148 58.5353 146.933 51.296C139.717 44.0568 135.664 34.2382 135.664 24.0003V24.0003C134.671 24.2154 133.685 24.4457 132.7 24.691V62.6023H117.603L115.259 30.1301C104.355 34.326 94.0027 39.8437 84.4333 46.5606C84.2678 46.6738 84.1023 46.7908 83.9405 46.9041C83.1091 47.4891 82.289 48.0855 81.4727 48.6894V178.605H125.966L125.179 167.677L120.853 107.681H207.977L203.65 167.677L202.864 178.605H246.864V45.1942C246.21 44.7488 245.551 44.311 244.889 43.8807ZM132.7 97.7733H120.138L117.817 65.5766H132.7V97.7733ZM192.673 97.7733H171.576V97.1354C171.576 96.8288 171.516 96.5251 171.399 96.2419C171.281 95.9586 171.11 95.7013 170.894 95.4846C170.677 95.268 170.421 95.0962 170.138 94.9792C169.856 94.8622 169.553 94.8022 169.247 94.8027H160.075C159.77 94.8026 159.468 94.8629 159.186 94.9801C158.903 95.0973 158.647 95.2691 158.431 95.4857C158.215 95.7023 158.044 95.9595 157.927 96.2426C157.81 96.5257 157.75 96.829 157.751 97.1354V97.7733H135.664V65.5766H192.673V97.7733ZM195.634 97.7733V65.5766H211.016L208.695 97.7733H195.634Z" fill="#3F3D56"/>
<path d="M16 186.924C19.2681 190.809 22.803 194.46 26.5787 197.851L301.421 198.229C305.197 194.838 308.732 191.187 312 187.301L16 186.924Z" fill="#3F3D56"/>
<path d="M202.379 151.934V184.284C202.379 184.696 202.543 185.091 202.833 185.383C203.124 185.674 203.518 185.838 203.928 185.838H251.707C252.118 185.838 252.512 185.674 252.803 185.383C253.093 185.091 253.257 184.696 253.257 184.284V151.934C253.256 151.523 253.092 151.128 252.802 150.837C252.511 150.546 252.118 150.382 251.707 150.381H203.928C203.518 150.382 203.124 150.546 202.834 150.837C202.543 151.128 202.38 151.523 202.379 151.934Z" fill="#3F3D56"/>
<path d="M203.5 152.337V183.885C203.5 184.105 203.588 184.316 203.743 184.472C203.898 184.628 204.109 184.715 204.328 184.716H251.31C251.529 184.715 251.74 184.628 251.895 184.472C252.05 184.316 252.138 184.105 252.138 183.885V152.337C252.138 152.117 252.051 151.905 251.896 151.749C251.74 151.593 251.53 151.505 251.31 151.504H204.328C204.108 151.505 203.898 151.593 203.742 151.749C203.587 151.905 203.5 152.117 203.5 152.337Z" fill="#FFD600"/>
<path d="M201.38 190.592C201.467 190.703 201.578 190.791 201.705 190.852C201.832 190.913 201.97 190.944 202.111 190.943H253.271C253.411 190.943 253.549 190.912 253.675 190.851C253.801 190.791 253.912 190.703 254.001 190.594C254.089 190.485 254.152 190.358 254.184 190.221C254.217 190.085 254.22 189.943 254.191 189.805L253.397 186.02C253.364 185.866 253.293 185.722 253.191 185.603C253.088 185.483 252.958 185.39 252.811 185.334C252.704 185.292 252.591 185.271 252.476 185.271H202.902C202.787 185.271 202.674 185.292 202.568 185.334C202.421 185.39 202.29 185.483 202.188 185.603C202.085 185.722 202.014 185.866 201.982 186.02L201.187 189.805C201.159 189.942 201.162 190.084 201.195 190.221C201.228 190.357 201.291 190.484 201.38 190.592Z" fill="#2F2E41"/>
<path d="M250.721 186.901H251.93C252.031 186.901 252.113 186.819 252.113 186.717V186.137C252.113 186.035 252.031 185.953 251.93 185.953H250.721C250.62 185.953 250.538 186.035 250.538 186.137V186.717C250.538 186.819 250.62 186.901 250.721 186.901Z" fill="#3F3D56"/>
<path d="M247.569 186.901H248.777C248.879 186.901 248.961 186.819 248.961 186.717V186.137C248.961 186.035 248.879 185.953 248.777 185.953H247.569C247.467 185.953 247.385 186.035 247.385 186.137V186.717C247.385 186.819 247.467 186.901 247.569 186.901Z" fill="#3F3D56"/>
<path d="M244.42 186.901H245.629C245.73 186.901 245.812 186.819 245.812 186.717V186.137C245.812 186.035 245.73 185.953 245.629 185.953H244.42C244.319 185.953 244.237 186.035 244.237 186.137V186.717C244.237 186.819 244.319 186.901 244.42 186.901Z" fill="#3F3D56"/>
<path d="M241.268 186.901H242.476C242.578 186.901 242.66 186.819 242.66 186.717V186.137C242.66 186.035 242.578 185.953 242.476 185.953H241.268C241.167 185.953 241.084 186.035 241.084 186.137V186.717C241.084 186.819 241.167 186.901 241.268 186.901Z" fill="#3F3D56"/>
<path d="M238.116 186.901H239.324C239.426 186.901 239.508 186.819 239.508 186.717V186.137C239.508 186.035 239.426 185.953 239.324 185.953H238.116C238.014 185.953 237.932 186.035 237.932 186.137V186.717C237.932 186.819 238.014 186.901 238.116 186.901Z" fill="#3F3D56"/>
<path d="M234.963 186.901H236.172C236.273 186.901 236.355 186.819 236.355 186.717V186.137C236.355 186.035 236.273 185.953 236.172 185.953H234.963C234.862 185.953 234.78 186.035 234.78 186.137V186.717C234.78 186.819 234.862 186.901 234.963 186.901Z" fill="#3F3D56"/>
<path d="M231.815 186.901H233.023C233.125 186.901 233.207 186.819 233.207 186.717V186.137C233.207 186.035 233.125 185.953 233.023 185.953H231.815C231.714 185.953 231.631 186.035 231.631 186.137V186.717C231.631 186.819 231.714 186.901 231.815 186.901Z" fill="#3F3D56"/>
<path d="M228.663 186.901H229.871C229.972 186.901 230.055 186.819 230.055 186.717V186.137C230.055 186.035 229.972 185.953 229.871 185.953H228.663C228.561 185.953 228.479 186.035 228.479 186.137V186.717C228.479 186.819 228.561 186.901 228.663 186.901Z" fill="#3F3D56"/>
<path d="M225.51 186.901H226.719C226.82 186.901 226.902 186.819 226.902 186.717V186.137C226.902 186.035 226.82 185.953 226.719 185.953H225.51C225.409 185.953 225.327 186.035 225.327 186.137V186.717C225.327 186.819 225.409 186.901 225.51 186.901Z" fill="#3F3D56"/>
<path d="M222.358 186.901H223.566C223.668 186.901 223.75 186.819 223.75 186.717V186.137C223.75 186.035 223.668 185.953 223.566 185.953H222.358C222.257 185.953 222.174 186.035 222.174 186.137V186.717C222.174 186.819 222.257 186.901 222.358 186.901Z" fill="#3F3D56"/>
<path d="M219.21 186.901H220.418C220.519 186.901 220.602 186.819 220.602 186.717V186.137C220.602 186.035 220.519 185.953 220.418 185.953H219.21C219.108 185.953 219.026 186.035 219.026 186.137V186.717C219.026 186.819 219.108 186.901 219.21 186.901Z" fill="#3F3D56"/>
<path d="M216.057 186.901H217.266C217.367 186.901 217.449 186.819 217.449 186.717V186.137C217.449 186.035 217.367 185.953 217.266 185.953H216.057C215.956 185.953 215.873 186.035 215.873 186.137V186.717C215.873 186.819 215.956 186.901 216.057 186.901Z" fill="#3F3D56"/>
<path d="M212.905 186.901H214.113C214.215 186.901 214.297 186.819 214.297 186.717V186.137C214.297 186.035 214.215 185.953 214.113 185.953H212.905C212.803 185.953 212.721 186.035 212.721 186.137V186.717C212.721 186.819 212.803 186.901 212.905 186.901Z" fill="#3F3D56"/>
<path d="M209.752 186.901H210.961C211.062 186.901 211.145 186.819 211.145 186.717V186.137C211.145 186.035 211.062 185.953 210.961 185.953H209.752C209.651 185.953 209.569 186.035 209.569 186.137V186.717C209.569 186.819 209.651 186.901 209.752 186.901Z" fill="#3F3D56"/>
<path d="M206.604 186.901H207.812C207.914 186.901 207.996 186.819 207.996 186.717V186.137C207.996 186.035 207.914 185.953 207.812 185.953H206.604C206.503 185.953 206.42 186.035 206.42 186.137V186.717C206.42 186.819 206.503 186.901 206.604 186.901Z" fill="#3F3D56"/>
<path d="M203.452 186.901H204.66C204.762 186.901 204.844 186.819 204.844 186.717V186.137C204.844 186.035 204.762 185.953 204.66 185.953H203.452C203.35 185.953 203.268 186.035 203.268 186.137V186.717C203.268 186.819 203.35 186.901 203.452 186.901Z" fill="#3F3D56"/>
<path d="M250.76 188.482H251.969C252.07 188.482 252.152 188.4 252.152 188.298V187.718C252.152 187.616 252.07 187.534 251.969 187.534H250.76C250.659 187.534 250.577 187.616 250.577 187.718V188.298C250.577 188.4 250.659 188.482 250.76 188.482Z" fill="#3F3D56"/>
<path d="M247.608 188.482H248.816C248.918 188.482 249 188.4 249 188.298V187.718C249 187.616 248.918 187.534 248.816 187.534H247.608C247.507 187.534 247.424 187.616 247.424 187.718V188.298C247.424 188.4 247.507 188.482 247.608 188.482Z" fill="#3F3D56"/>
<path d="M244.456 188.482H245.664C245.765 188.482 245.848 188.4 245.848 188.298V187.718C245.848 187.616 245.765 187.534 245.664 187.534H244.456C244.354 187.534 244.272 187.616 244.272 187.718V188.298C244.272 188.4 244.354 188.482 244.456 188.482Z" fill="#3F3D56"/>
<path d="M241.303 188.482H242.512C242.613 188.482 242.695 188.4 242.695 188.298V187.718C242.695 187.616 242.613 187.534 242.512 187.534H241.303C241.202 187.534 241.12 187.616 241.12 187.718V188.298C241.12 188.4 241.202 188.482 241.303 188.482Z" fill="#3F3D56"/>
<path d="M238.155 188.482H239.363C239.465 188.482 239.547 188.4 239.547 188.298V187.718C239.547 187.616 239.465 187.534 239.363 187.534H238.155C238.053 187.534 237.971 187.616 237.971 187.718V188.298C237.971 188.4 238.053 188.482 238.155 188.482Z" fill="#3F3D56"/>
<path d="M235.002 188.482H236.211C236.312 188.482 236.395 188.4 236.395 188.298V187.718C236.395 187.616 236.312 187.534 236.211 187.534H235.002C234.901 187.534 234.819 187.616 234.819 187.718V188.298C234.819 188.4 234.901 188.482 235.002 188.482Z" fill="#3F3D56"/>
<path d="M231.85 188.482H233.059C233.16 188.482 233.242 188.4 233.242 188.298V187.718C233.242 187.616 233.16 187.534 233.059 187.534H231.85C231.749 187.534 231.666 187.616 231.666 187.718V188.298C231.666 188.4 231.749 188.482 231.85 188.482Z" fill="#3F3D56"/>
<path d="M228.698 188.482H229.906C230.008 188.482 230.09 188.4 230.09 188.298V187.718C230.09 187.616 230.008 187.534 229.906 187.534H228.698C228.596 187.534 228.514 187.616 228.514 187.718V188.298C228.514 188.4 228.596 188.482 228.698 188.482Z" fill="#3F3D56"/>
<path d="M225.549 188.482H226.758C226.859 188.482 226.941 188.4 226.941 188.298V187.718C226.941 187.616 226.859 187.534 226.758 187.534H225.549C225.448 187.534 225.366 187.616 225.366 187.718V188.298C225.366 188.4 225.448 188.482 225.549 188.482Z" fill="#3F3D56"/>
<path d="M222.397 188.482H223.605C223.707 188.482 223.789 188.4 223.789 188.298V187.718C223.789 187.616 223.707 187.534 223.605 187.534H222.397C222.296 187.534 222.213 187.616 222.213 187.718V188.298C222.213 188.4 222.296 188.482 222.397 188.482Z" fill="#3F3D56"/>
<path d="M219.245 188.482H220.453C220.555 188.482 220.637 188.4 220.637 188.298V187.718C220.637 187.616 220.555 187.534 220.453 187.534H219.245C219.143 187.534 219.061 187.616 219.061 187.718V188.298C219.061 188.4 219.143 188.482 219.245 188.482Z" fill="#3F3D56"/>
<path d="M216.092 188.482H217.301C217.402 188.482 217.484 188.4 217.484 188.298V187.718C217.484 187.616 217.402 187.534 217.301 187.534H216.092C215.991 187.534 215.909 187.616 215.909 187.718V188.298C215.909 188.4 215.991 188.482 216.092 188.482Z" fill="#3F3D56"/>
<path d="M212.944 188.482H214.152C214.254 188.482 214.336 188.4 214.336 188.298V187.718C214.336 187.616 214.254 187.534 214.152 187.534H212.944C212.842 187.534 212.76 187.616 212.76 187.718V188.298C212.76 188.4 212.842 188.482 212.944 188.482Z" fill="#3F3D56"/>
<path d="M209.792 188.482H211C211.101 188.482 211.184 188.4 211.184 188.298V187.718C211.184 187.616 211.101 187.534 211 187.534H209.792C209.69 187.534 209.608 187.616 209.608 187.718V188.298C209.608 188.4 209.69 188.482 209.792 188.482Z" fill="#3F3D56"/>
<path d="M206.639 188.482H207.848C207.949 188.482 208.031 188.4 208.031 188.298V187.718C208.031 187.616 207.949 187.534 207.848 187.534H206.639C206.538 187.534 206.456 187.616 206.456 187.718V188.298C206.456 188.4 206.538 188.482 206.639 188.482Z" fill="#3F3D56"/>
<path d="M203.487 188.482H204.695C204.797 188.482 204.879 188.4 204.879 188.298V187.718C204.879 187.616 204.797 187.534 204.695 187.534H203.487C203.385 187.534 203.303 187.616 203.303 187.718V188.298C203.303 188.4 203.385 188.482 203.487 188.482Z" fill="#3F3D56"/>
<path d="M224.601 190.379H236.84C236.941 190.379 237.023 190.297 237.023 190.195V189.615C237.023 189.513 236.941 189.431 236.84 189.431H224.601C224.5 189.431 224.418 189.513 224.418 189.615V190.195C224.418 190.297 224.5 190.379 224.601 190.379Z" fill="#3F3D56"/>
<path d="M211.638 158.406H210.568C210.243 158.406 209.98 158.67 209.98 158.995C209.98 159.321 210.243 159.585 210.568 159.585H211.638C211.962 159.585 212.225 159.321 212.225 158.995C212.225 158.67 211.962 158.406 211.638 158.406Z" fill="white"/>
<path d="M223.872 158.406H222.802C222.478 158.406 222.215 158.67 222.215 158.995C222.215 159.321 222.478 159.585 222.802 159.585H223.872C224.196 159.585 224.459 159.321 224.459 158.995C224.459 158.67 224.196 158.406 223.872 158.406Z" fill="white"/>
<path d="M227.337 158.406H226.267C225.943 158.406 225.68 158.67 225.68 158.995C225.68 159.321 225.943 159.585 226.267 159.585H227.337C227.661 159.585 227.924 159.321 227.924 158.995C227.924 158.67 227.661 158.406 227.337 158.406Z" fill="white"/>
<path d="M220.545 158.308H213.896C213.572 158.308 213.309 158.572 213.309 158.897C213.309 159.223 213.572 159.487 213.896 159.487H220.545C220.869 159.487 221.132 159.223 221.132 158.897C221.132 158.572 220.869 158.308 220.545 158.308Z" fill="white"/>
<path d="M236.857 158.308H230.208C229.884 158.308 229.621 158.572 229.621 158.897C229.621 159.223 229.884 159.487 230.208 159.487H236.857C237.182 159.487 237.445 159.223 237.445 158.897C237.445 158.572 237.182 158.308 236.857 158.308Z" fill="white"/>
<path d="M214.899 161.066H213.829C213.505 161.066 213.242 161.33 213.242 161.655C213.242 161.981 213.505 162.244 213.829 162.244H214.899C215.224 162.244 215.487 161.981 215.487 161.655C215.487 161.33 215.224 161.066 214.899 161.066Z" fill="white"/>
<path d="M227.134 161.066H226.064C225.739 161.066 225.477 161.33 225.477 161.655C225.477 161.981 225.739 162.244 226.064 162.244H227.134C227.458 162.244 227.721 161.981 227.721 161.655C227.721 161.33 227.458 161.066 227.134 161.066Z" fill="white"/>
<path d="M230.602 161.066H229.533C229.208 161.066 228.945 161.33 228.945 161.655C228.945 161.981 229.208 162.244 229.533 162.244H230.602C230.927 162.244 231.19 161.981 231.19 161.655C231.19 161.33 230.927 161.066 230.602 161.066Z" fill="white"/>
<path d="M223.807 160.968H217.158C216.833 160.968 216.57 161.232 216.57 161.557C216.57 161.882 216.833 162.146 217.158 162.146H223.807C224.131 162.146 224.394 161.882 224.394 161.557C224.394 161.232 224.131 160.968 223.807 160.968Z" fill="white"/>
<path d="M240.119 160.968H233.47C233.146 160.968 232.883 161.232 232.883 161.557C232.883 161.882 233.146 162.146 233.47 162.146H240.119C240.443 162.146 240.706 161.882 240.706 161.557C240.706 161.232 240.443 160.968 240.119 160.968Z" fill="white"/>
<path d="M218.161 163.726H217.091C216.767 163.726 216.504 163.989 216.504 164.315C216.504 164.64 216.767 164.904 217.091 164.904H218.161C218.485 164.904 218.748 164.64 218.748 164.315C218.748 163.989 218.485 163.726 218.161 163.726Z" fill="white"/>
<path d="M230.395 163.726H229.326C229.001 163.726 228.738 163.989 228.738 164.315C228.738 164.64 229.001 164.904 229.326 164.904H230.395C230.72 164.904 230.983 164.64 230.983 164.315C230.983 163.989 230.72 163.726 230.395 163.726Z" fill="white"/>
<path d="M233.864 163.726H232.794C232.47 163.726 232.207 163.989 232.207 164.315C232.207 164.64 232.47 164.904 232.794 164.904H233.864C234.188 164.904 234.451 164.64 234.451 164.315C234.451 163.989 234.188 163.726 233.864 163.726Z" fill="white"/>
<path d="M227.068 163.627H220.419C220.095 163.627 219.832 163.891 219.832 164.217C219.832 164.542 220.095 164.806 220.419 164.806H227.068C227.393 164.806 227.655 164.542 227.655 164.217C227.655 163.891 227.393 163.627 227.068 163.627Z" fill="white"/>
<path d="M243.381 163.627H236.732C236.407 163.627 236.145 163.891 236.145 164.217C236.145 164.542 236.407 164.806 236.732 164.806H243.381C243.705 164.806 243.968 164.542 243.968 164.217C243.968 163.891 243.705 163.627 243.381 163.627Z" fill="white"/>
<path d="M221.423 166.385H220.353C220.029 166.385 219.766 166.649 219.766 166.974C219.766 167.3 220.029 167.564 220.353 167.564H221.423C221.747 167.564 222.01 167.3 222.01 166.974C222.01 166.649 221.747 166.385 221.423 166.385Z" fill="white"/>
<path d="M233.661 166.385H232.591C232.267 166.385 232.004 166.649 232.004 166.974C232.004 167.3 232.267 167.564 232.591 167.564H233.661C233.985 167.564 234.248 167.3 234.248 166.974C234.248 166.649 233.985 166.385 233.661 166.385Z" fill="white"/>
<path d="M237.126 166.385H236.056C235.732 166.385 235.469 166.649 235.469 166.974C235.469 167.3 235.732 167.564 236.056 167.564H237.126C237.45 167.564 237.713 167.3 237.713 166.974C237.713 166.649 237.45 166.385 237.126 166.385Z" fill="white"/>
<path d="M230.33 166.287H223.681C223.357 166.287 223.094 166.551 223.094 166.876C223.094 167.202 223.357 167.466 223.681 167.466H230.33C230.654 167.466 230.917 167.202 230.917 166.876C230.917 166.551 230.654 166.287 230.33 166.287Z" fill="white"/>
<path d="M223.872 176.962H222.802C222.478 176.962 222.215 177.226 222.215 177.551C222.215 177.877 222.478 178.14 222.802 178.14H223.872C224.196 178.14 224.459 177.877 224.459 177.551C224.459 177.226 224.196 176.962 223.872 176.962Z" fill="white"/>
<path d="M227.337 176.962H226.267C225.943 176.962 225.68 177.226 225.68 177.551C225.68 177.877 225.943 178.14 226.267 178.14H227.337C227.661 178.14 227.924 177.877 227.924 177.551C227.924 177.226 227.661 176.962 227.337 176.962Z" fill="white"/>
<path d="M236.857 177.06H230.208C229.884 177.06 229.621 177.324 229.621 177.649C229.621 177.975 229.884 178.239 230.208 178.239H236.857C237.182 178.239 237.445 177.975 237.445 177.649C237.445 177.324 237.182 177.06 236.857 177.06Z" fill="white"/>
<path d="M211.638 176.962H210.568C210.243 176.962 209.98 177.226 209.98 177.551C209.98 177.877 210.243 178.14 210.568 178.14H211.638C211.962 178.14 212.225 177.877 212.225 177.551C212.225 177.226 211.962 176.962 211.638 176.962Z" fill="white"/>
<path d="M220.545 177.06H213.896C213.572 177.06 213.309 177.324 213.309 177.649C213.309 177.975 213.572 178.239 213.896 178.239H220.545C220.869 178.239 221.132 177.975 221.132 177.649C221.132 177.324 220.869 177.06 220.545 177.06Z" fill="white"/>
<path d="M214.899 174.302H213.829C213.505 174.302 213.242 174.566 213.242 174.891C213.242 175.217 213.505 175.481 213.829 175.481H214.899C215.224 175.481 215.487 175.217 215.487 174.891C215.487 174.566 215.224 174.302 214.899 174.302Z" fill="white"/>
<path d="M227.134 174.302H226.064C225.739 174.302 225.477 174.566 225.477 174.891C225.477 175.217 225.739 175.481 226.064 175.481H227.134C227.458 175.481 227.721 175.217 227.721 174.891C227.721 174.566 227.458 174.302 227.134 174.302Z" fill="white"/>
<path d="M230.602 174.302H229.533C229.208 174.302 228.945 174.566 228.945 174.891C228.945 175.217 229.208 175.481 229.533 175.481H230.602C230.927 175.481 231.19 175.217 231.19 174.891C231.19 174.566 230.927 174.302 230.602 174.302Z" fill="white"/>
<path d="M223.807 174.4H217.158C216.833 174.4 216.57 174.664 216.57 174.99C216.57 175.315 216.833 175.579 217.158 175.579H223.807C224.131 175.579 224.394 175.315 224.394 174.99C224.394 174.664 224.131 174.4 223.807 174.4Z" fill="white"/>
<path d="M218.161 171.642H217.091C216.767 171.642 216.504 171.906 216.504 172.231C216.504 172.557 216.767 172.821 217.091 172.821H218.161C218.485 172.821 218.748 172.557 218.748 172.231C218.748 171.906 218.485 171.642 218.161 171.642Z" fill="white"/>
<path d="M230.395 171.642H229.326C229.001 171.642 228.738 171.906 228.738 172.231C228.738 172.557 229.001 172.821 229.326 172.821H230.395C230.72 172.821 230.983 172.557 230.983 172.231C230.983 171.906 230.72 171.642 230.395 171.642Z" fill="white"/>
<path d="M233.864 171.642H232.794C232.47 171.642 232.207 171.906 232.207 172.231C232.207 172.557 232.47 172.821 232.794 172.821H233.864C234.188 172.821 234.451 172.557 234.451 172.231C234.451 171.906 234.188 171.642 233.864 171.642Z" fill="white"/>
<path d="M227.068 171.741H220.419C220.095 171.741 219.832 172.005 219.832 172.33C219.832 172.655 220.095 172.919 220.419 172.919H227.068C227.393 172.919 227.655 172.655 227.655 172.33C227.655 172.005 227.393 171.741 227.068 171.741Z" fill="white"/>
<path d="M221.423 168.982H220.353C220.029 168.982 219.766 169.246 219.766 169.572C219.766 169.897 220.029 170.161 220.353 170.161H221.423C221.747 170.161 222.01 169.897 222.01 169.572C222.01 169.246 221.747 168.982 221.423 168.982Z" fill="white"/>
<path d="M233.661 168.982H232.591C232.267 168.982 232.004 169.246 232.004 169.572C232.004 169.897 232.267 170.161 232.591 170.161H233.661C233.985 170.161 234.248 169.897 234.248 169.572C234.248 169.246 233.985 168.982 233.661 168.982Z" fill="white"/>
<path d="M237.126 168.982H236.056C235.732 168.982 235.469 169.246 235.469 169.572C235.469 169.897 235.732 170.161 236.056 170.161H237.126C237.45 170.161 237.713 169.897 237.713 169.572C237.713 169.246 237.45 168.982 237.126 168.982Z" fill="white"/>
<path d="M230.33 169.081H223.681C223.357 169.081 223.094 169.344 223.094 169.67C223.094 169.995 223.357 170.259 223.681 170.259H230.33C230.654 170.259 230.917 169.995 230.917 169.67C230.917 169.344 230.654 169.081 230.33 169.081Z" fill="white"/>
<path d="M205.948 208.134L200.926 200.169L216.689 187.561L223.196 180.328C224.041 179.389 225.117 178.688 226.317 178.297C227.517 177.905 228.798 177.836 230.032 178.097C231.267 178.358 232.411 178.939 233.352 179.783C234.292 180.627 234.996 181.704 235.391 182.906C235.978 184.687 235.852 186.627 235.04 188.316C234.227 190.006 232.793 191.313 231.039 191.961L220.75 195.764L205.948 208.134Z" fill="#FFB6B6"/>
<path d="M88.1133 150.383V189.094H115.143V150.383C115.144 150.104 115.055 149.833 114.89 149.609C114.726 149.385 114.494 149.219 114.229 149.137C114.104 149.096 113.973 149.075 113.841 149.077H89.4187C89.2475 149.076 89.0779 149.11 88.9196 149.175C88.7613 149.241 88.6175 149.337 88.4962 149.458C88.375 149.58 88.2788 149.724 88.213 149.882C88.1473 150.041 88.1134 150.211 88.1133 150.383ZM98.6619 163.684C98.6689 162.921 98.976 162.191 99.5164 161.654C100.057 161.117 100.787 160.816 101.547 160.816C102.308 160.816 103.038 161.117 103.578 161.654C104.119 162.191 104.426 162.921 104.433 163.684V168.176C104.429 168.941 104.123 169.674 103.582 170.213C103.042 170.753 102.31 171.056 101.547 171.056C100.785 171.056 100.053 170.753 99.5122 170.213C98.9715 169.674 98.6658 168.941 98.6619 168.176V163.684Z" fill="#2F2E41"/>
<path d="M88.0312 187.856V191.589C88.0319 191.783 88.1084 191.968 88.2444 192.105C88.3803 192.242 88.5646 192.32 88.7573 192.322H114.501C114.693 192.321 114.878 192.243 115.014 192.106C115.15 191.969 115.227 191.783 115.227 191.589V187.856H88.0312Z" fill="#3F3D56"/>
<path d="M45.5898 92.0588V162.741C45.5906 163.641 45.9475 164.505 46.5823 165.142C47.2171 165.779 48.0779 166.137 48.9756 166.138H153.371C154.268 166.137 155.129 165.779 155.764 165.142C156.399 164.505 156.756 163.641 156.756 162.741V92.0588C156.754 91.1589 156.397 90.2964 155.762 89.6604C155.127 89.0244 154.267 88.6667 153.371 88.6655H48.9756C48.0787 88.6667 47.2187 89.0244 46.5841 89.6604C45.9495 90.2965 45.592 91.1589 45.5898 92.0588Z" fill="#3F3D56"/>
<path d="M48.0391 92.9385V161.869C48.0399 162.35 48.2308 162.811 48.57 163.152C48.9091 163.492 49.3689 163.684 49.8486 163.684H152.502C152.981 163.684 153.441 163.492 153.78 163.152C154.119 162.811 154.31 162.35 154.311 161.869V92.9385C154.311 92.4566 154.121 91.9945 153.781 91.6534C153.442 91.3123 152.982 91.1202 152.502 91.1191H49.8486C49.3683 91.1202 48.9081 91.3123 48.5689 91.6534C48.2297 91.9945 48.0391 92.4566 48.0391 92.9385Z" fill="white"/>
<path d="M67.0925 192.069C67.197 192.2 67.3298 192.306 67.481 192.379C67.6321 192.451 67.7977 192.489 67.9653 192.488H129.037C129.204 192.488 129.369 192.45 129.52 192.378C129.671 192.306 129.803 192.201 129.909 192.071C130.014 191.94 130.089 191.788 130.128 191.625C130.167 191.463 130.17 191.293 130.136 191.129L129.188 186.611C129.148 186.427 129.064 186.255 128.942 186.112C128.819 185.969 128.663 185.859 128.488 185.792C128.361 185.742 128.226 185.716 128.089 185.716H68.9096C68.7731 185.716 68.6378 185.742 68.5108 185.792C68.3353 185.859 68.1794 185.969 68.0572 186.112C67.9349 186.255 67.8503 186.427 67.8111 186.611L66.863 191.129C66.8293 191.293 66.8324 191.462 66.8721 191.625C66.9118 191.787 66.9871 191.939 67.0925 192.069Z" fill="#2F2E41"/>
<path d="M149.172 100.615H53.1197C53.0198 100.612 52.9248 100.571 52.855 100.499C52.7852 100.428 52.7461 100.332 52.7461 100.231C52.7461 100.131 52.7852 100.035 52.855 99.9634C52.9248 99.8917 53.0198 99.8504 53.1197 99.8481H149.172C149.272 99.8504 149.367 99.8917 149.436 99.9634C149.506 100.035 149.545 100.131 149.545 100.231C149.545 100.332 149.506 100.428 149.436 100.499C149.367 100.571 149.272 100.612 149.172 100.615Z" fill="#3F3D56"/>
<path d="M59.6565 97.8914C60.8928 97.8914 61.895 96.8635 61.895 95.5954C61.895 94.3273 60.8928 93.2993 59.6565 93.2993C58.4202 93.2993 57.418 94.3273 57.418 95.5954C57.418 96.8635 58.4202 97.8914 59.6565 97.8914Z" fill="#3F3D56"/>
<path d="M67.3909 97.8914C68.6272 97.8914 69.6294 96.8635 69.6294 95.5954C69.6294 94.3273 68.6272 93.2993 67.3909 93.2993C66.1546 93.2993 65.1523 94.3273 65.1523 95.5954C65.1523 96.8635 66.1546 97.8914 67.3909 97.8914Z" fill="#3F3D56"/>
<path d="M75.1253 97.8914C76.3616 97.8914 77.3638 96.8635 77.3638 95.5954C77.3638 94.3273 76.3616 93.2993 75.1253 93.2993C73.8889 93.2993 72.8867 94.3273 72.8867 95.5954C72.8867 96.8635 73.8889 97.8914 75.1253 97.8914Z" fill="#3F3D56"/>
<path d="M144.516 93.8672H139.023C138.915 93.8697 138.811 93.9148 138.736 93.9927C138.66 94.0707 138.617 94.1753 138.617 94.2843C138.617 94.3932 138.66 94.4979 138.736 94.5758C138.811 94.6538 138.915 94.6988 139.023 94.7014H144.516C144.625 94.6998 144.729 94.6552 144.806 94.5771C144.883 94.4991 144.926 94.3939 144.926 94.2843C144.926 94.1747 144.883 94.0695 144.806 93.9914C144.729 93.9134 144.625 93.8687 144.516 93.8672Z" fill="#3F3D56"/>
<path d="M144.516 95.4336H139.024C138.915 95.436 138.812 95.481 138.736 95.559C138.66 95.6369 138.617 95.7416 138.617 95.8507C138.617 95.9597 138.66 96.0644 138.736 96.1424C138.812 96.2204 138.915 96.2654 139.024 96.2678H144.516C144.626 96.2664 144.73 96.2219 144.807 96.1438C144.884 96.0658 144.927 95.9604 144.927 95.8507C144.927 95.7409 144.884 95.6356 144.807 95.5575C144.73 95.4794 144.626 95.4349 144.516 95.4336Z" fill="#3F3D56"/>
<path d="M144.516 97H139.023C138.915 97.0025 138.811 97.0476 138.736 97.1255C138.66 97.2035 138.617 97.3081 138.617 97.4171C138.617 97.5261 138.66 97.6307 138.736 97.7086C138.811 97.7866 138.915 97.8316 139.023 97.8342H144.516C144.625 97.8326 144.729 97.788 144.806 97.7099C144.883 97.6319 144.926 97.5267 144.926 97.4171C144.926 97.3075 144.883 97.2023 144.806 97.1242C144.729 97.0462 144.625 97.0015 144.516 97Z" fill="#3F3D56"/>
<path d="M276.931 189.494C277.097 189.979 277.411 190.398 277.829 190.691C278.247 190.985 278.747 191.138 279.257 191.129L289.223 190.872C289.737 190.862 290.234 190.685 290.639 190.368C291.045 190.052 291.337 189.612 291.473 189.114L292.883 173.983C293.384 174.211 293.928 174.323 294.478 174.312C294.955 174.3 295.425 174.194 295.861 173.999C296.297 173.805 296.691 173.526 297.02 173.179C297.349 172.832 297.607 172.424 297.778 171.977C297.95 171.53 298.032 171.053 298.02 170.575C298.008 170.096 297.902 169.624 297.708 169.187C297.515 168.749 297.237 168.354 296.891 168.024C296.545 167.694 296.138 167.435 295.693 167.263C295.247 167.091 294.772 167.009 294.295 167.021C294.076 167.02 293.857 167.043 293.642 167.089C293.409 166.835 293.125 166.634 292.809 166.497C292.493 166.36 292.152 166.292 291.808 166.295L276.478 166.692C276.351 166.697 276.225 166.713 276.1 166.739C275.764 166.802 275.445 166.937 275.165 167.134C274.885 167.33 274.65 167.585 274.476 167.881C274.303 168.176 274.194 168.506 274.158 168.847C274.122 169.188 274.159 169.533 274.267 169.859L276.931 189.494ZM293.173 172.956L294.176 169.35C294.29 168.933 294.293 168.494 294.184 168.076C294.232 168.076 294.275 168.053 294.324 168.053C295.012 168.039 295.678 168.299 296.175 168.776C296.672 169.253 296.961 169.909 296.977 170.6C296.993 171.29 296.736 171.959 296.261 172.459C295.787 172.959 295.134 173.25 294.446 173.268C294.001 173.282 293.561 173.174 293.173 172.956Z" fill="#2F2E41"/>
<path d="M276.098 166.739C276.424 168.613 280.096 169.93 284.512 169.701C288.572 169.514 291.892 168.083 292.5 166.388C292.275 166.321 292.041 166.29 291.806 166.295L276.476 166.692C276.349 166.697 276.222 166.713 276.098 166.739Z" fill="#3F3D56"/>
<path d="M285.32 181.18C285.34 181.175 285.359 181.166 285.377 181.155L287.541 179.734C287.567 179.716 287.589 179.693 287.604 179.665C287.619 179.638 287.626 179.607 287.626 179.576C287.626 179.544 287.619 179.514 287.604 179.486C287.589 179.458 287.567 179.435 287.541 179.418L285.292 177.94C285.271 177.926 285.248 177.916 285.224 177.912C285.199 177.907 285.174 177.907 285.15 177.912C285.126 177.917 285.103 177.927 285.082 177.941C285.062 177.955 285.044 177.973 285.031 177.993C285.017 178.014 285.008 178.037 285.003 178.062C284.999 178.086 284.999 178.111 285.004 178.136C285.009 178.16 285.019 178.183 285.033 178.203C285.047 178.224 285.065 178.242 285.086 178.255L287.095 179.575L285.171 180.839C285.134 180.864 285.106 180.9 285.094 180.943C285.081 180.986 285.084 181.032 285.102 181.073C285.12 181.114 285.151 181.147 285.191 181.167C285.231 181.186 285.277 181.191 285.32 181.18H285.32Z" fill="#FFD600"/>
<path d="M281.904 181.338C281.941 181.329 281.973 181.309 281.998 181.281C282.023 181.253 282.039 181.218 282.044 181.181C282.049 181.144 282.043 181.106 282.027 181.072C282.01 181.038 281.984 181.01 281.952 180.992L279.957 179.844L281.885 178.407C281.905 178.392 281.921 178.374 281.934 178.352C281.947 178.331 281.955 178.308 281.959 178.283C281.962 178.258 281.961 178.234 281.955 178.21C281.949 178.185 281.938 178.163 281.924 178.143C281.909 178.123 281.89 178.106 281.869 178.094C281.848 178.081 281.825 178.073 281.8 178.069C281.776 178.065 281.751 178.067 281.727 178.073C281.703 178.079 281.68 178.089 281.661 178.104L279.502 179.713C279.477 179.732 279.457 179.756 279.443 179.785C279.43 179.813 279.424 179.844 279.426 179.876C279.428 179.907 279.438 179.937 279.454 179.964C279.47 179.99 279.493 180.013 279.52 180.028L281.764 181.319C281.807 181.343 281.857 181.35 281.904 181.338Z" fill="#FFD600"/>
<path d="M285.107 182.426C285.125 182.421 285.143 182.414 285.159 182.404C285.18 182.391 285.198 182.374 285.213 182.354C285.227 182.334 285.238 182.311 285.244 182.287C285.249 182.263 285.251 182.238 285.247 182.214C285.243 182.189 285.234 182.166 285.222 182.144L282.153 177.083C282.127 177.041 282.086 177.01 282.037 176.998C281.989 176.987 281.938 176.995 281.895 177.021C281.852 177.047 281.822 177.089 281.81 177.137C281.798 177.186 281.806 177.237 281.832 177.28L284.9 182.341C284.921 182.375 284.952 182.402 284.99 182.417C285.027 182.433 285.068 182.436 285.107 182.426Z" fill="#FFD600"/>
<path d="M112.622 121.45H95.9975C95.3193 121.45 94.7695 122.001 94.7695 122.682V124.311C94.7695 124.992 95.3193 125.543 95.9975 125.543H112.622C113.3 125.543 113.85 124.992 113.85 124.311V122.682C113.85 122.001 113.3 121.45 112.622 121.45Z" fill="#FFD600"/>
<path d="M122.311 129.637H86.3061C85.6279 129.637 85.0781 130.189 85.0781 130.869V132.499C85.0781 133.179 85.6279 133.731 86.3061 133.731H122.311C122.989 133.731 123.539 133.179 123.539 132.499V130.869C123.539 130.189 122.989 129.637 122.311 129.637Z" fill="#E6E6E6"/>
<path d="M122.311 137.825H86.3061C85.6279 137.825 85.0781 138.376 85.0781 139.057V140.686C85.0781 141.367 85.6279 141.918 86.3061 141.918H122.311C122.989 141.918 123.539 141.367 123.539 140.686V139.057C123.539 138.376 122.989 137.825 122.311 137.825Z" fill="#E6E6E6"/>
<path d="M125.363 165.241L125.445 165.5L125.449 165.508L127.904 172.996L130.728 181.625L136.041 197.841L136.092 200.36V200.369L136.487 220.632L135.393 223.379L136.624 227.883C136.624 227.883 136.058 221.075 133.019 224.985C131.298 227.206 129.286 229.48 127.633 231.611C130.041 232.589 132.487 233.473 134.972 234.264C135.509 234.436 136.049 234.6 136.59 234.763C136.706 234.798 136.822 234.832 136.938 234.867C145.174 237.311 153.69 238.684 162.275 238.953C162.721 238.966 163.159 238.974 163.584 238.983C163.734 238.987 163.88 238.992 164.026 238.992C164.506 238.996 164.983 239 165.463 239C166.433 239 167.399 238.986 168.36 238.957C175.475 238.756 182.549 237.796 189.462 236.094C189.415 233.23 189.286 229.885 189.101 226.311C189.015 224.558 187.089 222.659 186.973 220.825C186.891 219.447 188.621 218.151 188.53 216.752C187.947 208.136 187.217 211.443 186.677 205.342C186.621 204.743 186.569 204.171 186.522 203.624C186.174 199.706 185.934 197.255 185.934 197.255L188.243 182.654L191.869 159.73L191.59 159.269L191.277 159.114L172.15 149.616L171.111 146.946C170.808 146.177 170.283 145.516 169.604 145.049C168.924 144.582 168.12 144.329 167.296 144.324L154.696 144.272C154.042 144.269 153.397 144.423 152.814 144.72C152.231 145.017 151.727 145.45 151.344 145.981L147.933 150.722L125.363 165.241Z" fill="#3F3D56"/>
<path d="M138.949 194.233L136.095 200.36L134.147 204.545L130.795 222.152L129.117 223.939L127.679 217.613L112.632 220.965C112.139 218.214 112.5 221.058 112.195 218.04C112.281 217.954 112.371 217.867 112.461 217.781C112.702 217.557 112.903 217.346 112.899 217.144C112.727 206.733 113.242 189.014 117.543 178.279C118.216 176.527 119.104 174.865 120.186 173.332C120.272 173.216 120.354 173.099 120.435 172.983C122.418 170.197 123.671 167.455 125.448 165.504V165.5C125.459 165.491 125.469 165.481 125.478 165.47C125.484 165.466 125.49 165.462 125.495 165.457L137.7 158.963L138.224 173.724L138.597 184.333L138.949 194.233Z" fill="#3F3D56"/>
<path d="M182.957 195.973L186.522 203.626L187.766 206.291L191.117 223.896L192.789 225.678L194.23 219.354L194.907 219.215L207.118 216.677L210.677 228.018C211.479 226.677 211.795 225.1 211.572 223.552C211.348 222.004 210.599 220.581 209.45 219.524C209.207 219.303 209.005 219.088 209.011 218.885C209.213 206.639 208.467 184.279 201.725 175.076C199.583 172.155 198.299 169.246 196.429 167.214C196.424 167.208 196.424 167.202 196.418 167.202L191.869 159.729L191.591 159.271L191.279 159.114L182.957 195.973Z" fill="#3F3D56"/>
<path d="M161.36 140.674C170.618 140.674 178.123 133.144 178.123 123.855C178.123 114.567 170.618 107.037 161.36 107.037C152.103 107.037 144.598 114.567 144.598 123.855C144.598 133.144 152.103 140.674 161.36 140.674Z" fill="#FFB6B6"/>
<path d="M184.02 112.108C183.89 111.968 183.734 111.857 183.56 111.78C183.386 111.702 183.198 111.661 183.008 111.658L183.26 110.956C183.342 110.735 183.365 110.496 183.324 110.263C183.284 110.031 183.183 109.813 183.032 109.633C182.88 109.452 182.683 109.315 182.462 109.236C182.24 109.157 182.002 109.138 181.77 109.182L180.853 109.36L180.939 108.744C180.972 108.515 180.945 108.281 180.861 108.066C180.777 107.85 180.638 107.66 180.459 107.515C180.279 107.369 180.065 107.273 179.837 107.236C179.609 107.199 179.376 107.222 179.16 107.303C178.963 107.38 178.751 107.413 178.54 107.398C178.329 107.383 178.125 107.321 177.941 107.216C177.756 107.114 177.596 106.973 177.471 106.803C177.346 106.633 177.26 106.438 177.218 106.231L176.899 104.683L176.865 104.6C175.307 101.996 172.313 100.101 168.649 99.4062C165.387 98.7834 162.043 99.1005 158.819 99.3987C157.54 99.5195 156.095 99.6554 154.891 100.395C153.868 101.029 153.003 102.298 153.179 103.577C150.001 102.599 146.592 104.551 144.903 107.012C142.902 109.941 142.574 113.61 142.522 116.478C142.379 123.265 143.774 128.817 146.66 132.984C146.871 133.286 146.923 133.917 147.341 134.128L147.254 133.988C147.721 134.222 148.195 134.6 148.018 135.004C147.51 136.166 150.885 138.737 153.262 139.586C157.6 141.137 163.367 141.005 167.422 140.447L167.565 139.484C169.029 139.284 170.059 138.903 170.349 138.306C170.861 137.869 171.297 137.476 171.677 137.114L171.681 137.11C171.688 137.102 171.703 137.091 171.711 137.084C173.543 135.321 173.968 134.317 174.16 132.788C174.344 131.29 174.017 129.769 173.682 128.398C180.732 129.493 170.906 120.864 177.474 119.196C177.55 119.173 177.626 119.154 177.704 119.139C177.896 119.094 178.087 119.049 178.272 118.996C179.16 118.754 180.011 118.389 180.8 117.913C182.636 116.792 183.241 115.305 184.189 113.629C184.326 113.39 184.384 113.114 184.353 112.84C184.323 112.567 184.206 112.31 184.02 112.108Z" fill="#2F2E41"/>
<path d="M220.65 197.171C220.646 197.831 220.638 198.756 220.608 199.9C220.605 200.058 220.601 200.22 220.597 200.386C220.548 202.489 220.499 204.252 220.42 206.211C220.416 206.346 220.413 206.479 220.405 206.614C220.3 209.347 220.134 212.529 219.848 217.568C219.318 226.876 218.393 218.848 217.463 222.113C217.418 222.275 217.369 222.467 217.324 222.694C217.183 223.516 216.946 224.318 216.617 225.083C216.124 225.378 215.616 225.661 215.116 225.944C213.69 226.74 212.242 227.506 210.782 228.235C209.962 228.643 209.138 229.043 208.31 229.428C208.179 229.488 208.051 229.548 207.923 229.605C203.685 231.572 199.317 233.244 194.85 234.61C193.977 234.874 193.108 235.131 192.228 235.369C191.31 235.625 190.392 235.867 189.463 236.093C182.55 237.796 175.477 238.757 168.362 238.958C167.403 238.989 166.436 239 165.465 239C164.984 239 164.51 238.996 164.028 238.992C163.881 238.992 163.735 238.989 163.588 238.985C163.163 238.973 162.723 238.966 162.279 238.955C153.694 238.686 145.178 237.312 136.942 234.867L136.592 234.765C136.05 234.599 135.512 234.436 134.974 234.263C132.492 233.474 130.045 232.591 127.635 231.613C125.795 230.87 123.977 230.072 122.18 229.22C122.164 229.216 122.148 229.208 122.135 229.197C121.759 229.024 121.379 228.843 121.002 228.658C120.954 228.631 120.901 228.605 120.848 228.578C119.445 227.891 118.057 227.172 116.684 226.419C115.529 223.758 113.904 223.249 112.895 220.909C112.602 220.213 112.39 219.486 112.263 218.742C112.263 218.734 112.26 218.727 112.26 218.716C112.365 220.12 111.812 216.224 112.256 218.7C112.252 218.655 112.248 218.606 112.245 218.549C112.233 218.414 112.218 218.248 112.196 218.04C110.905 205.399 110.988 190.943 110.428 179.03C110.39 178.26 110.351 177.523 110.311 176.818C110.3 176.584 110.285 176.354 110.27 176.128C110.296 176.06 110.326 175.988 110.36 175.92C110.367 175.9 110.376 175.882 110.386 175.863C110.397 175.84 110.41 175.817 110.424 175.795C110.431 175.784 110.443 175.769 110.45 175.758C110.456 175.745 110.462 175.732 110.469 175.72C110.503 175.667 110.54 175.611 110.582 175.558C110.601 175.535 110.616 175.516 110.634 175.497C110.647 175.478 110.663 175.46 110.68 175.444C110.691 175.426 110.705 175.41 110.721 175.395C110.736 175.38 110.751 175.361 110.77 175.343C110.778 175.331 110.788 175.32 110.8 175.312C110.83 175.278 110.862 175.246 110.898 175.218C111.032 175.094 111.175 174.981 111.327 174.878C111.379 174.844 111.436 174.81 111.488 174.773C111.868 174.545 112.267 174.353 112.681 174.199C112.824 174.146 112.967 174.097 113.121 174.044C113.178 174.029 113.23 174.01 113.287 173.991C113.369 173.965 113.452 173.938 113.539 173.92C113.968 173.791 114.43 173.682 114.931 173.58C114.991 173.569 115.055 173.557 115.119 173.542C115.209 173.523 115.303 173.508 115.397 173.493C115.525 173.47 115.657 173.448 115.788 173.425C116.906 173.248 118.173 173.116 119.573 173.029C119.705 173.021 119.836 173.014 119.968 173.006C120.122 172.999 120.276 172.991 120.434 172.983C120.566 172.976 120.701 172.972 120.837 172.968C120.969 172.961 121.104 172.957 121.243 172.953C121.623 172.942 122.014 172.931 122.413 172.923C123.549 172.9 124.746 172.908 126.002 172.934C126.585 172.95 127.18 172.965 127.789 172.991C127.83 172.991 127.868 172.995 127.906 172.995C128.436 173.014 128.97 173.036 129.52 173.067C129.903 173.085 130.291 173.104 130.678 173.127C131.043 173.15 131.412 173.172 131.784 173.199C132.074 173.214 132.364 173.236 132.657 173.255C132.905 173.274 133.154 173.293 133.402 173.308L133.74 173.331C133.925 173.346 134.109 173.357 134.297 173.376C134.711 173.41 135.125 173.444 135.546 173.478C135.964 173.516 136.389 173.553 136.814 173.591C137.239 173.629 137.668 173.67 138.097 173.712C138.142 173.716 138.183 173.719 138.225 173.723C138.616 173.765 139.007 173.803 139.402 173.844C139.493 173.852 139.587 173.859 139.677 173.87C140.054 173.908 140.437 173.953 140.818 173.993C140.934 174.006 141.05 174.018 141.167 174.031C141.465 174.064 141.758 174.092 142.058 174.127C142.453 174.172 142.856 174.214 143.247 174.267C143.552 174.301 143.856 174.335 144.161 174.373C144.639 174.429 145.124 174.49 145.609 174.554C145.794 174.576 145.978 174.599 146.163 174.625C147.547 174.799 148.946 174.992 150.368 175.192C152.524 175.497 154.713 175.829 156.918 176.188C159.126 176.547 161.347 176.925 163.58 177.324C164.145 177.426 164.709 177.528 165.277 177.634C165.533 177.683 165.789 177.732 166.045 177.781C166.481 177.86 166.917 177.943 167.354 178.026C167.79 178.109 168.227 178.192 168.663 178.279C169.182 178.381 169.705 178.483 170.224 178.585C173.644 179.264 177.045 179.989 180.363 180.748C180.908 180.872 181.454 181.001 181.995 181.125C183.079 181.378 184.152 181.635 185.216 181.895C185.509 181.963 185.799 182.035 186.088 182.106C186.811 182.288 187.533 182.469 188.244 182.654L188.368 182.688C188.891 182.816 189.403 182.948 189.914 183.084C191.122 183.401 192.309 183.722 193.477 184.047C194.252 184.262 195.018 184.479 195.775 184.7C196.908 185.028 198.018 185.36 199.097 185.696C199.364 185.779 199.632 185.862 199.895 185.941C200.685 186.187 201.464 186.436 202.22 186.685C202.822 186.881 203.409 187.081 203.988 187.281C204.567 187.481 205.135 187.681 205.692 187.881C206.049 188.01 206.403 188.146 206.757 188.274C207.265 188.463 207.765 188.652 208.254 188.84C208.404 188.897 208.551 188.957 208.698 189.014C208.792 189.055 208.882 189.089 208.972 189.127C209.149 189.199 209.33 189.267 209.503 189.338C209.68 189.406 209.853 189.478 210.026 189.554C210.195 189.622 210.368 189.693 210.534 189.765C210.703 189.833 210.869 189.905 211.034 189.98C211.173 190.037 211.309 190.097 211.44 190.158C211.707 190.275 211.975 190.392 212.234 190.512C212.362 190.573 212.49 190.629 212.618 190.69L212.911 190.826C212.953 190.848 212.994 190.867 213.035 190.886C213.129 190.931 213.227 190.98 213.321 191.026C213.54 191.128 213.754 191.237 213.965 191.339C214.247 191.482 214.521 191.626 214.785 191.765C215.052 191.909 215.311 192.052 215.56 192.192C215.601 192.215 215.639 192.237 215.68 192.26C215.737 192.29 215.793 192.324 215.849 192.354C216.041 192.464 216.226 192.577 216.41 192.686C216.771 192.909 217.113 193.128 217.433 193.347C217.505 193.396 217.572 193.445 217.644 193.49C217.881 193.66 218.107 193.826 218.317 193.996C218.317 194 218.317 194 218.321 194C218.393 194.053 218.46 194.109 218.528 194.162C218.584 194.215 218.645 194.26 218.701 194.313C218.897 194.483 219.077 194.645 219.243 194.811C219.298 194.863 219.351 194.917 219.401 194.974C219.423 194.992 219.443 195.012 219.461 195.034C219.536 195.11 219.604 195.185 219.668 195.261C219.678 195.271 219.687 195.282 219.694 195.295C219.784 195.4 219.867 195.506 219.946 195.612C219.984 195.665 220.025 195.717 220.059 195.77C220.104 195.834 220.149 195.902 220.187 195.967C220.221 196.019 220.251 196.076 220.281 196.129C220.361 196.265 220.429 196.408 220.484 196.555C220.526 196.656 220.56 196.759 220.586 196.865C220.614 196.965 220.636 197.067 220.65 197.171Z" fill="#2F2E41"/>
<path opacity="0.2" d="M220.65 197.17C220.646 197.831 220.638 198.755 220.608 199.899C220.605 200.058 220.597 200.22 220.593 200.386C220.556 201.99 220.499 203.972 220.42 206.21C220.416 206.346 220.413 206.478 220.405 206.614C220.3 209.347 220.134 212.529 219.848 217.568C219.318 226.876 218.392 218.847 217.463 222.112C214.883 220.519 212.054 218.851 209.029 217.137C208.483 216.828 207.933 216.517 207.377 216.205C201.328 212.819 194.572 209.271 187.518 205.757C187.24 205.618 186.957 205.478 186.679 205.342C170.521 197.329 152.885 189.534 138.597 184.333C135.84 183.329 133.206 182.423 130.731 181.627C125.517 179.955 121.01 178.784 117.541 178.279C113.93 177.75 111.436 177.939 110.427 179.03C110.39 178.26 110.351 177.522 110.311 176.818C110.296 176.584 110.281 176.354 110.266 176.127C110.289 176.065 110.319 176.006 110.348 175.946C110.352 175.937 110.355 175.928 110.36 175.92C110.367 175.9 110.376 175.881 110.386 175.863C110.397 175.84 110.41 175.817 110.424 175.795C110.436 175.768 110.451 175.743 110.469 175.72C110.503 175.667 110.54 175.61 110.582 175.557C110.612 175.518 110.645 175.48 110.679 175.444C110.691 175.426 110.705 175.409 110.721 175.395C110.736 175.38 110.751 175.361 110.77 175.342C110.778 175.33 110.788 175.32 110.8 175.312C110.83 175.278 110.862 175.246 110.898 175.218C111.032 175.094 111.175 174.98 111.327 174.878C111.379 174.844 111.436 174.81 111.488 174.772C111.867 174.545 112.267 174.353 112.681 174.198C112.824 174.146 112.967 174.096 113.121 174.044C113.177 174.029 113.23 174.01 113.286 173.991C113.369 173.964 113.452 173.938 113.539 173.919C113.967 173.791 114.43 173.681 114.93 173.579C115.081 173.549 115.239 173.519 115.397 173.493C115.525 173.47 115.657 173.447 115.788 173.425C116.906 173.247 118.173 173.115 119.573 173.028C119.704 173.021 119.836 173.013 119.968 173.006C120.122 172.998 120.276 172.991 120.434 172.983C120.566 172.975 120.701 172.972 120.837 172.968C120.968 172.96 121.104 172.957 121.243 172.953C121.623 172.941 122.014 172.93 122.413 172.923C123.549 172.904 124.745 172.911 126.002 172.938C126.585 172.949 127.179 172.968 127.789 172.994C127.827 172.994 127.868 172.998 127.906 172.998C128.436 173.013 128.974 173.04 129.519 173.066C129.903 173.085 130.291 173.104 130.678 173.126C131.043 173.149 131.412 173.172 131.784 173.198C132.074 173.213 132.363 173.236 132.657 173.255C132.905 173.274 133.154 173.292 133.402 173.308C133.699 173.33 133.996 173.353 134.297 173.376C134.711 173.41 135.125 173.443 135.546 173.477C135.964 173.515 136.389 173.553 136.814 173.591C137.239 173.628 137.668 173.67 138.097 173.711C138.142 173.715 138.183 173.719 138.225 173.723C138.616 173.764 139.007 173.802 139.402 173.844C141.592 174.066 143.845 174.327 146.162 174.625C147.547 174.802 148.949 174.992 150.368 175.195C152.524 175.501 154.713 175.833 156.918 176.188C159.126 176.546 161.347 176.925 163.58 177.324C164.145 177.426 164.709 177.528 165.277 177.633C165.969 177.762 166.661 177.892 167.354 178.026C167.79 178.109 168.226 178.192 168.663 178.279C169.182 178.381 169.705 178.482 170.224 178.584C173.644 179.264 177.045 179.988 180.363 180.747C180.908 180.872 181.454 181 181.995 181.125C183.079 181.378 184.152 181.634 185.216 181.895C185.509 181.966 185.799 182.038 186.088 182.11C186.814 182.291 187.533 182.472 188.244 182.653V182.657C188.285 182.665 188.327 182.676 188.368 182.687C188.887 182.819 189.403 182.951 189.914 183.087C191.122 183.404 192.309 183.724 193.477 184.046C194.252 184.265 195.019 184.48 195.775 184.699C196.908 185.031 198.018 185.363 199.097 185.696C199.364 185.779 199.631 185.862 199.895 185.941C200.685 186.19 201.46 186.438 202.22 186.684C202.822 186.881 203.408 187.081 203.988 187.281C204.567 187.481 205.135 187.681 205.692 187.881C206.053 188.009 206.407 188.141 206.757 188.27C207.268 188.459 207.765 188.647 208.254 188.84C208.404 188.896 208.551 188.957 208.698 189.013C208.972 189.119 209.24 189.229 209.503 189.338C209.68 189.406 209.853 189.478 210.026 189.553C210.195 189.621 210.368 189.693 210.534 189.765C210.703 189.832 210.868 189.904 211.034 189.98C211.173 190.036 211.309 190.097 211.44 190.157C211.707 190.274 211.975 190.391 212.234 190.512C212.362 190.572 212.49 190.629 212.618 190.689L212.911 190.825C212.953 190.848 212.994 190.867 213.035 190.886C213.355 191.037 213.664 191.188 213.965 191.338C214.247 191.482 214.521 191.625 214.785 191.765C215.097 191.931 215.394 192.093 215.68 192.259C215.736 192.29 215.793 192.324 215.849 192.354C216.041 192.463 216.226 192.577 216.41 192.686C216.771 192.909 217.113 193.128 217.433 193.347C217.749 193.565 218.043 193.781 218.317 193.996C218.317 194 218.317 193.999 218.321 193.999C218.453 194.105 218.581 194.211 218.701 194.313C218.897 194.483 219.077 194.645 219.243 194.811C219.298 194.862 219.351 194.916 219.401 194.973C219.423 194.992 219.443 195.012 219.461 195.034C219.54 195.121 219.619 195.207 219.694 195.294C219.784 195.4 219.867 195.506 219.946 195.611C219.984 195.664 220.025 195.717 220.059 195.77C220.104 195.834 220.149 195.902 220.187 195.966C220.221 196.019 220.251 196.075 220.281 196.128C220.361 196.264 220.429 196.407 220.484 196.555C220.525 196.655 220.559 196.759 220.586 196.864C220.614 196.965 220.636 197.067 220.65 197.17Z" fill="black"/>
</g>
<defs>
<clipPath id="clip0_19284_125498">
<rect width="296" height="216" fill="white" transform="translate(16 23)"/>
</clipPath>
</defs>
</svg>
