<svg width="32" height="32" viewBox="0 0 32 32" fill="none" xmlns="http://www.w3.org/2000/svg">
<path fill-rule="evenodd" clip-rule="evenodd" d="M20.754 4H12.529C8.46708 4 5.17426 7.27557 5.17426 11.3162C5.17426 15.3568 8.46708 18.6324 12.529 18.6324H24.6954L23.1977 13.0721H12.529C11.5541 13.0721 10.7639 12.2859 10.7639 11.3162C10.7639 10.3464 11.5541 9.56031 12.529 9.56031H22.2517L20.754 4ZM25.649 22.1725H11.058C8.40888 22.1725 6.08686 20.7792 4.7921 18.6891C4.65731 19.243 4.58588 19.8215 4.58588 20.4166C4.58588 24.4572 7.8787 27.7328 11.9406 27.7328H27.1467L25.649 22.1725Z" fill="white"/>
</svg>
