<svg width="40" height="40" viewBox="0 0 40 40" fill="none" xmlns="http://www.w3.org/2000/svg">
<circle cx="20" cy="20" r="20" fill="#2F75EC"/>
<path fill-rule="evenodd" clip-rule="evenodd" d="M14.3821 14.3627H25.6065C26.2411 14.3459 26.8618 14.5597 27.3636 14.9679L26.724 15.4033L19.9732 19.9641L18.2161 18.7648C18.1799 18.7286 18.1368 18.701 18.0896 18.6837L13.2611 15.3996L12.625 14.9679C13.1194 14.5451 13.7453 14.3295 14.3821 14.3627ZM12.1802 15.5361L12.7741 15.942L17.4164 19.1117L12.8163 24.13L12.3173 24.6725C11.9706 24.1641 11.7883 23.5523 11.7972 22.9271L11.8007 17.0638C11.7957 16.5282 11.9267 16.0009 12.1802 15.5361ZM26.6804 24.6284L21.9889 19.5215L20.1967 20.7392L20.1369 20.7687H20.1088C20.0796 20.7726 20.0501 20.7726 20.0209 20.7687C19.9918 20.7726 19.9623 20.7726 19.9331 20.7687H19.905L19.8206 20.7392L18.0424 19.5289L13.3264 24.6431L12.8203 25.193C13.2845 25.5064 13.8292 25.6623 14.3806 25.6394H25.6261C26.1754 25.6431 26.7139 25.479 27.1759 25.1671L26.6804 24.6284ZM28.2067 17.0751V22.9273C28.2303 23.5513 28.0519 24.1651 27.7007 24.669L27.1982 24.1192L22.6016 19.0972L27.2403 15.9422L27.8377 15.54C28.0946 16.0056 28.2224 16.5373 28.2067 17.0751Z" fill="white"/>
</svg>
