<svg width="40" height="40" viewBox="0 0 40 40" fill="none" xmlns="http://www.w3.org/2000/svg">
<circle cx="20" cy="20" r="20" fill="url(#paint0_linear_15528_90934)"/>
<path fill-rule="evenodd" clip-rule="evenodd" d="M23.5229 11.2822H16.4755C13.6114 11.2822 11.2812 13.6124 11.2812 16.4765V23.5239C11.2812 26.388 13.6114 28.7181 16.4755 28.7181H23.5229C26.387 28.7181 28.7171 26.388 28.7171 23.5239V16.4765C28.7171 13.6124 26.387 11.2822 23.5229 11.2822ZM26.963 23.5237C26.963 25.4237 25.4227 26.9639 23.5228 26.9639H16.4754C14.5754 26.9639 13.0352 25.4237 13.0352 23.5237V16.4763C13.0352 14.5763 14.5754 13.0361 16.4754 13.0361H23.5228C25.4227 13.0361 26.963 14.5763 26.963 16.4763V23.5237ZM15.4922 19.9997C15.4922 17.5132 17.5152 15.4902 20.0017 15.4902C22.4883 15.4902 24.5113 17.5132 24.5113 19.9997C24.5113 22.4863 22.4883 24.5093 20.0017 24.5093C17.5152 24.5093 15.4922 22.4863 15.4922 19.9997ZM19.9977 22.7561C18.4759 22.7561 17.2422 21.5224 17.2422 20.0006C17.2422 18.4788 18.4759 17.2451 19.9977 17.2451C21.5195 17.2451 22.7532 18.4788 22.7532 20.0006C22.7532 21.5224 21.5195 22.7561 19.9977 22.7561ZM24.5181 16.6045C25.1149 16.6045 25.5987 16.1207 25.5987 15.5239C25.5987 14.9272 25.1149 14.4434 24.5181 14.4434C23.9213 14.4434 23.4375 14.9272 23.4375 15.5239C23.4375 16.1207 23.9213 16.6045 24.5181 16.6045Z" fill="white"/>
<defs>
<linearGradient id="paint0_linear_15528_90934" x1="0.133641" y1="-0.0668204" x2="6.24504e-07" y2="39.9332" gradientUnits="userSpaceOnUse">
<stop stop-color="#7024C4"/>
<stop offset="0.415461" stop-color="#C21975"/>
<stop offset="0.702206" stop-color="#C74C4D"/>
<stop offset="1" stop-color="#E09B3D"/>
</linearGradient>
</defs>
</svg>
