<svg width="40" height="40" viewBox="0 0 40 40" fill="none" xmlns="http://www.w3.org/2000/svg">
<circle cx="20" cy="20" r="20" fill="#007AB7"/>
<path fill-rule="evenodd" clip-rule="evenodd" d="M16.0289 17.0762H13.0508V26.6673H16.0289V17.0762ZM16.2744 14.0383C16.2744 13.0848 15.4995 12.3086 14.5474 12.3086C13.5897 12.3086 12.8203 13.0848 12.8203 14.0383C12.8203 14.9919 13.5897 15.7681 14.5474 15.7681C15.4995 15.7681 16.2744 14.9919 16.2744 14.0383ZM20.7492 17.0766H17.904V26.6677H20.8765V21.9221C20.8765 20.6747 21.109 19.4605 22.6589 19.4605C24.1867 19.4605 24.2033 20.8909 24.2033 22.0052V26.6677H27.1759V21.412C27.1759 18.8285 26.6168 16.8438 23.6055 16.8438C22.1552 16.8438 21.1865 17.6365 20.7879 18.3905H20.7492V17.0766Z" fill="white"/>
</svg>
