<svg width="40" height="40" viewBox="0 0 40 40" fill="none" xmlns="http://www.w3.org/2000/svg">
<ellipse cx="20.0001" cy="20" rx="20.0001" ry="20" fill="#00AEF3"/>
<path fill-rule="evenodd" clip-rule="evenodd" d="M28.4081 20.0918C28.4081 20.6957 28.3412 21.2843 28.2155 21.8512C28.5361 22.4876 28.7172 23.2042 28.7172 23.9631C28.7172 26.5892 26.5582 28.7182 23.8946 28.7182C23.0699 28.7182 22.2936 28.5137 21.6147 28.1539C21.1211 28.244 20.6122 28.2915 20.092 28.2915C15.4991 28.2915 11.7759 24.6202 11.7759 20.0917C11.7759 19.5268 11.8338 18.9754 11.9441 18.4427C11.5235 17.7368 11.2812 16.9152 11.2812 16.0374C11.2812 13.4115 13.4404 11.2822 16.104 11.2822C17.0472 11.2822 17.9265 11.5502 18.6698 12.0119C19.132 11.9333 19.6071 11.892 20.092 11.892C24.6849 11.892 28.4081 15.5632 28.4081 20.0918ZM22.6653 25.2746C23.4018 24.9727 23.9702 24.5474 24.3549 24.0106C24.7409 23.4717 24.9367 22.8561 24.9368 22.1805C24.9368 21.616 24.8231 21.1301 24.5987 20.7366C24.3749 20.3444 24.0595 20.0159 23.6612 19.7601C23.2709 19.5099 22.7923 19.2943 22.2386 19.1195C22.1471 19.0907 22.0528 19.0623 21.9573 19.0342C21.4823 18.8944 20.9605 18.7637 20.4002 18.6451C19.8684 18.524 19.4806 18.4303 19.2494 18.3671C19.0238 18.3056 18.7986 18.2196 18.58 18.1112C18.3693 18.0073 18.2026 17.8823 18.0844 17.74C17.9728 17.6056 17.9186 17.4495 17.9186 17.2626C17.9186 16.958 18.0871 16.7009 18.434 16.4767C18.794 16.2439 19.2788 16.126 19.8749 16.126C20.5167 16.126 20.9839 16.2324 21.2633 16.442C21.5513 16.6578 21.8022 16.964 22.0096 17.3525C22.1888 17.6568 22.3502 17.8683 22.5059 18.0039C22.6731 18.15 22.9142 18.2241 23.2222 18.2241C23.5612 18.2241 23.8486 18.1056 24.0763 17.8722C24.3026 17.6402 24.4174 17.3739 24.4174 17.0809C24.4174 16.7765 24.3299 16.4618 24.1573 16.1455C23.9864 15.8325 23.7144 15.531 23.3486 15.2492C22.9856 14.9695 22.5234 14.7422 21.9753 14.5739C21.4303 14.4068 20.7773 14.3223 20.0346 14.3223C19.1057 14.3223 18.2848 14.4498 17.5946 14.7014C16.8954 14.9565 16.3523 15.3281 15.9804 15.8064C15.6057 16.2881 15.4157 16.8464 15.4157 17.4659C15.4157 18.1157 15.5967 18.6685 15.9538 19.1092C16.3054 19.5431 16.7861 19.8899 17.3824 20.14L17.3892 20.1428C17.9712 20.3863 18.7021 20.6017 19.5619 20.7832C20.1965 20.9142 20.7096 21.0395 21.0876 21.1557C21.4501 21.2671 21.7486 21.4296 21.975 21.6383C22.191 21.8379 22.2961 22.0923 22.2961 22.416C22.2961 22.8257 22.0948 23.1604 21.6807 23.4392C21.2567 23.7247 20.693 23.8694 20.0056 23.8694C19.5057 23.8694 19.0993 23.7981 18.7978 23.6573C18.4981 23.5177 18.2634 23.3387 18.1003 23.1258C17.9306 22.9045 17.77 22.6235 17.6226 22.2907C17.4906 21.985 17.3263 21.7484 17.135 21.5884C16.9345 21.4215 16.6881 21.3369 16.4023 21.3369C16.0542 21.3369 15.7623 21.4439 15.5344 21.6553C15.3042 21.8684 15.1875 22.1289 15.1875 22.4294C15.1875 22.9101 15.3667 23.4087 15.7199 23.9111C16.0697 24.4085 16.5304 24.8115 17.0892 25.1092C17.8707 25.518 18.8721 25.7251 20.0666 25.7251C21.0617 25.7251 21.936 25.5735 22.6653 25.2746Z" fill="white"/>
</svg>
