<svg width="40" height="40" viewBox="0 0 40 40" fill="none" xmlns="http://www.w3.org/2000/svg">
<circle cx="20" cy="20" r="20" fill="#45AEE4"/>
<path fill-rule="evenodd" clip-rule="evenodd" d="M15.0244 21.3503L10.9455 19.7446C10.5312 19.5809 10.5276 18.964 10.9407 18.796L27.6809 11.9851C28.0358 11.8403 28.402 12.1682 28.3247 12.5613L25.3205 27.8019C25.2497 28.1617 24.8497 28.3249 24.5674 28.1084L20.4664 24.9683C20.2174 24.7776 19.8779 24.7878 19.6396 24.9926L17.3659 26.9475C17.1019 27.1751 16.7043 27.0483 16.6033 26.7054L15.0244 21.3503ZM24.3221 15.3174L16.3503 20.4957C16.0447 20.6946 15.9009 21.0837 15.9996 21.4481L16.8615 24.6423C16.9227 24.8686 17.2342 24.8454 17.2639 24.6115L17.488 22.8599C17.5303 22.5301 17.6794 22.2263 17.9107 21.9992L24.4898 15.5493C24.6128 15.4289 24.4654 15.2246 24.3221 15.3174Z" fill="white"/>
<path d="M16.3503 20.4947L24.3221 15.3164C24.4654 15.2236 24.6128 15.4279 24.4898 15.5483L17.9107 21.9983C17.6794 22.2253 17.5303 22.5291 17.488 22.8589L17.2639 24.6106C17.2342 24.8445 16.9227 24.8677 16.8615 24.6413L15.9996 21.4471C15.9009 21.0828 16.0447 20.6936 16.3503 20.4947Z" fill="#EAEAEA"/>
</svg>
