<svg width="40" height="40" viewBox="0 0 40 40" fill="none" xmlns="http://www.w3.org/2000/svg">
<circle cx="20" cy="20" r="20" fill="#2AA3EF"/>
<path fill-rule="evenodd" clip-rule="evenodd" d="M28.2071 14.9112C27.6037 15.1789 26.954 15.3598 26.2734 15.4417C26.9685 15.0246 27.5024 14.3655 27.7534 13.5797C27.1027 13.9654 26.3825 14.2455 25.615 14.3959C25.001 13.7416 24.1263 13.333 23.158 13.333C21.2986 13.333 19.7906 14.8398 19.7906 16.699C19.7906 16.9637 19.8215 17.22 19.8784 17.4666C17.0806 17.3266 14.6005 15.9856 12.9399 13.9492C12.6493 14.4464 12.4843 15.0246 12.4843 15.6417C12.4843 16.8094 13.079 17.84 13.9816 18.4429C13.4294 18.4258 12.91 18.2743 12.4572 18.0219C12.4572 18.0362 12.4572 18.0505 12.4572 18.0648C12.4572 19.6954 13.6167 21.0555 15.1575 21.365C14.8746 21.4422 14.5783 21.4831 14.2703 21.4831C14.054 21.4831 13.8426 21.4622 13.637 21.4222C14.0656 22.7594 15.3091 23.7328 16.7823 23.7604C15.6296 24.6624 14.1776 25.2005 12.6001 25.2005C12.3288 25.2005 12.0604 25.1853 11.7969 25.1539C13.2865 26.1092 15.0561 26.6663 16.958 26.6663C23.1502 26.6663 26.537 21.5374 26.537 17.0895C26.537 16.9428 26.5331 16.799 26.5273 16.6542C27.1847 16.1799 27.7563 15.5865 28.2071 14.9122V14.9112Z" fill="white"/>
</svg>
