<svg width="40" height="40" viewBox="0 0 40 40" fill="none" xmlns="http://www.w3.org/2000/svg">
<ellipse cx="20.0001" cy="20" rx="20.0001" ry="20" fill="#25D366"/>
<path fill-rule="evenodd" clip-rule="evenodd" d="M25.7697 21.7828C25.4827 21.64 24.0759 20.9519 23.8139 20.8561C23.552 20.7612 23.3614 20.7142 23.1697 20.9998C22.9791 21.2835 22.4312 21.9256 22.2646 22.1153C22.097 22.306 21.9304 22.329 21.6444 22.1872C21.3584 22.0434 20.4359 21.7435 19.343 20.7736C18.4927 20.0185 17.9178 19.086 17.7512 18.8004C17.5847 18.5158 17.733 18.3615 17.8764 18.2197C18.0055 18.0922 18.1624 17.8871 18.3059 17.7214C18.4494 17.5546 18.4966 17.4358 18.5919 17.2451C18.6882 17.0553 18.64 16.8895 18.5678 16.7467C18.4966 16.6039 17.9246 15.2019 17.6858 14.6317C17.4537 14.0768 17.2178 14.1525 17.0425 14.1429C16.875 14.1353 16.6843 14.1334 16.4936 14.1334C16.303 14.1334 15.9929 14.2043 15.731 14.4899C15.4681 14.7745 14.7295 15.4635 14.7295 16.8656C14.7295 18.2666 15.7541 19.6208 15.8976 19.8115C16.0411 20.0012 17.9149 22.8781 20.7855 24.1115C21.4692 24.4048 22.0017 24.5801 22.4167 24.7105C23.1023 24.928 23.7263 24.8973 24.2193 24.8236C24.7682 24.7421 25.9122 24.1345 26.151 23.4694C26.3889 22.8043 26.3889 22.2341 26.3176 22.1153C26.2463 21.9965 26.0557 21.9256 25.7687 21.7828H25.7697ZM20.5486 28.8773H20.5448C18.8398 28.8776 17.1661 28.4215 15.6992 27.5567L15.3525 27.3516L11.7492 28.2927L12.7112 24.7967L12.4849 24.4383C11.5317 22.9283 11.0273 21.1807 11.0299 19.3975C11.0318 14.1746 15.3015 9.92533 20.5525 9.92533C23.0946 9.92533 25.4847 10.9124 27.2815 12.7026C28.1678 13.581 28.8702 14.6255 29.3483 15.7758C29.8263 16.9262 30.0703 18.1594 30.0664 19.4042C30.0644 24.6271 25.7947 28.8773 20.5486 28.8773ZM28.6489 11.3427C27.5879 10.2798 26.3255 9.43709 24.9349 8.8633C23.5443 8.28952 22.053 7.99609 20.5476 8.00004C14.2365 8.00004 9.09822 13.1127 9.09629 19.3965C9.09337 21.3963 9.6205 23.3615 10.6245 25.0938L9 31L15.0704 29.4149C16.7497 30.3255 18.6315 30.8025 20.5438 30.8026H20.5486C26.8597 30.8026 31.998 25.6899 31.9999 19.4051C32.0046 17.9075 31.7108 16.4239 31.1356 15.04C30.5604 13.6561 29.7152 12.3994 28.6489 11.3427Z" fill="white"/>
</svg>
