<svg width="24" height="24" viewBox="0 0 24 24" fill="none" xmlns="http://www.w3.org/2000/svg">
<path fill-rule="evenodd" clip-rule="evenodd" d="M16.4 2H3.6C2.712 2 2.008 2.72653 2.008 3.63265L2 13.4286C2 14.3347 2.712 15.0612 3.6 15.0612H6.00433L6 20.3674C6 21.2735 6.712 22 7.6 22H20.4C21.288 22 22 21.2735 22 20.3674V10.5714C22 9.66531 21.288 8.93878 20.4 8.93878H18V8.53062V3.63265C18 2.72653 17.288 2 16.4 2ZM16.4 8.93878V8.53062H3.6V13.4286H6.00567L6.008 10.5714C6.008 9.66531 6.712 8.93878 7.6 8.93878H16.4ZM16.4 5.26531H3.6V3.63265H16.4V5.26531ZM20.4 20.3674H7.6V15.4694V12.2041V10.5714H20.4V12.2041V15.4694V20.3674Z" fill="#212529"/>
<path d="M15.2 16.5V20.5H14.5L14.5001 15.97C14.5 15.5714 15 15.5 15 15.5H21L21 16.5H15.2Z" fill="#212529"/>
<path d="M14.5 20.5H15.2V16.5H21L21 15.5H15C15 15.5 14.5 15.5714 14.5001 15.97M14.5 20.5C14.5 20.5 14.5 16.273 14.5001 15.97M14.5 20.5L14.5001 15.97" stroke="#212529" stroke-linejoin="round"/>
</svg>
