<svg width="24" height="24" viewBox="0 0 24 24" fill="none" xmlns="http://www.w3.org/2000/svg">
<g clip-path="url(#clip0_1427_27268)">
<path d="M19.28 2H3.92C2.86397 2 2 2.86397 2 3.92V10.64C2 11.696 2.86397 12.56 3.92 12.56H5.74397L3.92 20.048C3.82397 20.624 4.30397 21.2001 4.88 21.2001H18.32C18.896 21.2001 19.376 20.624 19.28 20.048L17.456 12.56H19.28C20.336 12.56 21.2 11.696 21.2 10.64V3.92C21.2 2.86397 20.336 2 19.28 2ZM6.128 19.28C8.24007 10.448 7.76007 12.56 8.528 8.72H14.672C15.536 12.656 15.056 10.4479 17.072 19.28H6.128ZM19.28 10.64H17.0721L16.6881 8.72H17.36C17.9361 8.72 18.32 8.33603 18.32 7.76C18.32 7.18397 17.9361 6.8 17.36 6.8H5.84003C5.36003 6.8 4.88003 7.18397 4.88003 7.76C4.88003 8.33603 5.264 8.72 5.84003 8.72H6.60797L6.12797 10.64H3.92003V3.92H19.28L19.28 10.64Z" fill="#212529"/>
<path d="M10.2551 9.68031C9.77508 9.58428 9.29509 9.87236 9.10302 10.4482L7.56699 17.1682C7.47109 17.6482 7.75904 18.1282 8.33505 18.3203C8.81505 18.4163 9.39109 18.1282 9.48712 17.6482C10.9271 11.6002 10.6392 12.9442 11.0232 10.9282C11.119 10.3523 10.8311 9.77631 10.2551 9.68031Z" fill="#212529"/>
</g>
<defs>
<clipPath id="clip0_1427_27268">
<rect width="24" height="24" fill="white"/>
</clipPath>
</defs>
</svg>
